STARTFONT 2.1
FONT -JDECW-Screen-Medium-R-Normal--16-160-75-75-M-160-JISX0208-Kanji00
SIZE 16 75 75
FONTBOUNDINGBOX 16 16 0 -2

STARTPROPERTIES 26
FONTNAME_REGISTRY ""
FAMILY_NAME "Screen"
FOUNDRY "JDECW"
WEIGHT_NAME "Medium"
SLANT "R"
SETWIDTH_NAME "Normal"
ADD_STYLE_NAME ""
PIXEL_SIZE 16
POINT_SIZE 160
RESOLUTION_X 75
RESOLUTION_Y 75
SPACING "M"
AVERAGE_WIDTH 160
CHARSET_REGISTRY "JISX0208"
CHARSET_ENCODING "Kanji00"
DEVICE_FONT_NAME "Screen-JISX0208-Kanji00"
CHARSET_COLLECTIONS "JISX0208 Kanji00"
FULL_NAME "Screen JISX0208 Kanji00"
COPYRIGHT "Copyright (c) 1988 Digital Equipment Corporation Japan."
CAP_HEIGHT 13
X_HEIGHT 9
WEIGHT 10
QUAD_WIDTH 16
DEFAULT_CHAR 8738
FONT_DESCENT 2
FONT_ASCENT 14
ENDPROPERTIES

CHARS 7896

STARTCHAR C2121
ENCODING 8481
SWIDTH 900 0
DWIDTH 16 0
BBX 16 16 0 -2
BITMAP
0000
0000
0000
0000
0000
0000
0000
0000
0000
0000
0000
0000
0000
0000
0000
0000
ENDCHAR

STARTCHAR C2122
ENCODING 8482
SWIDTH 900 0
DWIDTH 16 0
BBX 16 16 0 -2
BITMAP
0000
0000
0000
0000
0000
0000
0000
0000
0000
0000
0000
2000
1000
1800
1800
0000
ENDCHAR

STARTCHAR C2123
ENCODING 8483
SWIDTH 900 0
DWIDTH 16 0
BBX 16 16 0 -2
BITMAP
0000
0000
0000
0000
0000
0000
0000
0000
0000
0000
3800
4400
4400
4400
3800
0000
ENDCHAR

STARTCHAR C2124
ENCODING 8484
SWIDTH 900 0
DWIDTH 16 0
BBX 16 16 0 -2
BITMAP
0000
0000
0000
0000
0000
0000
0000
0000
0000
0000
0000
0000
6000
6000
2000
4000
ENDCHAR

STARTCHAR C2125
ENCODING 8485
SWIDTH 900 0
DWIDTH 16 0
BBX 16 16 0 -2
BITMAP
0000
0000
0000
0000
0000
0000
0000
0000
0000
0000
0000
0000
6000
6000
0000
0000
ENDCHAR

STARTCHAR C2126
ENCODING 8486
SWIDTH 900 0
DWIDTH 16 0
BBX 16 16 0 -2
BITMAP
0000
0000
0000
0000
0000
0000
0180
03C0
03C0
0180
0000
0000
0000
0000
0000
0000
ENDCHAR

STARTCHAR C2127
ENCODING 8487
SWIDTH 900 0
DWIDTH 16 0
BBX 16 16 0 -2
BITMAP
0000
0000
0000
0000
0000
0000
0300
0300
0000
0000
0000
0000
0300
0300
0000
0000
ENDCHAR

STARTCHAR C2128
ENCODING 8488
SWIDTH 900 0
DWIDTH 16 0
BBX 16 16 0 -2
BITMAP
0000
0000
0000
0000
0000
0000
0300
0300
0000
0000
0000
0000
0300
0300
0100
0200
ENDCHAR

STARTCHAR C2129
ENCODING 8489
SWIDTH 900 0
DWIDTH 16 0
BBX 16 16 0 -2
BITMAP
0000
01C0
0220
0410
0410
0220
0040
0080
0080
0080
0000
0000
0180
0180
0000
0000
ENDCHAR

STARTCHAR C212a
ENCODING 8490
SWIDTH 900 0
DWIDTH 16 0
BBX 16 16 0 -2
BITMAP
0000
0180
0180
0180
0180
0080
0080
0080
0080
0080
0000
0000
0180
0180
0000
0000
ENDCHAR

STARTCHAR C212b
ENCODING 8491
SWIDTH 900 0
DWIDTH 16 0
BBX 16 16 0 -2
BITMAP
4000
2000
9000
4000
2000
0000
0000
0000
0000
0000
0000
0000
0000
0000
0000
0000
ENDCHAR

STARTCHAR C212c
ENCODING 8492
SWIDTH 900 0
DWIDTH 16 0
BBX 16 16 0 -2
BITMAP
6000
9000
9000
6000
0000
0000
0000
0000
0000
0000
0000
0000
0000
0000
0000
0000
ENDCHAR

STARTCHAR C212d
ENCODING 8493
SWIDTH 900 0
DWIDTH 16 0
BBX 16 16 0 -2
BITMAP
0080
0100
0200
0000
0000
0000
0000
0000
0000
0000
0000
0000
0000
0000
0000
0000
ENDCHAR

STARTCHAR C212e
ENCODING 8494
SWIDTH 900 0
DWIDTH 16 0
BBX 16 16 0 -2
BITMAP
0200
0100
0080
0000
0000
0000
0000
0000
0000
0000
0000
0000
0000
0000
0000
0000
ENDCHAR

STARTCHAR C212f
ENCODING 8495
SWIDTH 900 0
DWIDTH 16 0
BBX 16 16 0 -2
BITMAP
0C60
0C60
0000
0000
0000
0000
0000
0000
0000
0000
0000
0000
0000
0000
0000
0000
ENDCHAR

STARTCHAR C2130
ENCODING 8496
SWIDTH 900 0
DWIDTH 16 0
BBX 16 16 0 -2
BITMAP
0100
0280
0440
0000
0000
0000
0000
0000
0000
0000
0000
0000
0000
0000
0000
0000
ENDCHAR

STARTCHAR C2131
ENCODING 8497
SWIDTH 900 0
DWIDTH 16 0
BBX 16 16 0 -2
BITMAP
FFFE
0000
0000
0000
0000
0000
0000
0000
0000
0000
0000
0000
0000
0000
0000
0000
ENDCHAR

STARTCHAR C2132
ENCODING 8498
SWIDTH 900 0
DWIDTH 16 0
BBX 16 16 0 -2
BITMAP
0000
0000
0000
0000
0000
0000
0000
0000
0000
0000
0000
0000
0000
0000
0000
FFFE
ENDCHAR

STARTCHAR C2133
ENCODING 8499
SWIDTH 900 0
DWIDTH 16 0
BBX 16 16 0 -2
BITMAP
0000
0000
0000
0000
0000
0800
0400
0200
0100
0080
0080
0000
0000
0000
0000
0000
ENDCHAR

STARTCHAR C2134
ENCODING 8500
SWIDTH 900 0
DWIDTH 16 0
BBX 16 16 0 -2
BITMAP
0000
0000
0000
0010
0048
0800
0400
0200
0100
0080
0080
0000
0000
0000
0000
0000
ENDCHAR

STARTCHAR C2135
ENCODING 8501
SWIDTH 900 0
DWIDTH 16 0
BBX 16 16 0 -2
BITMAP
0000
0000
0000
0800
0800
0400
0200
0100
0080
0040
0020
01E0
0610
0000
0000
0000
ENDCHAR

STARTCHAR C2136
ENCODING 8502
SWIDTH 900 0
DWIDTH 16 0
BBX 16 16 0 -2
BITMAP
0000
0000
0000
0810
0848
0420
0200
0100
0080
0040
0020
01E0
0610
0000
0000
0000
ENDCHAR

STARTCHAR C2137
ENCODING 8503
SWIDTH 900 0
DWIDTH 16 0
BBX 16 16 0 -2
BITMAP
0000
0000
0000
0000
0000
0618
0618
0C30
1860
30C0
2080
4100
0000
0000
0000
0000
ENDCHAR

STARTCHAR C2138
ENCODING 8504
SWIDTH 900 0
DWIDTH 16 0
BBX 16 16 0 -2
BITMAP
0000
0000
0180
0240
0420
0810
1008
2004
4002
1FF8
0080
0080
0080
0080
7FFE
0000
ENDCHAR

STARTCHAR C2139
ENCODING 8505
SWIDTH 900 0
DWIDTH 16 0
BBX 16 16 0 -2
BITMAP
0000
0000
0100
0080
0080
0108
03FC
0408
0810
1320
20C0
0060
0030
0010
0000
0000
ENDCHAR

STARTCHAR C213a
ENCODING 8506
SWIDTH 900 0
DWIDTH 16 0
BBX 16 16 0 -2
BITMAP
0000
0000
0004
0004
0008
0810
0620
01C0
00C0
0120
0210
0400
4800
5000
2000
0000
ENDCHAR

STARTCHAR C213b
ENCODING 8507
SWIDTH 900 0
DWIDTH 16 0
BBX 16 16 0 -2
BITMAP
0000
03C0
0C30
1008
2004
2004
4002
4002
4002
4002
2004
2004
1008
0C30
03C0
0000
ENDCHAR

STARTCHAR C213c
ENCODING 8508
SWIDTH 900 0
DWIDTH 16 0
BBX 16 16 0 -2
BITMAP
0000
0000
0000
0000
0000
0000
0000
3FFC
0000
0000
0000
0000
0000
0000
0000
0000
ENDCHAR

STARTCHAR C213d
ENCODING 8509
SWIDTH 900 0
DWIDTH 16 0
BBX 16 16 0 -2
BITMAP
0000
0000
0000
0000
0000
0000
0000
7FFE
0000
0000
0000
0000
0000
0000
0000
0000
ENDCHAR

STARTCHAR C213e
ENCODING 8510
SWIDTH 900 0
DWIDTH 16 0
BBX 16 16 0 -2
BITMAP
0000
0000
0000
0000
0000
0000
0000
07C0
0000
0000
0000
0000
0000
0000
0000
0000
ENDCHAR

STARTCHAR C213f
ENCODING 8511
SWIDTH 900 0
DWIDTH 16 0
BBX 16 16 0 -2
BITMAP
0002
0004
0008
0010
0020
0040
0080
0100
0200
0400
0800
1000
2000
4000
8000
0000
ENDCHAR

STARTCHAR C2140
ENCODING 8512
SWIDTH 900 0
DWIDTH 16 0
BBX 16 16 0 -2
BITMAP
8000
4000
2000
1000
0800
0400
0200
0100
0080
0040
0020
0010
0008
0004
0002
0000
ENDCHAR

STARTCHAR C2141
ENCODING 8513
SWIDTH 900 0
DWIDTH 16 0
BBX 16 16 0 -2
BITMAP
0000
0000
0000
0000
0000
0000
0E00
1100
2082
0044
0038
0000
0000
0000
0000
0000
ENDCHAR

STARTCHAR C2142
ENCODING 8514
SWIDTH 900 0
DWIDTH 16 0
BBX 16 16 0 -2
BITMAP
0440
0440
0440
0440
0440
0440
0440
0440
0440
0440
0440
0440
0440
0440
0440
0440
ENDCHAR

STARTCHAR C2143
ENCODING 8515
SWIDTH 900 0
DWIDTH 16 0
BBX 16 16 0 -2
BITMAP
0100
0100
0100
0100
0100
0100
0100
0100
0100
0100
0100
0100
0100
0100
0100
0100
ENDCHAR

STARTCHAR C2144
ENCODING 8516
SWIDTH 900 0
DWIDTH 16 0
BBX 16 16 0 -2
BITMAP
0000
0000
0000
0000
0000
0000
0000
6318
6318
0000
0000
0000
0000
0000
0000
0000
ENDCHAR

STARTCHAR C2145
ENCODING 8517
SWIDTH 900 0
DWIDTH 16 0
BBX 16 16 0 -2
BITMAP
0000
0000
0000
0000
0000
0000
0000
1830
1830
0000
0000
0000
0000
0000
0000
0000
ENDCHAR

STARTCHAR C2146
ENCODING 8518
SWIDTH 900 0
DWIDTH 16 0
BBX 16 16 0 -2
BITMAP
0004
0008
000C
000C
0000
0000
0000
0000
0000
0000
0000
0000
0000
0000
0000
0000
ENDCHAR

STARTCHAR C2147
ENCODING 8519
SWIDTH 900 0
DWIDTH 16 0
BBX 16 16 0 -2
BITMAP
C000
C000
4000
8000
0000
0000
0000
0000
0000
0000
0000
0000
0000
0000
0000
0000
ENDCHAR

STARTCHAR C2148
ENCODING 8520
SWIDTH 900 0
DWIDTH 16 0
BBX 16 16 0 -2
BITMAP
0022
0044
0066
0066
0000
0000
0000
0000
0000
0000
0000
0000
0000
0000
0000
0000
ENDCHAR

STARTCHAR C2149
ENCODING 8521
SWIDTH 900 0
DWIDTH 16 0
BBX 16 16 0 -2
BITMAP
CC00
CC00
4400
8800
0000
0000
0000
0000
0000
0000
0000
0000
0000
0000
0000
0000
ENDCHAR

STARTCHAR C214a
ENCODING 8522
SWIDTH 900 0
DWIDTH 16 0
BBX 16 16 0 -2
BITMAP
0000
0002
0004
0008
0008
0010
0010
0010
0010
0010
0010
0008
0008
0004
0002
0000
ENDCHAR

STARTCHAR C214b
ENCODING 8523
SWIDTH 900 0
DWIDTH 16 0
BBX 16 16 0 -2
BITMAP
0000
4000
2000
1000
1000
0800
0800
0800
0800
0800
0800
1000
1000
2000
4000
0000
ENDCHAR

STARTCHAR C214c
ENCODING 8524
SWIDTH 900 0
DWIDTH 16 0
BBX 16 16 0 -2
BITMAP
0002
0004
0008
0010
0010
0010
0010
0010
0010
0010
0010
0010
0010
0008
0004
0002
ENDCHAR

STARTCHAR C214d
ENCODING 8525
SWIDTH 900 0
DWIDTH 16 0
BBX 16 16 0 -2
BITMAP
8000
4000
2000
1000
1000
1000
1000
1000
1000
1000
1000
1000
1000
2000
4000
8000
ENDCHAR

STARTCHAR C214e
ENCODING 8526
SWIDTH 900 0
DWIDTH 16 0
BBX 16 16 0 -2
BITMAP
0000
001E
0010
0010
0010
0010
0010
0010
0010
0010
0010
0010
0010
0010
001E
0000
ENDCHAR

STARTCHAR C214f
ENCODING 8527
SWIDTH 900 0
DWIDTH 16 0
BBX 16 16 0 -2
BITMAP
0000
7800
0800
0800
0800
0800
0800
0800
0800
0800
0800
0800
0800
0800
7800
0000
ENDCHAR

STARTCHAR C2150
ENCODING 8528
SWIDTH 900 0
DWIDTH 16 0
BBX 16 16 0 -2
BITMAP
0002
0004
0008
0008
0008
0008
0008
0010
0010
0008
0008
0008
0008
0008
0004
0002
ENDCHAR

STARTCHAR C2151
ENCODING 8529
SWIDTH 900 0
DWIDTH 16 0
BBX 16 16 0 -2
BITMAP
4000
2000
1000
1000
1000
1000
1000
0800
0800
1000
1000
1000
1000
1000
2000
4000
ENDCHAR

STARTCHAR C2152
ENCODING 8530
SWIDTH 900 0
DWIDTH 16 0
BBX 16 16 0 -2
BITMAP
0000
0000
0002
0004
0008
0010
0020
0040
0040
0020
0010
0008
0004
0002
0000
0000
ENDCHAR

STARTCHAR C2153
ENCODING 8531
SWIDTH 900 0
DWIDTH 16 0
BBX 16 16 0 -2
BITMAP
0000
0000
4000
2000
1000
0800
0400
0200
0200
0400
0800
1000
2000
4000
0000
0000
ENDCHAR

STARTCHAR C2154
ENCODING 8532
SWIDTH 900 0
DWIDTH 16 0
BBX 16 16 0 -2
BITMAP
0000
0012
0024
0024
0048
0048
0090
0120
0120
0090
0048
0048
0024
0024
0012
0000
ENDCHAR

STARTCHAR C2155
ENCODING 8533
SWIDTH 900 0
DWIDTH 16 0
BBX 16 16 0 -2
BITMAP
0000
4800
2400
2400
1200
1200
0900
0480
0480
0900
1200
1200
2400
2400
4800
0000
ENDCHAR

STARTCHAR C2156
ENCODING 8534
SWIDTH 900 0
DWIDTH 16 0
BBX 16 16 0 -2
BITMAP
0000
001E
0010
0010
0010
0010
0010
0010
0010
0010
0000
0000
0000
0000
0000
0000
ENDCHAR

STARTCHAR C2157
ENCODING 8535
SWIDTH 900 0
DWIDTH 16 0
BBX 16 16 0 -2
BITMAP
0000
0000
0000
0000
0000
0000
0000
0800
0800
0800
0800
0800
0800
0800
7800
0000
ENDCHAR

STARTCHAR C2158
ENCODING 8536
SWIDTH 900 0
DWIDTH 16 0
BBX 16 16 0 -2
BITMAP
0000
003E
0022
002E
0028
0028
0028
0028
0028
0028
0038
0000
0000
0000
0000
0000
ENDCHAR

STARTCHAR C2159
ENCODING 8537
SWIDTH 900 0
DWIDTH 16 0
BBX 16 16 0 -2
BITMAP
0000
0000
0000
0000
0000
1C00
1400
1400
1400
1400
1400
1400
7400
4400
7C00
0000
ENDCHAR

STARTCHAR C215a
ENCODING 8538
SWIDTH 900 0
DWIDTH 16 0
BBX 16 16 0 -2
BITMAP
0000
003E
003C
0038
0030
0030
0030
0030
0030
0030
0030
0030
0038
003C
003E
0000
ENDCHAR

STARTCHAR C215b
ENCODING 8539
SWIDTH 900 0
DWIDTH 16 0
BBX 16 16 0 -2
BITMAP
0000
7C00
3C00
1C00
0C00
0C00
0C00
0C00
0C00
0C00
0C00
0C00
1C00
3C00
7C00
0000
ENDCHAR

STARTCHAR C215c
ENCODING 8540
SWIDTH 900 0
DWIDTH 16 0
BBX 16 16 0 -2
BITMAP
0000
0000
0000
0000
0100
0100
0100
0100
3FF8
0100
0100
0100
0100
0000
0000
0000
ENDCHAR

STARTCHAR C215d
ENCODING 8541
SWIDTH 900 0
DWIDTH 16 0
BBX 16 16 0 -2
BITMAP
0000
0000
0000
0000
0000
0000
0000
0000
1FF8
0000
0000
0000
0000
0000
0000
0000
ENDCHAR

STARTCHAR C215e
ENCODING 8542
SWIDTH 900 0
DWIDTH 16 0
BBX 16 16 0 -2
BITMAP
0000
0000
0000
0000
0100
0100
0100
0100
1FF8
0100
0100
0100
0100
0000
1FF8
0000
ENDCHAR

STARTCHAR C215f
ENCODING 8543
SWIDTH 900 0
DWIDTH 16 0
BBX 16 16 0 -2
BITMAP
0000
0000
0000
0000
1010
0820
0440
0280
0100
0280
0440
0820
1010
0000
0000
0000
ENDCHAR

STARTCHAR C2160
ENCODING 8544
SWIDTH 900 0
DWIDTH 16 0
BBX 16 16 0 -2
BITMAP
0000
0000
0000
0000
0000
0300
0300
0000
3FF0
0000
0300
0300
0000
0000
0000
0000
ENDCHAR

STARTCHAR C2161
ENCODING 8545
SWIDTH 900 0
DWIDTH 16 0
BBX 16 16 0 -2
BITMAP
0000
0000
0000
0000
0000
0000
1FF8
0000
0000
1FF8
0000
0000
0000
0000
0000
0000
ENDCHAR

STARTCHAR C2162
ENCODING 8546
SWIDTH 900 0
DWIDTH 16 0
BBX 16 16 0 -2
BITMAP
0000
0000
0000
0000
0020
0040
0080
1FF8
0100
1FF8
0200
0400
0800
0000
0000
0000
ENDCHAR

STARTCHAR C2163
ENCODING 8547
SWIDTH 900 0
DWIDTH 16 0
BBX 16 16 0 -2
BITMAP
0000
0004
0018
0060
0180
0600
1800
6000
1800
0600
0180
0060
0018
0004
0000
0000
ENDCHAR

STARTCHAR C2164
ENCODING 8548
SWIDTH 900 0
DWIDTH 16 0
BBX 16 16 0 -2
BITMAP
0000
2000
1800
0600
0180
0060
0018
0006
0018
0020
00C0
0300
0C00
3000
0000
0000
ENDCHAR

STARTCHAR C2165
ENCODING 8549
SWIDTH 900 0
DWIDTH 16 0
BBX 16 16 0 -2
BITMAP
0000
000C
0030
00C0
0300
0C00
3000
0C00
0300
00C0
0030
000C
3FFC
0000
3FFC
0000
ENDCHAR

STARTCHAR C2166
ENCODING 8550
SWIDTH 900 0
DWIDTH 16 0
BBX 16 16 0 -2
BITMAP
0000
3000
0C00
0300
00C0
0030
000C
0030
00C0
0300
0C00
3000
3FFC
0000
3FFC
0000
ENDCHAR

STARTCHAR C2167
ENCODING 8551
SWIDTH 900 0
DWIDTH 16 0
BBX 16 16 0 -2
BITMAP
0000
0000
0000
0000
0000
0000
3C3C
4242
4182
4182
4242
3C3C
0000
0000
0000
0000
ENDCHAR

STARTCHAR C2168
ENCODING 8552
SWIDTH 900 0
DWIDTH 16 0
BBX 16 16 0 -2
BITMAP
0000
0000
0000
0000
0300
0300
0000
0000
0000
0000
0000
3030
3030
0000
0000
0000
ENDCHAR

STARTCHAR C2169
ENCODING 8553
SWIDTH 900 0
DWIDTH 16 0
BBX 16 16 0 -2
BITMAP
0000
0100
0380
0540
0920
1110
0100
0100
0100
0100
0380
0440
0820
0820
0440
0380
ENDCHAR

STARTCHAR C216a
ENCODING 8554
SWIDTH 900 0
DWIDTH 16 0
BBX 16 16 0 -2
BITMAP
0000
0380
0440
0820
0820
0440
0380
0100
0100
1FF0
0100
0100
0100
0100
0100
0000
ENDCHAR

STARTCHAR C216b
ENCODING 8555
SWIDTH 900 0
DWIDTH 16 0
BBX 16 16 0 -2
BITMAP
6000
9000
9000
6000
0000
0000
0000
0000
0000
0000
0000
0000
0000
0000
0000
0000
ENDCHAR

STARTCHAR C216c
ENCODING 8556
SWIDTH 900 0
DWIDTH 16 0
BBX 16 16 0 -2
BITMAP
3000
7000
6000
8000
0000
0000
0000
0000
0000
0000
0000
0000
0000
0000
0000
0000
ENDCHAR

STARTCHAR C216d
ENCODING 8557
SWIDTH 900 0
DWIDTH 16 0
BBX 16 16 0 -2
BITMAP
3300
6600
6600
8800
0000
0000
0000
0000
0000
0000
0000
0000
0000
0000
0000
0000
ENDCHAR

STARTCHAR C216e
ENCODING 8558
SWIDTH 900 0
DWIDTH 16 0
BBX 16 16 0 -2
BITMAP
0000
0000
3000
48F4
490C
3204
0204
0400
0400
0400
0402
0204
0204
0198
0060
0000
ENDCHAR

STARTCHAR C216f
ENCODING 8559
SWIDTH 900 0
DWIDTH 16 0
BBX 16 16 0 -2
BITMAP
0000
0000
3C38
1810
0C20
0640
3FF8
0100
0100
3FF8
0100
0100
0100
0380
0000
0000
ENDCHAR

STARTCHAR C2170
ENCODING 8560
SWIDTH 900 0
DWIDTH 16 0
BBX 16 16 0 -2
BITMAP
0000
0280
0280
07D0
0AB0
0A90
0A90
0680
03E0
1290
1290
1A90
17E0
0280
0280
0000
ENDCHAR

STARTCHAR C2171
ENCODING 8561
SWIDTH 900 0
DWIDTH 16 0
BBX 16 16 0 -2
BITMAP
0000
0100
0100
07D0
0930
1110
1110
1100
1100
1110
1110
0930
07C0
0100
0100
0000
ENDCHAR

STARTCHAR C2172
ENCODING 8562
SWIDTH 900 0
DWIDTH 16 0
BBX 16 16 0 -2
BITMAP
0000
00E0
0110
0218
0208
0200
0200
1FE0
0100
0100
1F00
2104
2388
1C70
0000
0000
ENDCHAR

STARTCHAR C2173
ENCODING 8563
SWIDTH 900 0
DWIDTH 16 0
BBX 16 16 0 -2
BITMAP
0000
0E02
1104
2108
4110
4220
2440
189C
0122
0242
0482
0884
1048
2030
0000
0000
ENDCHAR

STARTCHAR C2174
ENCODING 8564
SWIDTH 900 0
DWIDTH 16 0
BBX 16 16 0 -2
BITMAP
0000
0000
0000
0220
0220
0220
1FF8
0440
0440
0440
3FF0
0880
0880
0880
0000
0000
ENDCHAR

STARTCHAR C2175
ENCODING 8565
SWIDTH 900 0
DWIDTH 16 0
BBX 16 16 0 -2
BITMAP
0000
0000
0780
0840
0840
0840
0480
0F04
120C
2108
2090
2060
10A6
0F1C
0000
0000
ENDCHAR

STARTCHAR C2176
ENCODING 8566
SWIDTH 900 0
DWIDTH 16 0
BBX 16 16 0 -2
BITMAP
0000
0000
0000
0100
1110
0920
0540
0380
0380
0540
0920
1110
0100
0000
0000
0000
ENDCHAR

STARTCHAR C2177
ENCODING 8567
SWIDTH 900 0
DWIDTH 16 0
BBX 16 16 0 -2
BITMAP
0000
0000
03C0
0C30
1008
2004
2024
4344
44C4
4448
44D2
2324
1004
0818
07E0
0000
ENDCHAR

STARTCHAR C2178
ENCODING 8568
SWIDTH 900 0
DWIDTH 16 0
BBX 16 16 0 -2
BITMAP
0000
0780
0840
0840
0400
0300
0CC0
1020
1020
0CC0
0300
0080
0840
0840
0780
0000
ENDCHAR

STARTCHAR C2179
ENCODING 8569
SWIDTH 900 0
DWIDTH 16 0
BBX 16 16 0 -2
BITMAP
0000
0000
0100
0380
0380
06C0
7C7C
3018
1830
0C60
07C0
06C0
0C60
1830
0000
0000
ENDCHAR

STARTCHAR C217a
ENCODING 8570
SWIDTH 900 0
DWIDTH 16 0
BBX 16 16 0 -2
BITMAP
0000
0000
0100
0380
0380
07C0
7FFC
3FF8
1FF0
0FE0
07C0
07C0
0C60
1830
0000
0000
ENDCHAR

STARTCHAR C217b
ENCODING 8571
SWIDTH 900 0
DWIDTH 16 0
BBX 16 16 0 -2
BITMAP
0000
03C0
0C30
1008
2004
2004
4002
4002
4002
4002
2004
2004
1008
0C30
03C0
0000
ENDCHAR

STARTCHAR C217c
ENCODING 8572
SWIDTH 900 0
DWIDTH 16 0
BBX 16 16 0 -2
BITMAP
0000
03C0
0FF0
1FF8
3FFC
3FFC
7FFE
7FFE
7FFE
7FFE
3FFC
3FFC
1FF8
0FF0
03C0
0000
ENDCHAR

STARTCHAR C217d
ENCODING 8573
SWIDTH 900 0
DWIDTH 16 0
BBX 16 16 0 -2
BITMAP
0000
03C0
0C30
1008
2004
2184
4242
4422
4422
4242
2184
2004
1008
0C30
03C0
0000
ENDCHAR

STARTCHAR C217e
ENCODING 8574
SWIDTH 900 0
DWIDTH 16 0
BBX 16 16 0 -2
BITMAP
0000
0100
0380
06C0
0C60
1830
3018
600C
600C
3018
1830
0C60
06C0
0380
0100
0000
ENDCHAR

STARTCHAR C2221
ENCODING 8737
SWIDTH 900 0
DWIDTH 16 0
BBX 16 16 0 -2
BITMAP
0000
0100
0380
07C0
0FE0
1FF0
3FF8
7FFC
7FFC
3FF8
1FF0
0FE0
07C0
0380
0100
0000
ENDCHAR

STARTCHAR C2222
ENCODING 8738
SWIDTH 900 0
DWIDTH 16 0
BBX 16 16 0 -2
BITMAP
0000
7FFE
4002
4002
4002
4002
4002
4002
4002
4002
4002
4002
4002
4002
7FFE
0000
ENDCHAR

STARTCHAR C2223
ENCODING 8739
SWIDTH 900 0
DWIDTH 16 0
BBX 16 16 0 -2
BITMAP
0000
7FFE
7FFE
7FFE
7FFE
7FFE
7FFE
7FFE
7FFE
7FFE
7FFE
7FFE
7FFE
7FFE
7FFE
0000
ENDCHAR

STARTCHAR C2224
ENCODING 8740
SWIDTH 900 0
DWIDTH 16 0
BBX 16 16 0 -2
BITMAP
0000
0100
0100
0280
0280
0440
0440
0820
0820
1010
1010
2008
2008
4004
7FFC
0000
ENDCHAR

STARTCHAR C2225
ENCODING 8741
SWIDTH 900 0
DWIDTH 16 0
BBX 16 16 0 -2
BITMAP
0000
0100
0100
0380
0380
07C0
07C0
0FE0
0FE0
1FF0
1FF0
3FF8
3FF8
7FFC
7FFC
0000
ENDCHAR

STARTCHAR C2226
ENCODING 8742
SWIDTH 900 0
DWIDTH 16 0
BBX 16 16 0 -2
BITMAP
0000
7FFC
4004
2008
2008
1010
1010
0820
0820
0440
0440
0280
0280
0100
0100
0000
ENDCHAR

STARTCHAR C2227
ENCODING 8743
SWIDTH 900 0
DWIDTH 16 0
BBX 16 16 0 -2
BITMAP
0000
7FFC
7FFC
3FF8
3FF8
1FF0
1FF0
0FE0
0FE0
07C0
07C0
0380
0380
0100
0100
0000
ENDCHAR

STARTCHAR C2228
ENCODING 8744
SWIDTH 900 0
DWIDTH 16 0
BBX 16 16 0 -2
BITMAP
0000
0000
4008
2310
1320
0840
0480
6330
6330
0480
0840
1320
2310
4008
0000
0000
ENDCHAR

STARTCHAR C2229
ENCODING 8745
SWIDTH 900 0
DWIDTH 16 0
BBX 16 16 0 -2
BITMAP
0000
0000
3FF8
0000
0000
0000
3FF8
0100
0100
0100
0100
0100
0100
0100
0000
0000
ENDCHAR

STARTCHAR C222a
ENCODING 8746
SWIDTH 900 0
DWIDTH 16 0
BBX 16 16 0 -2
BITMAP
0000
0000
0000
0000
0020
0030
0018
7FFE
0018
0030
0020
0000
0000
0000
0000
0000
ENDCHAR

STARTCHAR C222b
ENCODING 8747
SWIDTH 900 0
DWIDTH 16 0
BBX 16 16 0 -2
BITMAP
0000
0000
0000
0000
0400
0C00
1800
7FFE
1800
0C00
0400
0000
0000
0000
0000
0000
ENDCHAR

STARTCHAR C222c
ENCODING 8748
SWIDTH 900 0
DWIDTH 16 0
BBX 16 16 0 -2
BITMAP
0000
0000
0100
0100
0380
07C0
0D60
0100
0100
0100
0100
0100
0100
0100
0100
0000
ENDCHAR

STARTCHAR C222d
ENCODING 8749
SWIDTH 900 0
DWIDTH 16 0
BBX 16 16 0 -2
BITMAP
0000
0100
0100
0100
0100
0100
0100
0100
0100
0100
0D60
07C0
0380
0100
0100
0000
ENDCHAR

STARTCHAR C222e
ENCODING 8750
SWIDTH 900 0
DWIDTH 16 0
BBX 16 16 0 -2
BITMAP
0000
0000
0000
3FF0
3FF0
3FF0
3FF0
0000
0000
0000
3FF0
3FF0
3FF0
3FF0
0000
0000
ENDCHAR

STARTCHAR C222f
ENCODING 8751
SWIDTH 900 0
DWIDTH 16 0
BBX 16 16 0 -2
BITMAP
0000
0000
0000
0000
0000
0000
0000
0000
0000
0000
0000
0000
0000
0000
0000
0000
ENDCHAR

STARTCHAR C2230
ENCODING 8752
SWIDTH 900 0
DWIDTH 16 0
BBX 16 16 0 -2
BITMAP
0000
0000
0000
0000
0000
0000
0000
0000
0000
0000
0000
0000
0000
0000
0000
0000
ENDCHAR

STARTCHAR C2231
ENCODING 8753
SWIDTH 900 0
DWIDTH 16 0
BBX 16 16 0 -2
BITMAP
0000
0000
0000
0000
0000
0000
0000
0000
0000
0000
0000
0000
0000
0000
0000
0000
ENDCHAR

STARTCHAR C2232
ENCODING 8754
SWIDTH 900 0
DWIDTH 16 0
BBX 16 16 0 -2
BITMAP
0000
0000
0000
0000
0000
0000
0000
0000
0000
0000
0000
0000
0000
0000
0000
0000
ENDCHAR

STARTCHAR C2233
ENCODING 8755
SWIDTH 900 0
DWIDTH 16 0
BBX 16 16 0 -2
BITMAP
0000
0000
0000
0000
0000
0000
0000
0000
0000
0000
0000
0000
0000
0000
0000
0000
ENDCHAR

STARTCHAR C2234
ENCODING 8756
SWIDTH 900 0
DWIDTH 16 0
BBX 16 16 0 -2
BITMAP
0000
0000
0000
0000
0000
0000
0000
0000
0000
0000
0000
0000
0000
0000
0000
0000
ENDCHAR

STARTCHAR C2235
ENCODING 8757
SWIDTH 900 0
DWIDTH 16 0
BBX 16 16 0 -2
BITMAP
0000
0000
0000
0000
0000
0000
0000
0000
0000
0000
0000
0000
0000
0000
0000
0000
ENDCHAR

STARTCHAR C2236
ENCODING 8758
SWIDTH 900 0
DWIDTH 16 0
BBX 16 16 0 -2
BITMAP
0000
0000
0000
0000
0000
0000
0000
0000
0000
0000
0000
0000
0000
0000
0000
0000
ENDCHAR

STARTCHAR C2237
ENCODING 8759
SWIDTH 900 0
DWIDTH 16 0
BBX 16 16 0 -2
BITMAP
0000
0000
0000
0000
0000
0000
0000
0000
0000
0000
0000
0000
0000
0000
0000
0000
ENDCHAR

STARTCHAR C2238
ENCODING 8760
SWIDTH 900 0
DWIDTH 16 0
BBX 16 16 0 -2
BITMAP
0000
0000
0000
0000
0000
0000
0000
0000
0000
0000
0000
0000
0000
0000
0000
0000
ENDCHAR

STARTCHAR C2239
ENCODING 8761
SWIDTH 900 0
DWIDTH 16 0
BBX 16 16 0 -2
BITMAP
0000
0000
0000
0000
0000
0000
0000
0000
0000
0000
0000
0000
0000
0000
0000
0000
ENDCHAR

STARTCHAR C223a
ENCODING 8762
SWIDTH 900 0
DWIDTH 16 0
BBX 16 16 0 -2
BITMAP
0000
0000
0000
07F0
0C00
1800
1000
1FF0
1000
1800
0C00
07F0
0000
0000
0000
0000
ENDCHAR

STARTCHAR C223b
ENCODING 8763
SWIDTH 900 0
DWIDTH 16 0
BBX 16 16 0 -2
BITMAP
0000
0000
0000
1FC0
0060
0030
0010
1FF0
0010
0030
0060
1FC0
0000
0000
0000
0000
ENDCHAR

STARTCHAR C223c
ENCODING 8764
SWIDTH 900 0
DWIDTH 16 0
BBX 16 16 0 -2
BITMAP
0000
0000
0FF8
1800
3000
2000
2000
2000
3000
1800
0FF8
0000
3FF8
0000
0000
0000
ENDCHAR

STARTCHAR C223d
ENCODING 8765
SWIDTH 900 0
DWIDTH 16 0
BBX 16 16 0 -2
BITMAP
0000
0000
3FE0
0030
0018
0008
0008
0008
0018
0030
3FE0
0000
3FF8
0000
0000
0000
ENDCHAR

STARTCHAR C223e
ENCODING 8766
SWIDTH 900 0
DWIDTH 16 0
BBX 16 16 0 -2
BITMAP
0000
0000
0000
07F8
1C00
3000
2000
2000
2000
2000
3000
1C00
07F8
0000
0000
0000
ENDCHAR

STARTCHAR C223f
ENCODING 8767
SWIDTH 900 0
DWIDTH 16 0
BBX 16 16 0 -2
BITMAP
0000
0000
0000
3FC0
0070
0018
0008
0008
0008
0008
0018
0070
3FC0
0000
0000
0000
ENDCHAR

STARTCHAR C2240
ENCODING 8768
SWIDTH 900 0
DWIDTH 16 0
BBX 16 16 0 -2
BITMAP
0000
0000
1010
1010
1010
1010
1010
1010
1010
1010
1830
0820
0C60
07C0
0000
0000
ENDCHAR

STARTCHAR C2241
ENCODING 8769
SWIDTH 900 0
DWIDTH 16 0
BBX 16 16 0 -2
BITMAP
0000
0000
07C0
0C60
0820
1830
1010
1010
1010
1010
1010
1010
1010
1010
0000
0000
ENDCHAR

STARTCHAR C2242
ENCODING 8770
SWIDTH 900 0
DWIDTH 16 0
BBX 16 16 0 -2
BITMAP
0000
0000
0000
0000
0000
0000
0000
0000
0000
0000
0000
0000
0000
0000
0000
0000
ENDCHAR

STARTCHAR C2243
ENCODING 8771
SWIDTH 900 0
DWIDTH 16 0
BBX 16 16 0 -2
BITMAP
0000
0000
0000
0000
0000
0000
0000
0000
0000
0000
0000
0000
0000
0000
0000
0000
ENDCHAR

STARTCHAR C2244
ENCODING 8772
SWIDTH 900 0
DWIDTH 16 0
BBX 16 16 0 -2
BITMAP
0000
0000
0000
0000
0000
0000
0000
0000
0000
0000
0000
0000
0000
0000
0000
0000
ENDCHAR

STARTCHAR C2245
ENCODING 8773
SWIDTH 900 0
DWIDTH 16 0
BBX 16 16 0 -2
BITMAP
0000
0000
0000
0000
0000
0000
0000
0000
0000
0000
0000
0000
0000
0000
0000
0000
ENDCHAR

STARTCHAR C2246
ENCODING 8774
SWIDTH 900 0
DWIDTH 16 0
BBX 16 16 0 -2
BITMAP
0000
0000
0000
0000
0000
0000
0000
0000
0000
0000
0000
0000
0000
0000
0000
0000
ENDCHAR

STARTCHAR C2247
ENCODING 8775
SWIDTH 900 0
DWIDTH 16 0
BBX 16 16 0 -2
BITMAP
0000
0000
0000
0000
0000
0000
0000
0000
0000
0000
0000
0000
0000
0000
0000
0000
ENDCHAR

STARTCHAR C2248
ENCODING 8776
SWIDTH 900 0
DWIDTH 16 0
BBX 16 16 0 -2
BITMAP
0000
0000
0000
0000
0000
0000
0000
0000
0000
0000
0000
0000
0000
0000
0000
0000
ENDCHAR

STARTCHAR C2249
ENCODING 8777
SWIDTH 900 0
DWIDTH 16 0
BBX 16 16 0 -2
BITMAP
0000
0000
0000
0000
0000
0000
0000
0000
0000
0000
0000
0000
0000
0000
0000
0000
ENDCHAR

STARTCHAR C224a
ENCODING 8778
SWIDTH 900 0
DWIDTH 16 0
BBX 16 16 0 -2
BITMAP
0000
0000
0100
0100
0280
0280
0440
0440
0820
0820
1010
1010
2008
2008
0000
0000
ENDCHAR

STARTCHAR C224b
ENCODING 8779
SWIDTH 900 0
DWIDTH 16 0
BBX 16 16 0 -2
BITMAP
0000
0000
2008
2008
1010
1010
0820
0820
0440
0440
0280
0280
0100
0100
0000
0000
ENDCHAR

STARTCHAR C224c
ENCODING 8780
SWIDTH 900 0
DWIDTH 16 0
BBX 16 16 0 -2
BITMAP
0000
0000
0000
0000
0000
0000
3FF8
0008
0008
0008
0008
0000
0000
0000
0000
0000
ENDCHAR

STARTCHAR C224d
ENCODING 8781
SWIDTH 900 0
DWIDTH 16 0
BBX 16 16 0 -2
BITMAP
0000
0000
0040
0020
0010
FFF8
0004
0002
0004
FFF8
0010
0020
0040
0000
0000
0000
ENDCHAR

STARTCHAR C224e
ENCODING 8782
SWIDTH 900 0
DWIDTH 16 0
BBX 16 16 0 -2
BITMAP
0000
0000
0440
0820
1010
3FF8
4004
8002
4004
3FF8
1010
0820
0440
0000
0000
0000
ENDCHAR

STARTCHAR C224f
ENCODING 8783
SWIDTH 900 0
DWIDTH 16 0
BBX 16 16 0 -2
BITMAP
0000
0000
2008
2008
1010
1010
0FE0
0820
0440
0440
0280
0280
0100
0100
0000
0000
ENDCHAR

STARTCHAR C2250
ENCODING 8784
SWIDTH 900 0
DWIDTH 16 0
BBX 16 16 0 -2
BITMAP
0000
0000
1FF0
0010
0010
0010
0010
1FF0
0010
0010
0010
0010
1FF0
0000
0000
0000
ENDCHAR

STARTCHAR C2251
ENCODING 8785
SWIDTH 900 0
DWIDTH 16 0
BBX 16 16 0 -2
BITMAP
0000
0000
0000
0000
0000
0000
0000
0000
0000
0000
0000
0000
0000
0000
0000
0000
ENDCHAR

STARTCHAR C2252
ENCODING 8786
SWIDTH 900 0
DWIDTH 16 0
BBX 16 16 0 -2
BITMAP
0000
0000
0000
0000
0000
0000
0000
0000
0000
0000
0000
0000
0000
0000
0000
0000
ENDCHAR

STARTCHAR C2253
ENCODING 8787
SWIDTH 900 0
DWIDTH 16 0
BBX 16 16 0 -2
BITMAP
0000
0000
0000
0000
0000
0000
0000
0000
0000
0000
0000
0000
0000
0000
0000
0000
ENDCHAR

STARTCHAR C2254
ENCODING 8788
SWIDTH 900 0
DWIDTH 16 0
BBX 16 16 0 -2
BITMAP
0000
0000
0000
0000
0000
0000
0000
0000
0000
0000
0000
0000
0000
0000
0000
0000
ENDCHAR

STARTCHAR C2255
ENCODING 8789
SWIDTH 900 0
DWIDTH 16 0
BBX 16 16 0 -2
BITMAP
0000
0000
0000
0000
0000
0000
0000
0000
0000
0000
0000
0000
0000
0000
0000
0000
ENDCHAR

STARTCHAR C2256
ENCODING 8790
SWIDTH 900 0
DWIDTH 16 0
BBX 16 16 0 -2
BITMAP
0000
0000
0000
0000
0000
0000
0000
0000
0000
0000
0000
0000
0000
0000
0000
0000
ENDCHAR

STARTCHAR C2257
ENCODING 8791
SWIDTH 900 0
DWIDTH 16 0
BBX 16 16 0 -2
BITMAP
0000
0000
0000
0000
0000
0000
0000
0000
0000
0000
0000
0000
0000
0000
0000
0000
ENDCHAR

STARTCHAR C2258
ENCODING 8792
SWIDTH 900 0
DWIDTH 16 0
BBX 16 16 0 -2
BITMAP
0000
0000
0000
0000
0000
0000
0000
0000
0000
0000
0000
0000
0000
0000
0000
0000
ENDCHAR

STARTCHAR C2259
ENCODING 8793
SWIDTH 900 0
DWIDTH 16 0
BBX 16 16 0 -2
BITMAP
0000
0000
0000
0000
0000
0000
0000
0000
0000
0000
0000
0000
0000
0000
0000
0000
ENDCHAR

STARTCHAR C225a
ENCODING 8794
SWIDTH 900 0
DWIDTH 16 0
BBX 16 16 0 -2
BITMAP
0000
0000
0000
0000
0000
0000
0000
0000
0000
0000
0000
0000
0000
0000
0000
0000
ENDCHAR

STARTCHAR C225b
ENCODING 8795
SWIDTH 900 0
DWIDTH 16 0
BBX 16 16 0 -2
BITMAP
0000
0000
0000
0000
0000
0000
0000
0000
0000
0000
0000
0000
0000
0000
0000
0000
ENDCHAR

STARTCHAR C225c
ENCODING 8796
SWIDTH 900 0
DWIDTH 16 0
BBX 16 16 0 -2
BITMAP
0000
0000
0010
0020
0040
0080
0100
0200
0400
0800
1000
2000
7FF8
0000
0000
0000
ENDCHAR

STARTCHAR C225d
ENCODING 8797
SWIDTH 900 0
DWIDTH 16 0
BBX 16 16 0 -2
BITMAP
0000
0000
0100
0100
0100
0100
0100
0100
0100
0100
0100
0100
3FF8
0000
0000
0000
ENDCHAR

STARTCHAR C225e
ENCODING 8798
SWIDTH 900 0
DWIDTH 16 0
BBX 16 16 0 -2
BITMAP
07C0
3838
E00E
0000
0000
0000
0000
0000
0000
0000
0000
0000
0000
0000
0000
0000
ENDCHAR

STARTCHAR C225f
ENCODING 8799
SWIDTH 900 0
DWIDTH 16 0
BBX 16 16 0 -2
BITMAP
0000
00C0
03E0
0430
0010
0010
0390
0E50
0860
1860
1860
1840
09C0
0700
0000
0000
ENDCHAR

STARTCHAR C2260
ENCODING 8800
SWIDTH 900 0
DWIDTH 16 0
BBX 16 16 0 -2
BITMAP
0000
0000
3FF8
3FF8
1810
1810
0C20
0C20
0640
0640
0380
0380
0100
0100
0000
0000
ENDCHAR

STARTCHAR C2261
ENCODING 8801
SWIDTH 900 0
DWIDTH 16 0
BBX 16 16 0 -2
BITMAP
0000
0000
0000
0000
3FF8
0000
0000
3FF8
0000
0000
3FF8
0000
0000
0000
0000
0000
ENDCHAR

STARTCHAR C2262
ENCODING 8802
SWIDTH 900 0
DWIDTH 16 0
BBX 16 16 0 -2
BITMAP
0000
0000
0000
1800
1800
0000
3FF8
0000
0000
3FF8
0000
0030
0030
0000
0000
0000
ENDCHAR

STARTCHAR C2263
ENCODING 8803
SWIDTH 900 0
DWIDTH 16 0
BBX 16 16 0 -2
BITMAP
0000
0088
0110
0220
0440
0880
1100
2200
1100
0880
0440
0220
0110
0088
0000
0000
ENDCHAR

STARTCHAR C2264
ENCODING 8804
SWIDTH 900 0
DWIDTH 16 0
BBX 16 16 0 -2
BITMAP
0000
2200
1100
0880
0440
0220
0110
0088
0110
0220
0440
0880
1100
2200
0000
0000
ENDCHAR

STARTCHAR C2265
ENCODING 8805
SWIDTH 900 0
DWIDTH 16 0
BBX 16 16 0 -2
BITMAP
00FE
0080
0100
0100
0100
0200
0200
0200
0400
2400
6400
A800
3800
3800
1000
1000
ENDCHAR

STARTCHAR C2266
ENCODING 8806
SWIDTH 900 0
DWIDTH 16 0
BBX 16 16 0 -2
BITMAP
0000
0000
0000
0000
3C78
64CC
C186
8102
8102
C306
664C
3C78
0000
0000
0000
0000
ENDCHAR

STARTCHAR C2267
ENCODING 8807
SWIDTH 900 0
DWIDTH 16 0
BBX 16 16 0 -2
BITMAP
0000
0000
0000
0000
3C78
66CC
C384
8100
8100
C384
66CC
3C78
0000
0000
0000
0000
ENDCHAR

STARTCHAR C2268
ENCODING 8808
SWIDTH 900 0
DWIDTH 16 0
BBX 16 16 0 -2
BITMAP
0000
0000
6006
6006
0000
0000
0000
0000
0000
0000
0000
0000
0180
0180
0000
0000
ENDCHAR

STARTCHAR C2269
ENCODING 8809
SWIDTH 900 0
DWIDTH 16 0
BBX 16 16 0 -2
BITMAP
0180
0240
0200
0200
0200
0100
0100
0100
0100
0100
0100
0080
0080
0080
0480
0300
ENDCHAR

STARTCHAR C226a
ENCODING 8810
SWIDTH 900 0
DWIDTH 16 0
BBX 16 16 0 -2
BITMAP
0C30
1248
1040
1040
1040
0820
0820
0820
0820
0820
0820
0410
0410
0410
2490
1860
ENDCHAR

STARTCHAR C226b
ENCODING 8811
SWIDTH 900 0
DWIDTH 16 0
BBX 16 16 0 -2
BITMAP
0000
0000
0000
0000
0000
0000
0000
0000
0000
0000
0000
0000
0000
0000
0000
0000
ENDCHAR

STARTCHAR C226c
ENCODING 8812
SWIDTH 900 0
DWIDTH 16 0
BBX 16 16 0 -2
BITMAP
0000
0000
0000
0000
0000
0000
0000
0000
0000
0000
0000
0000
0000
0000
0000
0000
ENDCHAR

STARTCHAR C226d
ENCODING 8813
SWIDTH 900 0
DWIDTH 16 0
BBX 16 16 0 -2
BITMAP
0000
0000
0000
0000
0000
0000
0000
0000
0000
0000
0000
0000
0000
0000
0000
0000
ENDCHAR

STARTCHAR C226e
ENCODING 8814
SWIDTH 900 0
DWIDTH 16 0
BBX 16 16 0 -2
BITMAP
0000
0000
0000
0000
0000
0000
0000
0000
0000
0000
0000
0000
0000
0000
0000
0000
ENDCHAR

STARTCHAR C226f
ENCODING 8815
SWIDTH 900 0
DWIDTH 16 0
BBX 16 16 0 -2
BITMAP
0000
0000
0000
0000
0000
0000
0000
0000
0000
0000
0000
0000
0000
0000
0000
0000
ENDCHAR

STARTCHAR C2270
ENCODING 8816
SWIDTH 900 0
DWIDTH 16 0
BBX 16 16 0 -2
BITMAP
0000
0000
0000
0000
0000
0000
0000
0000
0000
0000
0000
0000
0000
0000
0000
0000
ENDCHAR

STARTCHAR C2271
ENCODING 8817
SWIDTH 900 0
DWIDTH 16 0
BBX 16 16 0 -2
BITMAP
0000
0000
0000
0000
0000
0000
0000
0000
0000
0000
0000
0000
0000
0000
0000
0000
ENDCHAR

STARTCHAR C2272
ENCODING 8818
SWIDTH 900 0
DWIDTH 16 0
BBX 16 16 0 -2
BITMAP
0380
0440
0440
0380
0100
0380
0440
0440
0820
0820
1FF0
1010
2008
2008
701C
0000
ENDCHAR

STARTCHAR C2273
ENCODING 8819
SWIDTH 900 0
DWIDTH 16 0
BBX 16 16 0 -2
BITMAP
3040
4880
C880
C900
CA00
4A00
3400
0800
0B0C
1492
2CB2
2CB2
4CB2
8492
830C
0000
ENDCHAR

STARTCHAR C2274
ENCODING 8820
SWIDTH 900 0
DWIDTH 16 0
BBX 16 16 0 -2
BITMAP
0040
0440
0440
0478
07F8
3FC0
3C40
0440
0440
0478
07F8
3FC0
3C40
0440
0440
0400
ENDCHAR

STARTCHAR C2275
ENCODING 8821
SWIDTH 900 0
DWIDTH 16 0
BBX 16 16 0 -2
BITMAP
0400
0400
0400
0400
0400
0400
0580
0640
0420
0420
0460
0440
0480
0500
0600
0400
ENDCHAR

STARTCHAR C2276
ENCODING 8822
SWIDTH 900 0
DWIDTH 16 0
BBX 16 16 0 -2
BITMAP
0100
0180
01C0
0160
0130
0110
0108
0108
0110
0120
0120
0100
0300
0F00
1F00
1E00
ENDCHAR

STARTCHAR C2277
ENCODING 8823
SWIDTH 900 0
DWIDTH 16 0
BBX 16 16 0 -2
BITMAP
0380
0380
0100
0D60
0FE0
0D60
0100
0380
0380
0380
0380
0380
0100
0100
0100
0100
ENDCHAR

STARTCHAR C2278
ENCODING 8824
SWIDTH 900 0
DWIDTH 16 0
BBX 16 16 0 -2
BITMAP
0380
0380
0100
0D60
0FE0
0D60
0100
0380
0380
0100
0D60
0FE0
0D60
0100
0380
0380
ENDCHAR

STARTCHAR C2279
ENCODING 8825
SWIDTH 900 0
DWIDTH 16 0
BBX 16 16 0 -2
BITMAP
0FF0
1F30
1F30
1F30
1F30
1F30
1F30
0F30
0330
0330
0330
0330
0330
0330
0330
0330
ENDCHAR

STARTCHAR C227a
ENCODING 8826
SWIDTH 900 0
DWIDTH 16 0
BBX 16 16 0 -2
BITMAP
0000
0000
0000
0000
0000
0000
0000
0000
0000
0000
0000
0000
0000
0000
0000
0000
ENDCHAR

STARTCHAR C227b
ENCODING 8827
SWIDTH 900 0
DWIDTH 16 0
BBX 16 16 0 -2
BITMAP
0000
0000
0000
0000
0000
0000
0000
0000
0000
0000
0000
0000
0000
0000
0000
0000
ENDCHAR

STARTCHAR C227c
ENCODING 8828
SWIDTH 900 0
DWIDTH 16 0
BBX 16 16 0 -2
BITMAP
0000
0000
0000
0000
0000
0000
0000
0000
0000
0000
0000
0000
0000
0000
0000
0000
ENDCHAR

STARTCHAR C227d
ENCODING 8829
SWIDTH 900 0
DWIDTH 16 0
BBX 16 16 0 -2
BITMAP
0000
0000
0000
0000
0000
0000
0000
0000
0000
0000
0000
0000
0000
0000
0000
0000
ENDCHAR

STARTCHAR C227e
ENCODING 8830
SWIDTH 900 0
DWIDTH 16 0
BBX 16 16 0 -2
BITMAP
07C0
1830
2008
4004
4004
8002
8002
8002
8002
8002
4004
4004
2008
1830
07C0
0000
ENDCHAR

STARTCHAR C2321
ENCODING 8993
SWIDTH 900 0
DWIDTH 16 0
BBX 16 16 0 -2
BITMAP
0000
0000
0000
0000
0000
0000
0000
0000
0000
0000
0000
0000
0000
0000
0000
0000
ENDCHAR

STARTCHAR C2322
ENCODING 8994
SWIDTH 900 0
DWIDTH 16 0
BBX 16 16 0 -2
BITMAP
0000
0000
0000
0000
0000
0000
0000
0000
0000
0000
0000
0000
0000
0000
0000
0000
ENDCHAR

STARTCHAR C2323
ENCODING 8995
SWIDTH 900 0
DWIDTH 16 0
BBX 16 16 0 -2
BITMAP
0000
0000
0000
0000
0000
0000
0000
0000
0000
0000
0000
0000
0000
0000
0000
0000
ENDCHAR

STARTCHAR C2324
ENCODING 8996
SWIDTH 900 0
DWIDTH 16 0
BBX 16 16 0 -2
BITMAP
0000
0000
0000
0000
0000
0000
0000
0000
0000
0000
0000
0000
0000
0000
0000
0000
ENDCHAR

STARTCHAR C2325
ENCODING 8997
SWIDTH 900 0
DWIDTH 16 0
BBX 16 16 0 -2
BITMAP
0000
0000
0000
0000
0000
0000
0000
0000
0000
0000
0000
0000
0000
0000
0000
0000
ENDCHAR

STARTCHAR C2326
ENCODING 8998
SWIDTH 900 0
DWIDTH 16 0
BBX 16 16 0 -2
BITMAP
0000
0000
0000
0000
0000
0000
0000
0000
0000
0000
0000
0000
0000
0000
0000
0000
ENDCHAR

STARTCHAR C2327
ENCODING 8999
SWIDTH 900 0
DWIDTH 16 0
BBX 16 16 0 -2
BITMAP
0000
0000
0000
0000
0000
0000
0000
0000
0000
0000
0000
0000
0000
0000
0000
0000
ENDCHAR

STARTCHAR C2328
ENCODING 9000
SWIDTH 900 0
DWIDTH 16 0
BBX 16 16 0 -2
BITMAP
0000
0000
0000
0000
0000
0000
0000
0000
0000
0000
0000
0000
0000
0000
0000
0000
ENDCHAR

STARTCHAR C2329
ENCODING 9001
SWIDTH 900 0
DWIDTH 16 0
BBX 16 16 0 -2
BITMAP
0000
0000
0000
0000
0000
0000
0000
0000
0000
0000
0000
0000
0000
0000
0000
0000
ENDCHAR

STARTCHAR C232a
ENCODING 9002
SWIDTH 900 0
DWIDTH 16 0
BBX 16 16 0 -2
BITMAP
0000
0000
0000
0000
0000
0000
0000
0000
0000
0000
0000
0000
0000
0000
0000
0000
ENDCHAR

STARTCHAR C232b
ENCODING 9003
SWIDTH 900 0
DWIDTH 16 0
BBX 16 16 0 -2
BITMAP
0000
0000
0000
0000
0000
0000
0000
0000
0000
0000
0000
0000
0000
0000
0000
0000
ENDCHAR

STARTCHAR C232c
ENCODING 9004
SWIDTH 900 0
DWIDTH 16 0
BBX 16 16 0 -2
BITMAP
0000
0000
0000
0000
0000
0000
0000
0000
0000
0000
0000
0000
0000
0000
0000
0000
ENDCHAR

STARTCHAR C232d
ENCODING 9005
SWIDTH 900 0
DWIDTH 16 0
BBX 16 16 0 -2
BITMAP
0000
0000
0000
0000
0000
0000
0000
0000
0000
0000
0000
0000
0000
0000
0000
0000
ENDCHAR

STARTCHAR C232e
ENCODING 9006
SWIDTH 900 0
DWIDTH 16 0
BBX 16 16 0 -2
BITMAP
0000
0000
0000
0000
0000
0000
0000
0000
0000
0000
0000
0000
0000
0000
0000
0000
ENDCHAR

STARTCHAR C232f
ENCODING 9007
SWIDTH 900 0
DWIDTH 16 0
BBX 16 16 0 -2
BITMAP
0000
0000
0000
0000
0000
0000
0000
0000
0000
0000
0000
0000
0000
0000
0000
0000
ENDCHAR

STARTCHAR C2330
ENCODING 9008
SWIDTH 900 0
DWIDTH 16 0
BBX 16 16 0 -2
BITMAP
0000
0380
0C60
1010
1010
1010
1010
1010
1010
1010
1010
1010
1010
0C60
0380
0000
ENDCHAR

STARTCHAR C2331
ENCODING 9009
SWIDTH 900 0
DWIDTH 16 0
BBX 16 16 0 -2
BITMAP
0000
0100
0300
0100
0100
0100
0100
0100
0100
0100
0100
0100
0100
0100
0380
0000
ENDCHAR

STARTCHAR C2332
ENCODING 9010
SWIDTH 900 0
DWIDTH 16 0
BBX 16 16 0 -2
BITMAP
0000
0380
0C60
1010
1010
1010
0020
0020
0040
0080
0100
0200
0400
0800
1FF0
0000
ENDCHAR

STARTCHAR C2333
ENCODING 9011
SWIDTH 900 0
DWIDTH 16 0
BBX 16 16 0 -2
BITMAP
0000
0380
0C60
1010
1010
0010
0060
0180
0060
0010
0010
1010
1010
0C60
0380
0000
ENDCHAR

STARTCHAR C2334
ENCODING 9012
SWIDTH 900 0
DWIDTH 16 0
BBX 16 16 0 -2
BITMAP
0000
00C0
0140
0140
0240
0240
0440
0440
0840
0840
1040
1FF0
0040
0040
00E0
0000
ENDCHAR

STARTCHAR C2335
ENCODING 9013
SWIDTH 900 0
DWIDTH 16 0
BBX 16 16 0 -2
BITMAP
0000
1FF0
1000
1000
1000
1180
1660
1810
1010
0010
0010
1010
1010
0C60
0380
0000
ENDCHAR

STARTCHAR C2336
ENCODING 9014
SWIDTH 900 0
DWIDTH 16 0
BBX 16 16 0 -2
BITMAP
0000
0380
0C60
1010
1010
1000
1180
1660
1810
1010
1010
1010
1010
0C60
0380
0000
ENDCHAR

STARTCHAR C2337
ENCODING 9015
SWIDTH 900 0
DWIDTH 16 0
BBX 16 16 0 -2
BITMAP
0000
1FF0
1010
1010
1020
0040
0040
0080
0080
0100
0100
0100
0200
0200
0200
0000
ENDCHAR

STARTCHAR C2338
ENCODING 9016
SWIDTH 900 0
DWIDTH 16 0
BBX 16 16 0 -2
BITMAP
0000
0380
0C60
1010
1010
1010
0C60
0380
0C60
1010
1010
1010
1010
0C60
0380
0000
ENDCHAR

STARTCHAR C2339
ENCODING 9017
SWIDTH 900 0
DWIDTH 16 0
BBX 16 16 0 -2
BITMAP
0000
0380
0C60
1010
1010
1010
1010
1030
0CD0
0310
0010
1010
1010
0C60
0380
0000
ENDCHAR

STARTCHAR C233a
ENCODING 9018
SWIDTH 900 0
DWIDTH 16 0
BBX 16 16 0 -2
BITMAP
0000
0000
0000
0000
0000
0000
0000
0000
0000
0000
0000
0000
0000
0000
0000
0000
ENDCHAR

STARTCHAR C233b
ENCODING 9019
SWIDTH 900 0
DWIDTH 16 0
BBX 16 16 0 -2
BITMAP
0000
0000
0000
0000
0000
0000
0000
0000
0000
0000
0000
0000
0000
0000
0000
0000
ENDCHAR

STARTCHAR C233c
ENCODING 9020
SWIDTH 900 0
DWIDTH 16 0
BBX 16 16 0 -2
BITMAP
0000
0000
0000
0000
0000
0000
0000
0000
0000
0000
0000
0000
0000
0000
0000
0000
ENDCHAR

STARTCHAR C233d
ENCODING 9021
SWIDTH 900 0
DWIDTH 16 0
BBX 16 16 0 -2
BITMAP
0000
0000
0000
0000
0000
0000
0000
0000
0000
0000
0000
0000
0000
0000
0000
0000
ENDCHAR

STARTCHAR C233e
ENCODING 9022
SWIDTH 900 0
DWIDTH 16 0
BBX 16 16 0 -2
BITMAP
0000
0000
0000
0000
0000
0000
0000
0000
0000
0000
0000
0000
0000
0000
0000
0000
ENDCHAR

STARTCHAR C233f
ENCODING 9023
SWIDTH 900 0
DWIDTH 16 0
BBX 16 16 0 -2
BITMAP
0000
0000
0000
0000
0000
0000
0000
0000
0000
0000
0000
0000
0000
0000
0000
0000
ENDCHAR

STARTCHAR C2340
ENCODING 9024
SWIDTH 900 0
DWIDTH 16 0
BBX 16 16 0 -2
BITMAP
0000
0000
0000
0000
0000
0000
0000
0000
0000
0000
0000
0000
0000
0000
0000
0000
ENDCHAR

STARTCHAR C2341
ENCODING 9025
SWIDTH 900 0
DWIDTH 16 0
BBX 16 16 0 -2
BITMAP
0000
0100
0100
0280
0280
0280
0440
0440
0820
0FE0
0820
1010
1010
3838
0000
0000
ENDCHAR

STARTCHAR C2342
ENCODING 9026
SWIDTH 900 0
DWIDTH 16 0
BBX 16 16 0 -2
BITMAP
0000
3FC0
1020
1010
1010
1010
1020
1FE0
1010
1008
1008
1008
1010
3FE0
0000
0000
ENDCHAR

STARTCHAR C2343
ENCODING 9027
SWIDTH 900 0
DWIDTH 16 0
BBX 16 16 0 -2
BITMAP
0000
03C0
0C30
1008
1000
1000
1000
1000
1000
1000
1000
1008
0C30
03C0
0000
0000
ENDCHAR

STARTCHAR C2344
ENCODING 9028
SWIDTH 900 0
DWIDTH 16 0
BBX 16 16 0 -2
BITMAP
0000
3FC0
1030
1008
1008
1008
1008
1008
1008
1008
1008
1008
1030
3FC0
0000
0000
ENDCHAR

STARTCHAR C2345
ENCODING 9029
SWIDTH 900 0
DWIDTH 16 0
BBX 16 16 0 -2
BITMAP
0000
3FF8
1008
1000
1000
1000
1000
1FE0
1000
1000
1000
1000
1008
3FF8
0000
0000
ENDCHAR

STARTCHAR C2346
ENCODING 9030
SWIDTH 900 0
DWIDTH 16 0
BBX 16 16 0 -2
BITMAP
0000
3FF8
1008
1000
1000
1000
1000
1FE0
1000
1000
1000
1000
1000
3800
0000
0000
ENDCHAR

STARTCHAR C2347
ENCODING 9031
SWIDTH 900 0
DWIDTH 16 0
BBX 16 16 0 -2
BITMAP
0000
0780
1860
2010
2000
2000
2000
2000
2038
2010
2010
2010
1860
0780
0000
0000
ENDCHAR

STARTCHAR C2348
ENCODING 9032
SWIDTH 900 0
DWIDTH 16 0
BBX 16 16 0 -2
BITMAP
0000
3838
1010
1010
1010
1010
1010
1FF0
1010
1010
1010
1010
1010
3838
0000
0000
ENDCHAR

STARTCHAR C2349
ENCODING 9033
SWIDTH 900 0
DWIDTH 16 0
BBX 16 16 0 -2
BITMAP
0000
0380
0100
0100
0100
0100
0100
0100
0100
0100
0100
0100
0100
0380
0000
0000
ENDCHAR

STARTCHAR C234a
ENCODING 9034
SWIDTH 900 0
DWIDTH 16 0
BBX 16 16 0 -2
BITMAP
0000
00E0
0040
0040
0040
0040
0040
0040
0040
0040
0040
0840
0840
0780
0000
0000
ENDCHAR

STARTCHAR C234b
ENCODING 9035
SWIDTH 900 0
DWIDTH 16 0
BBX 16 16 0 -2
BITMAP
0000
3870
1020
1040
1080
1100
1200
1600
1900
1080
1040
1020
1010
3838
0000
0000
ENDCHAR

STARTCHAR C234c
ENCODING 9036
SWIDTH 900 0
DWIDTH 16 0
BBX 16 16 0 -2
BITMAP
0000
3800
1000
1000
1000
1000
1000
1000
1000
1000
1000
1000
1008
3FF8
0000
0000
ENDCHAR

STARTCHAR C234d
ENCODING 9037
SWIDTH 900 0
DWIDTH 16 0
BBX 16 16 0 -2
BITMAP
0000
600C
3018
3018
2828
2828
2448
2448
2288
2288
2108
2108
2008
701C
0000
0000
ENDCHAR

STARTCHAR C234e
ENCODING 9038
SWIDTH 900 0
DWIDTH 16 0
BBX 16 16 0 -2
BITMAP
0000
3838
1810
1410
1410
1210
1210
1110
1110
1090
1090
1050
1050
3830
0000
0000
ENDCHAR

STARTCHAR C234f
ENCODING 9039
SWIDTH 900 0
DWIDTH 16 0
BBX 16 16 0 -2
BITMAP
0000
07C0
1830
2008
2008
2008
2008
2008
2008
2008
2008
2008
1830
07C0
0000
0000
ENDCHAR

STARTCHAR C2350
ENCODING 9040
SWIDTH 900 0
DWIDTH 16 0
BBX 16 16 0 -2
BITMAP
0000
1FE0
0810
0808
0808
0808
0810
0FE0
0800
0800
0800
0800
0800
1C00
0000
0000
ENDCHAR

STARTCHAR C2351
ENCODING 9041
SWIDTH 900 0
DWIDTH 16 0
BBX 16 16 0 -2
BITMAP
0000
07C0
1830
2008
2008
2008
2008
2008
2008
2008
3E08
2188
1870
07C0
003C
0000
ENDCHAR

STARTCHAR C2352
ENCODING 9042
SWIDTH 900 0
DWIDTH 16 0
BBX 16 16 0 -2
BITMAP
0000
3FC0
1020
1010
1010
1010
1020
1FC0
1080
1040
1040
1020
1020
3818
0000
0000
ENDCHAR

STARTCHAR C2353
ENCODING 9043
SWIDTH 900 0
DWIDTH 16 0
BBX 16 16 0 -2
BITMAP
0000
07C0
1828
2018
2008
1800
0600
01C0
0030
0008
2008
3008
2830
07C0
0000
0000
ENDCHAR

STARTCHAR C2354
ENCODING 9044
SWIDTH 900 0
DWIDTH 16 0
BBX 16 16 0 -2
BITMAP
0000
3FF8
2108
0100
0100
0100
0100
0100
0100
0100
0100
0100
0100
0380
0000
0000
ENDCHAR

STARTCHAR C2355
ENCODING 9045
SWIDTH 900 0
DWIDTH 16 0
BBX 16 16 0 -2
BITMAP
0000
3838
1010
1010
1010
1010
1010
1010
1010
1010
1010
1010
0820
07C0
0000
0000
ENDCHAR

STARTCHAR C2356
ENCODING 9046
SWIDTH 900 0
DWIDTH 16 0
BBX 16 16 0 -2
BITMAP
0000
3838
1010
1010
0820
0820
0820
0440
0440
0280
0280
0280
0100
0100
0000
0000
ENDCHAR

STARTCHAR C2357
ENCODING 9047
SWIDTH 900 0
DWIDTH 16 0
BBX 16 16 0 -2
BITMAP
0000
E38E
4104
4104
4284
4284
4444
2448
2448
2828
2828
1010
1010
1010
0000
0000
ENDCHAR

STARTCHAR C2358
ENCODING 9048
SWIDTH 900 0
DWIDTH 16 0
BBX 16 16 0 -2
BITMAP
0000
701C
2008
1010
0820
0440
0280
0100
0280
0440
0820
1010
2008
701C
0000
0000
ENDCHAR

STARTCHAR C2359
ENCODING 9049
SWIDTH 900 0
DWIDTH 16 0
BBX 16 16 0 -2
BITMAP
0000
3838
1010
1010
0820
0820
0440
0440
0280
0100
0100
0100
0100
0380
0000
0000
ENDCHAR

STARTCHAR C235a
ENCODING 9050
SWIDTH 900 0
DWIDTH 16 0
BBX 16 16 0 -2
BITMAP
0000
3FF8
2008
0010
0020
0040
0080
0100
0200
0400
0800
1000
2008
3FF8
0000
0000
ENDCHAR

STARTCHAR C235b
ENCODING 9051
SWIDTH 900 0
DWIDTH 16 0
BBX 16 16 0 -2
BITMAP
0000
0000
0000
0000
0000
0000
0000
0000
0000
0000
0000
0000
0000
0000
0000
0000
ENDCHAR

STARTCHAR C235c
ENCODING 9052
SWIDTH 900 0
DWIDTH 16 0
BBX 16 16 0 -2
BITMAP
0000
0000
0000
0000
0000
0000
0000
0000
0000
0000
0000
0000
0000
0000
0000
0000
ENDCHAR

STARTCHAR C235d
ENCODING 9053
SWIDTH 900 0
DWIDTH 16 0
BBX 16 16 0 -2
BITMAP
0000
0000
0000
0000
0000
0000
0000
0000
0000
0000
0000
0000
0000
0000
0000
0000
ENDCHAR

STARTCHAR C235e
ENCODING 9054
SWIDTH 900 0
DWIDTH 16 0
BBX 16 16 0 -2
BITMAP
0000
0000
0000
0000
0000
0000
0000
0000
0000
0000
0000
0000
0000
0000
0000
0000
ENDCHAR

STARTCHAR C235f
ENCODING 9055
SWIDTH 900 0
DWIDTH 16 0
BBX 16 16 0 -2
BITMAP
0000
0000
0000
0000
0000
0000
0000
0000
0000
0000
0000
0000
0000
0000
0000
0000
ENDCHAR

STARTCHAR C2360
ENCODING 9056
SWIDTH 900 0
DWIDTH 16 0
BBX 16 16 0 -2
BITMAP
0000
0000
0000
0000
0000
0000
0000
0000
0000
0000
0000
0000
0000
0000
0000
0000
ENDCHAR

STARTCHAR C2361
ENCODING 9057
SWIDTH 900 0
DWIDTH 16 0
BBX 16 16 0 -2
BITMAP
0000
0000
0000
0000
0000
07C0
0820
0020
01E0
0620
0820
0820
0860
0790
0000
0000
ENDCHAR

STARTCHAR C2362
ENCODING 9058
SWIDTH 900 0
DWIDTH 16 0
BBX 16 16 0 -2
BITMAP
0000
0C00
0400
0400
0400
05C0
0620
0410
0410
0410
0410
0410
0620
05C0
0000
0000
ENDCHAR

STARTCHAR C2363
ENCODING 9059
SWIDTH 900 0
DWIDTH 16 0
BBX 16 16 0 -2
BITMAP
0000
0000
0000
0000
0000
03C0
0420
0800
0800
0800
0800
0800
0420
03C0
0000
0000
ENDCHAR

STARTCHAR C2364
ENCODING 9060
SWIDTH 900 0
DWIDTH 16 0
BBX 16 16 0 -2
BITMAP
0000
0060
0020
0020
0020
03A0
0460
0820
0820
0820
0820
0820
0460
03B0
0000
0000
ENDCHAR

STARTCHAR C2365
ENCODING 9061
SWIDTH 900 0
DWIDTH 16 0
BBX 16 16 0 -2
BITMAP
0000
0000
0000
0000
0000
0380
0440
0820
0820
0FE0
0800
0800
0420
03C0
0000
0000
ENDCHAR

STARTCHAR C2366
ENCODING 9062
SWIDTH 900 0
DWIDTH 16 0
BBX 16 16 0 -2
BITMAP
0000
01C0
0220
0200
0200
0200
0F80
0200
0200
0200
0200
0200
0200
0700
0000
0000
ENDCHAR

STARTCHAR C2367
ENCODING 9063
SWIDTH 900 0
DWIDTH 16 0
BBX 16 16 0 -2
BITMAP
0000
0000
0000
0000
0000
03B0
0440
0440
0440
0380
0200
07C0
0820
0820
0820
07C0
ENDCHAR

STARTCHAR C2368
ENCODING 9064
SWIDTH 900 0
DWIDTH 16 0
BBX 16 16 0 -2
BITMAP
0000
1800
0800
0800
0800
0B80
0C40
0820
0820
0820
0820
0820
0820
1C70
0000
0000
ENDCHAR

STARTCHAR C2369
ENCODING 9065
SWIDTH 900 0
DWIDTH 16 0
BBX 16 16 0 -2
BITMAP
0000
0100
0100
0000
0000
0300
0100
0100
0100
0100
0100
0100
0100
0380
0000
0000
ENDCHAR

STARTCHAR C236a
ENCODING 9066
SWIDTH 900 0
DWIDTH 16 0
BBX 16 16 0 -2
BITMAP
0000
0080
0080
0000
0000
0180
0080
0080
0080
0080
0080
0080
0080
0880
0700
0000
ENDCHAR

STARTCHAR C236b
ENCODING 9067
SWIDTH 900 0
DWIDTH 16 0
BBX 16 16 0 -2
BITMAP
0000
1800
0800
0800
0800
08E0
0840
0880
0900
0B00
0C80
0840
0820
1C70
0000
0000
ENDCHAR

STARTCHAR C236c
ENCODING 9068
SWIDTH 900 0
DWIDTH 16 0
BBX 16 16 0 -2
BITMAP
0000
0000
0300
0100
0100
0100
0100
0100
0100
0100
0100
0100
0100
0380
0000
0000
ENDCHAR

STARTCHAR C236d
ENCODING 9069
SWIDTH 900 0
DWIDTH 16 0
BBX 16 16 0 -2
BITMAP
0000
0000
0000
0000
0000
3660
1990
1110
1110
1110
1110
1110
1110
3938
0000
0000
ENDCHAR

STARTCHAR C236e
ENCODING 9070
SWIDTH 900 0
DWIDTH 16 0
BBX 16 16 0 -2
BITMAP
0000
0000
0000
0000
0000
0DC0
0620
0420
0420
0420
0420
0420
0420
0E70
0000
0000
ENDCHAR

STARTCHAR C236f
ENCODING 9071
SWIDTH 900 0
DWIDTH 16 0
BBX 16 16 0 -2
BITMAP
0000
0000
0000
0000
0000
0380
0440
0820
0820
0820
0820
0820
0440
0380
0000
0000
ENDCHAR

STARTCHAR C2370
ENCODING 9072
SWIDTH 900 0
DWIDTH 16 0
BBX 16 16 0 -2
BITMAP
0000
0000
0000
0000
0000
1B80
0C40
0820
0820
0820
0820
0820
0C40
0B80
0800
1C00
ENDCHAR

STARTCHAR C2371
ENCODING 9073
SWIDTH 900 0
DWIDTH 16 0
BBX 16 16 0 -2
BITMAP
0000
0000
0000
0000
0000
03B0
0460
0820
0820
0820
0820
0820
0460
03A0
0020
0070
ENDCHAR

STARTCHAR C2372
ENCODING 9074
SWIDTH 900 0
DWIDTH 16 0
BBX 16 16 0 -2
BITMAP
0000
0000
0000
0000
0000
0CC0
0520
0600
0400
0400
0400
0400
0400
0E00
0000
0000
ENDCHAR

STARTCHAR C2373
ENCODING 9075
SWIDTH 900 0
DWIDTH 16 0
BBX 16 16 0 -2
BITMAP
0000
0000
0000
0000
0000
07A0
0860
0820
0600
0180
0040
0820
0C20
0BC0
0000
0000
ENDCHAR

STARTCHAR C2374
ENCODING 9076
SWIDTH 900 0
DWIDTH 16 0
BBX 16 16 0 -2
BITMAP
0000
0000
0000
0200
0200
0200
0F80
0200
0200
0200
0200
0200
0220
01C0
0000
0000
ENDCHAR

STARTCHAR C2375
ENCODING 9077
SWIDTH 900 0
DWIDTH 16 0
BBX 16 16 0 -2
BITMAP
0000
0000
0000
0000
0000
0C70
0420
0420
0420
0420
0420
0420
0460
03B0
0000
0000
ENDCHAR

STARTCHAR C2376
ENCODING 9078
SWIDTH 900 0
DWIDTH 16 0
BBX 16 16 0 -2
BITMAP
0000
0000
0000
0000
0000
1C70
0820
0820
0440
0440
0280
0280
0100
0100
0000
0000
ENDCHAR

STARTCHAR C2377
ENCODING 9079
SWIDTH 900 0
DWIDTH 16 0
BBX 16 16 0 -2
BITMAP
0000
0000
0000
0000
0000
3938
1110
1110
1110
1290
0AA0
0AA0
0440
0440
0000
0000
ENDCHAR

STARTCHAR C2378
ENCODING 9080
SWIDTH 900 0
DWIDTH 16 0
BBX 16 16 0 -2
BITMAP
0000
0000
0000
0000
0000
1C70
0820
0440
0280
0100
0280
0440
0820
1C70
0000
0000
ENDCHAR

STARTCHAR C2379
ENCODING 9081
SWIDTH 900 0
DWIDTH 16 0
BBX 16 16 0 -2
BITMAP
0000
0000
0000
0000
0000
1C70
0820
0820
0440
0440
0280
0280
0100
0100
1200
0C00
ENDCHAR

STARTCHAR C237a
ENCODING 9082
SWIDTH 900 0
DWIDTH 16 0
BBX 16 16 0 -2
BITMAP
0000
0000
0000
0000
0000
0FE0
0820
0040
0080
0100
0200
0400
0820
0FE0
0000
0000
ENDCHAR

STARTCHAR C237b
ENCODING 9083
SWIDTH 900 0
DWIDTH 16 0
BBX 16 16 0 -2
BITMAP
0000
0000
0000
0000
0000
0000
0000
0000
0000
0000
0000
0000
0000
0000
0000
0000
ENDCHAR

STARTCHAR C237c
ENCODING 9084
SWIDTH 900 0
DWIDTH 16 0
BBX 16 16 0 -2
BITMAP
0000
0000
0000
0000
0000
0000
0000
0000
0000
0000
0000
0000
0000
0000
0000
0000
ENDCHAR

STARTCHAR C237d
ENCODING 9085
SWIDTH 900 0
DWIDTH 16 0
BBX 16 16 0 -2
BITMAP
0000
0000
0000
0000
0000
0000
0000
0000
0000
0000
0000
0000
0000
0000
0000
0000
ENDCHAR

STARTCHAR C237e
ENCODING 9086
SWIDTH 900 0
DWIDTH 16 0
BBX 16 16 0 -2
BITMAP
0000
0000
0000
0000
0000
0000
0000
0000
0000
0000
0000
0000
0000
0000
0000
0000
ENDCHAR

STARTCHAR C2421
ENCODING 9249
SWIDTH 900 0
DWIDTH 16 0
BBX 16 16 0 -2
BITMAP
0000
0000
0000
0000
0200
0200
1FC0
0200
0280
0FC0
14A0
2510
2610
1A20
00C0
0000
ENDCHAR

STARTCHAR C2422
ENCODING 9250
SWIDTH 900 0
DWIDTH 16 0
BBX 16 16 0 -2
BITMAP
0000
0200
0200
0200
3FF8
0200
0240
0FF0
1248
2244
4284
4304
4504
3818
0060
0000
ENDCHAR

STARTCHAR C2423
ENCODING 9251
SWIDTH 900 0
DWIDTH 16 0
BBX 16 16 0 -2
BITMAP
0000
0000
0000
0000
0000
0000
1000
1040
1020
1020
1010
1210
1200
0C00
0000
0000
ENDCHAR

STARTCHAR C2424
ENCODING 9252
SWIDTH 900 0
DWIDTH 16 0
BBX 16 16 0 -2
BITMAP
0000
0000
0000
2000
2010
2008
2008
2004
2004
2104
2104
1204
1200
0C00
0000
0000
ENDCHAR

STARTCHAR C2425
ENCODING 9253
SWIDTH 900 0
DWIDTH 16 0
BBX 16 16 0 -2
BITMAP
0000
0000
0000
0000
0600
0180
0000
0380
0C40
0020
0020
0020
0040
0080
0300
0000
ENDCHAR

STARTCHAR C2426
ENCODING 9254
SWIDTH 900 0
DWIDTH 16 0
BBX 16 16 0 -2
BITMAP
0000
0600
01C0
0000
0000
03E0
1C10
0008
0008
0008
0010
0010
0020
00C0
0300
0000
ENDCHAR

STARTCHAR C2427
ENCODING 9255
SWIDTH 900 0
DWIDTH 16 0
BBX 16 16 0 -2
BITMAP
0000
0000
0000
0000
0600
0180
0000
0FC0
0080
0100
0200
0500
0880
1080
0070
0000
ENDCHAR

STARTCHAR C2428
ENCODING 9256
SWIDTH 900 0
DWIDTH 16 0
BBX 16 16 0 -2
BITMAP
0000
0600
01C0
0000
1FF0
0020
0040
0080
0100
0280
0480
0880
1080
2080
007C
0000
ENDCHAR

STARTCHAR C2429
ENCODING 9257
SWIDTH 900 0
DWIDTH 16 0
BBX 16 16 0 -2
BITMAP
0000
0000
0000
0000
0000
0440
0420
1F10
0400
07C0
0C20
1410
2410
2420
18C0
0000
ENDCHAR

STARTCHAR C242a
ENCODING 9258
SWIDTH 900 0
DWIDTH 16 0
BBX 16 16 0 -2
BITMAP
0000
0400
0410
0408
0784
3C02
0400
05F0
0E08
1404
2404
4404
4404
2408
1870
0000
ENDCHAR

STARTCHAR C242b
ENCODING 9259
SWIDTH 900 0
DWIDTH 16 0
BBX 16 16 0 -2
BITMAP
0000
0400
0400
0800
0B10
7C90
0848
1048
1044
2044
2040
4080
4880
8700
0000
0000
ENDCHAR

STARTCHAR C242c
ENCODING 9260
SWIDTH 900 0
DWIDTH 16 0
BBX 16 16 0 -2
BITMAP
0000
0004
0202
0208
0404
0590
7E48
0428
0824
0824
1024
1020
2040
2440
4380
0000
ENDCHAR

STARTCHAR C242d
ENCODING 9261
SWIDTH 900 0
DWIDTH 16 0
BBX 16 16 0 -2
BITMAP
0000
0400
0200
03E0
3E00
0118
01E0
3E80
0040
0020
1FE0
2010
2000
1000
0FC0
0000
ENDCHAR

STARTCHAR C242e
ENCODING 9262
SWIDTH 900 0
DWIDTH 16 0
BBX 16 16 0 -2
BITMAP
0008
0804
0410
0788
7A00
0230
01C0
7F00
0080
0040
3FC0
4020
4000
2000
1F80
0000
ENDCHAR

STARTCHAR C242f
ENCODING 9263
SWIDTH 900 0
DWIDTH 16 0
BBX 16 16 0 -2
BITMAP
0000
0020
0040
0080
0100
0600
0800
1000
0800
0600
0100
0080
0040
0020
0010
0000
ENDCHAR

STARTCHAR C2430
ENCODING 9264
SWIDTH 900 0
DWIDTH 16 0
BBX 16 16 0 -2
BITMAP
0000
0040
0080
0110
0248
0C20
1000
2000
1000
0C00
0200
0100
0080
0040
0020
0000
ENDCHAR

STARTCHAR C2431
ENCODING 9265
SWIDTH 900 0
DWIDTH 16 0
BBX 16 16 0 -2
BITMAP
0000
0020
4020
4020
4020
47FC
4020
4020
4020
4020
4020
2040
2040
0080
0300
0000
ENDCHAR

STARTCHAR C2432
ENCODING 9266
SWIDTH 900 0
DWIDTH 16 0
BBX 16 16 0 -2
BITMAP
0004
0052
4048
4040
4040
47FC
4020
4020
4020
4020
4020
2040
2040
0080
0300
0000
ENDCHAR

STARTCHAR C2433
ENCODING 9267
SWIDTH 900 0
DWIDTH 16 0
BBX 16 16 0 -2
BITMAP
0000
0000
0C00
03F0
0000
0000
0000
0000
0800
1000
2000
2000
180C
07F0
0000
0000
ENDCHAR

STARTCHAR C2434
ENCODING 9268
SWIDTH 900 0
DWIDTH 16 0
BBX 16 16 0 -2
BITMAP
0004
0012
3008
0FC0
0000
0000
0000
1000
2000
4000
4000
4000
3030
0FC0
0000
0000
ENDCHAR

STARTCHAR C2435
ENCODING 9269
SWIDTH 900 0
DWIDTH 16 0
BBX 16 16 0 -2
BITMAP
0000
0100
0100
008C
00F0
3F80
0040
0040
07A0
0830
1010
1000
1000
0C00
03E0
0000
ENDCHAR

STARTCHAR C2436
ENCODING 9270
SWIDTH 900 0
DWIDTH 16 0
BBX 16 16 0 -2
BITMAP
0024
0212
0200
0118
01E0
7F00
0080
0040
0E40
11E0
2020
2000
2000
1800
07C0
0000
ENDCHAR

STARTCHAR C2437
ENCODING 9271
SWIDTH 900 0
DWIDTH 16 0
BBX 16 16 0 -2
BITMAP
0000
1000
1000
1000
1000
1000
1000
1000
1008
1008
1010
1010
0820
07C0
0000
0000
ENDCHAR

STARTCHAR C2438
ENCODING 9272
SWIDTH 900 0
DWIDTH 16 0
BBX 16 16 0 -2
BITMAP
0000
1020
1010
1080
1040
1000
1000
1000
1000
1008
1008
1010
0820
07C0
0000
0000
ENDCHAR

STARTCHAR C2439
ENCODING 9273
SWIDTH 900 0
DWIDTH 16 0
BBX 16 16 0 -2
BITMAP
0000
0040
0040
0040
7FFE
0040
0040
07C0
0840
08C0
0740
0040
0080
0100
0E00
0000
ENDCHAR

STARTCHAR C243a
ENCODING 9274
SWIDTH 900 0
DWIDTH 16 0
BBX 16 16 0 -2
BITMAP
0024
0092
0080
0080
FFFC
0080
0080
0F80
1080
1180
0E80
0080
0100
0200
0C00
0000
ENDCHAR

STARTCHAR C243b
ENCODING 9275
SWIDTH 900 0
DWIDTH 16 0
BBX 16 16 0 -2
BITMAP
0000
0020
0820
0820
083C
0FE0
7820
0820
0820
08A0
0860
0800
0400
03F8
0000
0000
ENDCHAR

STARTCHAR C243c
ENCODING 9276
SWIDTH 900 0
DWIDTH 16 0
BBX 16 16 0 -2
BITMAP
0004
0052
1048
1040
1078
1FC0
F040
1040
1040
1140
10C0
1000
0800
07F0
0000
0000
ENDCHAR

STARTCHAR C243d
ENCODING 9277
SWIDTH 900 0
DWIDTH 16 0
BBX 16 16 0 -2
BITMAP
0000
03C0
1C40
0080
0300
0C00
1038
3FC0
4200
0400
0400
0400
0400
0300
00E0
0000
ENDCHAR

STARTCHAR C243e
ENCODING 9278
SWIDTH 900 0
DWIDTH 16 0
BBX 16 16 0 -2
BITMAP
0000
03C4
1C52
0088
0300
0C00
1038
3FC0
4200
0400
0400
0400
0400
0300
00E0
0000
ENDCHAR

STARTCHAR C243f
ENCODING 9279
SWIDTH 900 0
DWIDTH 16 0
BBX 16 16 0 -2
BITMAP
0000
0800
0800
0800
0F80
7800
0838
10C0
1000
1000
2000
2000
4200
4100
00FC
0000
ENDCHAR

STARTCHAR C2440
ENCODING 9280
SWIDTH 900 0
DWIDTH 16 0
BBX 16 16 0 -2
BITMAP
0008
0824
0810
0800
0F80
7800
0838
10C0
1000
1000
2000
2000
4200
4100
00FC
0000
ENDCHAR

STARTCHAR C2441
ENCODING 9281
SWIDTH 900 0
DWIDTH 16 0
BBX 16 16 0 -2
BITMAP
0000
0400
0400
0460
7F80
0800
0800
11E0
1610
1808
1008
0008
0010
0020
03C0
0000
ENDCHAR

STARTCHAR C2442
ENCODING 9282
SWIDTH 900 0
DWIDTH 16 0
BBX 16 16 0 -2
BITMAP
0000
0400
0404
04D2
7F08
0800
0800
11E0
1610
1808
1008
0008
0010
0020
03C0
0000
ENDCHAR

STARTCHAR C2443
ENCODING 9283
SWIDTH 900 0
DWIDTH 16 0
BBX 16 16 0 -2
BITMAP
0000
0000
0000
0000
0000
0000
01C0
0620
3810
0010
0010
0020
0040
0380
0000
0000
ENDCHAR

STARTCHAR C2444
ENCODING 9284
SWIDTH 900 0
DWIDTH 16 0
BBX 16 16 0 -2
BITMAP
0000
0000
0000
01E0
0E10
7008
0004
0004
0004
0008
0008
0010
0060
0780
0000
0000
ENDCHAR

STARTCHAR C2445
ENCODING 9285
SWIDTH 900 0
DWIDTH 16 0
BBX 16 16 0 -2
BITMAP
0004
0012
0008
0000
07E0
7810
0008
0008
0008
0008
0008
0010
0060
0780
0000
0000
ENDCHAR

STARTCHAR C2446
ENCODING 9286
SWIDTH 900 0
DWIDTH 16 0
BBX 16 16 0 -2
BITMAP
0000
0000
0078
7FC0
0080
0100
0200
0400
0400
0400
0400
0400
0300
00F0
0000
0000
ENDCHAR

STARTCHAR C2447
ENCODING 9287
SWIDTH 900 0
DWIDTH 16 0
BBX 16 16 0 -2
BITMAP
0000
0000
0078
7FC0
0088
0124
0210
0400
0400
0400
0400
0400
0300
00F0
0000
0000
ENDCHAR

STARTCHAR C2448
ENCODING 9288
SWIDTH 900 0
DWIDTH 16 0
BBX 16 16 0 -2
BITMAP
0000
0000
0400
0400
0400
0400
0270
0380
0C00
1000
2000
2000
2000
1FF0
0000
0000
ENDCHAR

STARTCHAR C2449
ENCODING 9289
SWIDTH 900 0
DWIDTH 16 0
BBX 16 16 0 -2
BITMAP
0000
0008
0424
0410
0400
0400
0270
0380
0C00
1000
2000
2000
2000
1FF0
0000
0000
ENDCHAR

STARTCHAR C244a
ENCODING 9290
SWIDTH 900 0
DWIDTH 16 0
BBX 16 16 0 -2
BITMAP
0000
0000
0800
0860
0E18
7800
1000
1040
2040
2040
43C0
4430
0428
03C4
0000
0000
ENDCHAR

STARTCHAR C244b
ENCODING 9291
SWIDTH 900 0
DWIDTH 16 0
BBX 16 16 0 -2
BITMAP
0000
0000
2000
21F8
4004
4000
4000
4000
4000
4000
4400
4400
220C
21F0
0000
0000
ENDCHAR

STARTCHAR C244c
ENCODING 9292
SWIDTH 900 0
DWIDTH 16 0
BBX 16 16 0 -2
BITMAP
0000
0000
0100
2100
2100
27E0
3910
6208
5208
9408
8878
8888
9494
6062
0000
0000
ENDCHAR

STARTCHAR C244d
ENCODING 9293
SWIDTH 900 0
DWIDTH 16 0
BBX 16 16 0 -2
BITMAP
0000
0000
1000
1000
18E0
F310
1408
1808
1008
3008
50E8
9110
9118
10F4
1000
0000
ENDCHAR

STARTCHAR C244e
ENCODING 9294
SWIDTH 900 0
DWIDTH 16 0
BBX 16 16 0 -2
BITMAP
0000
0000
07C0
1930
2108
2108
4104
4204
4204
4404
4408
4808
3010
00E0
0000
0000
ENDCHAR

STARTCHAR C244f
ENCODING 9295
SWIDTH 900 0
DWIDTH 16 0
BBX 16 16 0 -2
BITMAP
0000
0000
2040
4040
404C
47F0
4040
4040
4040
4040
43C0
4430
2428
23C4
0000
0000
ENDCHAR

STARTCHAR C2450
ENCODING 9296
SWIDTH 900 0
DWIDTH 16 0
BBX 16 16 0 -2
BITMAP
0004
0012
2048
4040
4040
47F8
4040
4040
4040
4040
43C0
4430
2428
23C4
0000
0000
ENDCHAR

STARTCHAR C2451
ENCODING 9297
SWIDTH 900 0
DWIDTH 16 0
BBX 16 16 0 -2
BITMAP
000C
0012
2052
404C
4040
47F8
4040
4040
4040
4040
43C0
4430
2428
23C4
0000
0000
ENDCHAR

STARTCHAR C2452
ENCODING 9298
SWIDTH 900 0
DWIDTH 16 0
BBX 16 16 0 -2
BITMAP
0000
0000
0F10
7210
0410
0818
1014
1024
2022
2020
2040
2040
1080
0F00
0000
0000
ENDCHAR

STARTCHAR C2453
ENCODING 9299
SWIDTH 900 0
DWIDTH 16 0
BBX 16 16 0 -2
BITMAP
0004
0012
1E48
E440
0860
1050
2050
2048
4044
4040
4080
4080
2100
1E00
0000
0000
ENDCHAR

STARTCHAR C2454
ENCODING 9300
SWIDTH 900 0
DWIDTH 16 0
BBX 16 16 0 -2
BITMAP
000C
0012
1E52
E44C
0860
1050
2050
4048
4044
4040
4080
4080
2100
1E00
0000
0000
ENDCHAR

STARTCHAR C2455
ENCODING 9301
SWIDTH 900 0
DWIDTH 16 0
BBX 16 16 0 -2
BITMAP
0000
0400
0300
0080
0100
0200
0400
0200
2110
2088
2088
4084
4884
0700
0000
0000
ENDCHAR

STARTCHAR C2456
ENCODING 9302
SWIDTH 900 0
DWIDTH 16 0
BBX 16 16 0 -2
BITMAP
0000
0800
0608
0184
0210
0408
0400
0200
2210
2110
4088
4084
8884
0700
0000
0000
ENDCHAR

STARTCHAR C2457
ENCODING 9303
SWIDTH 900 0
DWIDTH 16 0
BBX 16 16 0 -2
BITMAP
000C
0812
0612
018C
0200
0400
0400
0200
2110
2108
4088
4084
8884
0700
0000
0000
ENDCHAR

STARTCHAR C2458
ENCODING 9304
SWIDTH 900 0
DWIDTH 16 0
BBX 16 16 0 -2
BITMAP
0000
0000
0000
0200
0500
0880
1080
2040
4020
0010
0008
0004
0002
0000
0000
0000
ENDCHAR

STARTCHAR C2459
ENCODING 9305
SWIDTH 900 0
DWIDTH 16 0
BBX 16 16 0 -2
BITMAP
0000
0000
0010
0408
0A20
1110
2100
4080
8040
0020
0010
0008
0004
0000
0000
0000
ENDCHAR

STARTCHAR C245a
ENCODING 9306
SWIDTH 900 0
DWIDTH 16 0
BBX 16 16 0 -2
BITMAP
0000
0018
0024
0424
0A18
1100
2100
4080
8040
0020
0010
0008
0004
0000
0000
0000
ENDCHAR

STARTCHAR C245b
ENCODING 9307
SWIDTH 900 0
DWIDTH 16 0
BBX 16 16 0 -2
BITMAP
0000
0000
23F8
4020
4020
4020
47FC
4020
4020
4020
43E0
4438
2424
23C0
0000
0000
ENDCHAR

STARTCHAR C245c
ENCODING 9308
SWIDTH 900 0
DWIDTH 16 0
BBX 16 16 0 -2
BITMAP
0004
0002
27E8
4044
4040
4040
4FF0
4040
4040
4040
43C0
4470
2448
2380
0000
0000
ENDCHAR

STARTCHAR C245d
ENCODING 9309
SWIDTH 900 0
DWIDTH 16 0
BBX 16 16 0 -2
BITMAP
000C
0012
2012
47EC
4040
4040
4FF0
4040
4040
4040
43C0
4470
2448
2384
0000
0000
ENDCHAR

STARTCHAR C245e
ENCODING 9310
SWIDTH 900 0
DWIDTH 16 0
BBX 16 16 0 -2
BITMAP
0000
0000
0100
0100
3FF0
0100
0100
1FE0
0100
0100
1F00
21C0
2130
1F08
0000
0000
ENDCHAR

STARTCHAR C245f
ENCODING 9311
SWIDTH 900 0
DWIDTH 16 0
BBX 16 16 0 -2
BITMAP
0000
0000
1F80
0080
0100
0100
0210
1F10
22D0
4430
4428
4824
3040
0380
0000
0000
ENDCHAR

STARTCHAR C2460
ENCODING 9312
SWIDTH 900 0
DWIDTH 16 0
BBX 16 16 0 -2
BITMAP
0000
0800
0800
0810
7F08
0804
0804
3800
4800
4818
3808
0808
1008
0FF0
0000
0000
ENDCHAR

STARTCHAR C2461
ENCODING 9313
SWIDTH 900 0
DWIDTH 16 0
BBX 16 16 0 -2
BITMAP
0000
0000
0080
2080
13E0
1D10
1108
2904
4A04
4A04
4404
4408
3A10
0060
0000
0000
ENDCHAR

STARTCHAR C2462
ENCODING 9314
SWIDTH 900 0
DWIDTH 16 0
BBX 16 16 0 -2
BITMAP
0000
0000
0400
0400
2400
1F80
0400
0810
4810
3F88
0808
0808
0808
0430
03C0
0000
ENDCHAR

STARTCHAR C2463
ENCODING 9315
SWIDTH 900 0
DWIDTH 16 0
BBX 16 16 0 -2
BITMAP
0000
0000
0000
0000
0200
0180
0800
0460
0590
1E08
0210
0260
0100
0100
0000
0000
ENDCHAR

STARTCHAR C2464
ENCODING 9316
SWIDTH 900 0
DWIDTH 16 0
BBX 16 16 0 -2
BITMAP
0000
0000
0300
10C0
0800
08F8
0704
1C04
6404
0208
0270
0100
0100
0100
0000
0000
ENDCHAR

STARTCHAR C2465
ENCODING 9317
SWIDTH 900 0
DWIDTH 16 0
BBX 16 16 0 -2
BITMAP
0000
0000
0000
0000
0000
0080
10E0
1350
1448
1448
1448
0950
08E0
0080
0300
0000
ENDCHAR

STARTCHAR C2466
ENCODING 9318
SWIDTH 900 0
DWIDTH 16 0
BBX 16 16 0 -2
BITMAP
0000
0000
0040
2040
23F0
4448
4844
5044
5044
5248
2248
21F0
0080
0080
0300
0000
ENDCHAR

STARTCHAR C2467
ENCODING 9319
SWIDTH 900 0
DWIDTH 16 0
BBX 16 16 0 -2
BITMAP
0000
0000
0000
0000
0000
0100
0100
01F0
0100
0100
0700
08C0
08A0
0710
0000
0000
ENDCHAR

STARTCHAR C2468
ENCODING 9320
SWIDTH 900 0
DWIDTH 16 0
BBX 16 16 0 -2
BITMAP
0000
0000
0100
0100
0100
01F0
0100
0100
0100
1F00
20C0
20B0
2088
1F04
0000
0000
ENDCHAR

STARTCHAR C2469
ENCODING 9321
SWIDTH 900 0
DWIDTH 16 0
BBX 16 16 0 -2
BITMAP
0000
0400
0300
00E0
0800
0800
1000
11E0
1610
1808
0008
0008
0010
00E0
0300
0000
ENDCHAR

STARTCHAR C246a
ENCODING 9322
SWIDTH 900 0
DWIDTH 16 0
BBX 16 16 0 -2
BITMAP
0000
0000
0860
0890
1010
1010
1010
1010
1010
0810
0810
0020
0020
00C0
0300
0000
ENDCHAR

STARTCHAR C246b
ENCODING 9323
SWIDTH 900 0
DWIDTH 16 0
BBX 16 16 0 -2
BITMAP
0000
0000
0FF0
0020
00C0
0300
0400
09E0
1610
2008
0388
0448
0450
03E0
0000
0000
ENDCHAR

STARTCHAR C246c
ENCODING 9324
SWIDTH 900 0
DWIDTH 16 0
BBX 16 16 0 -2
BITMAP
0000
0800
0800
0800
0C70
7988
0A08
0C08
0808
1810
2810
4812
0812
081C
0000
0000
ENDCHAR

STARTCHAR C246d
ENCODING 9325
SWIDTH 900 0
DWIDTH 16 0
BBX 16 16 0 -2
BITMAP
0000
0000
1FC0
0080
0100
0200
0C00
11E0
2E10
4008
0008
0008
0010
00E0
0700
0000
ENDCHAR

STARTCHAR C246e
ENCODING 9326
SWIDTH 900 0
DWIDTH 16 0
BBX 16 16 0 -2
BITMAP
0000
0000
0000
0000
0000
0400
0400
04E0
1D10
0608
0C08
1408
0410
0460
0000
0000
ENDCHAR

STARTCHAR C246f
ENCODING 9327
SWIDTH 900 0
DWIDTH 16 0
BBX 16 16 0 -2
BITMAP
0000
0000
1000
1000
1800
71F0
1208
1C04
1004
3004
5004
9008
1008
1030
10C0
0000
ENDCHAR

STARTCHAR C2470
ENCODING 9328
SWIDTH 900 0
DWIDTH 16 0
BBX 16 16 0 -2
BITMAP
0000
0000
03C0
1C40
0080
0080
07E0
0918
1104
2204
4204
44E4
4914
30E8
0000
0000
ENDCHAR

STARTCHAR C2471
ENCODING 9329
SWIDTH 900 0
DWIDTH 16 0
BBX 16 16 0 -2
BITMAP
0000
03C0
1C80
0100
0200
07C0
1820
2310
0490
04A0
03C0
0C00
3860
4598
8204
0000
ENDCHAR

STARTCHAR C2472
ENCODING 9330
SWIDTH 900 0
DWIDTH 16 0
BBX 16 16 0 -2
BITMAP
0000
0100
0100
0200
3FE0
0400
0B00
088C
10F0
2380
0480
0880
0800
07F8
0000
0000
ENDCHAR

STARTCHAR C2473
ENCODING 9331
SWIDTH 900 0
DWIDTH 16 0
BBX 16 16 0 -2
BITMAP
0000
0000
0200
0200
0400
0400
0800
1000
1200
2504
2884
5088
4088
4070
0000
0000
ENDCHAR

STARTCHAR C2474
ENCODING 9332
SWIDTH 900 0
DWIDTH 16 0
BBX 16 16 0 -2
BITMAP
0000
0000
0000
0000
0000
0000
0000
0000
0000
0000
0000
0000
0000
0000
0000
0000
ENDCHAR

STARTCHAR C2475
ENCODING 9333
SWIDTH 900 0
DWIDTH 16 0
BBX 16 16 0 -2
BITMAP
0000
0000
0000
0000
0000
0000
0000
0000
0000
0000
0000
0000
0000
0000
0000
0000
ENDCHAR

STARTCHAR C2476
ENCODING 9334
SWIDTH 900 0
DWIDTH 16 0
BBX 16 16 0 -2
BITMAP
0000
0000
0000
0000
0000
0000
0000
0000
0000
0000
0000
0000
0000
0000
0000
0000
ENDCHAR

STARTCHAR C2477
ENCODING 9335
SWIDTH 900 0
DWIDTH 16 0
BBX 16 16 0 -2
BITMAP
0000
0000
0000
0000
0000
0000
0000
0000
0000
0000
0000
0000
0000
0000
0000
0000
ENDCHAR

STARTCHAR C2478
ENCODING 9336
SWIDTH 900 0
DWIDTH 16 0
BBX 16 16 0 -2
BITMAP
0000
0000
0000
0000
0000
0000
0000
0000
0000
0000
0000
0000
0000
0000
0000
0000
ENDCHAR

STARTCHAR C2479
ENCODING 9337
SWIDTH 900 0
DWIDTH 16 0
BBX 16 16 0 -2
BITMAP
0000
0000
0000
0000
0000
0000
0000
0000
0000
0000
0000
0000
0000
0000
0000
0000
ENDCHAR

STARTCHAR C247a
ENCODING 9338
SWIDTH 900 0
DWIDTH 16 0
BBX 16 16 0 -2
BITMAP
0000
0000
0000
0000
0000
0000
0000
0000
0000
0000
0000
0000
0000
0000
0000
0000
ENDCHAR

STARTCHAR C247b
ENCODING 9339
SWIDTH 900 0
DWIDTH 16 0
BBX 16 16 0 -2
BITMAP
0000
0000
0000
0000
0000
0000
0000
0000
0000
0000
0000
0000
0000
0000
0000
0000
ENDCHAR

STARTCHAR C247c
ENCODING 9340
SWIDTH 900 0
DWIDTH 16 0
BBX 16 16 0 -2
BITMAP
0000
0000
0000
0000
0000
0000
0000
0000
0000
0000
0000
0000
0000
0000
0000
0000
ENDCHAR

STARTCHAR C247d
ENCODING 9341
SWIDTH 900 0
DWIDTH 16 0
BBX 16 16 0 -2
BITMAP
0000
0000
0000
0000
0000
0000
0000
0000
0000
0000
0000
0000
0000
0000
0000
0000
ENDCHAR

STARTCHAR C247e
ENCODING 9342
SWIDTH 900 0
DWIDTH 16 0
BBX 16 16 0 -2
BITMAP
0000
0000
0000
0000
0000
0000
0000
0000
0000
0000
0000
0000
0000
0000
0000
0000
ENDCHAR

STARTCHAR C2521
ENCODING 9505
SWIDTH 900 0
DWIDTH 16 0
BBX 16 16 0 -2
BITMAP
0000
0000
0000
0000
0000
0000
1FE0
0020
0040
0380
0200
0200
0200
0C00
0000
0000
ENDCHAR

STARTCHAR C2522
ENCODING 9506
SWIDTH 900 0
DWIDTH 16 0
BBX 16 16 0 -2
BITMAP
0000
0000
3FFC
0004
0008
0110
0120
0140
0100
0100
0100
0100
0200
0C00
0000
0000
ENDCHAR

STARTCHAR C2523
ENCODING 9507
SWIDTH 900 0
DWIDTH 16 0
BBX 16 16 0 -2
BITMAP
0000
0000
0000
0000
0000
0020
0040
0080
0180
0280
0480
0880
0080
0080
0000
0000
ENDCHAR

STARTCHAR C2524
ENCODING 9508
SWIDTH 900 0
DWIDTH 16 0
BBX 16 16 0 -2
BITMAP
0000
0000
0008
0010
0020
0040
01C0
0240
0C40
3040
0040
0040
0040
0040
0000
0000
ENDCHAR

STARTCHAR C2525
ENCODING 9509
SWIDTH 900 0
DWIDTH 16 0
BBX 16 16 0 -2
BITMAP
0000
0000
0000
0000
0100
0100
1FF0
1010
1010
1010
0020
0020
0040
0080
0300
0000
ENDCHAR

STARTCHAR C2526
ENCODING 9510
SWIDTH 900 0
DWIDTH 16 0
BBX 16 16 0 -2
BITMAP
0000
0000
0100
0100
3FF8
2008
2008
2008
2010
0010
0020
0040
0080
0700
0000
0000
ENDCHAR

STARTCHAR C2527
ENCODING 9511
SWIDTH 900 0
DWIDTH 16 0
BBX 16 16 0 -2
BITMAP
0000
0000
0000
0000
0000
0000
0000
1FF0
0100
0100
0100
0100
0100
3FF8
0000
0000
ENDCHAR

STARTCHAR C2528
ENCODING 9512
SWIDTH 900 0
DWIDTH 16 0
BBX 16 16 0 -2
BITMAP
0000
0000
0000
0000
3FF8
0100
0100
0100
0100
0100
0100
0100
7FFC
0000
0000
0000
ENDCHAR

STARTCHAR C2529
ENCODING 9513
SWIDTH 900 0
DWIDTH 16 0
BBX 16 16 0 -2
BITMAP
0000
0000
0000
0000
0000
0080
0080
3FF0
0180
0280
0480
0880
3080
0380
0000
0000
ENDCHAR

STARTCHAR C252a
ENCODING 9514
SWIDTH 900 0
DWIDTH 16 0
BBX 16 16 0 -2
BITMAP
0000
0000
0080
0080
0080
7FFC
0180
0280
0480
0880
1080
2080
4080
0380
0000
0000
ENDCHAR

STARTCHAR C252b
ENCODING 9515
SWIDTH 900 0
DWIDTH 16 0
BBX 16 16 0 -2
BITMAP
0000
0200
0200
0200
7FF8
0208
0208
0208
0408
0408
0808
0808
1048
2030
0000
0000
ENDCHAR

STARTCHAR C252c
ENCODING 9516
SWIDTH 900 0
DWIDTH 16 0
BBX 16 16 0 -2
BITMAP
0004
0212
0208
0200
7FF0
0210
0210
0210
0410
0410
0810
0810
1090
2060
0000
0000
ENDCHAR

STARTCHAR C252d
ENCODING 9517
SWIDTH 900 0
DWIDTH 16 0
BBX 16 16 0 -2
BITMAP
0000
0200
0200
0200
03E0
3E00
0200
0200
03FC
7F00
0100
0100
0100
0100
0100
0000
ENDCHAR

STARTCHAR C252e
ENCODING 9518
SWIDTH 900 0
DWIDTH 16 0
BBX 16 16 0 -2
BITMAP
0004
0212
0208
0200
03E0
3E00
0200
0200
03F8
7F00
0100
0100
0100
0100
0100
0000
ENDCHAR

STARTCHAR C252f
ENCODING 9519
SWIDTH 900 0
DWIDTH 16 0
BBX 16 16 0 -2
BITMAP
0000
0200
0200
0400
07F0
0810
1010
2020
4020
0040
0040
0080
0100
0200
0C00
0000
ENDCHAR

STARTCHAR C2530
ENCODING 9520
SWIDTH 900 0
DWIDTH 16 0
BBX 16 16 0 -2
BITMAP
0004
0212
0208
0400
07F0
0810
1010
2020
4020
0040
0080
0100
0200
0400
1800
0000
ENDCHAR

STARTCHAR C2531
ENCODING 9521
SWIDTH 900 0
DWIDTH 16 0
BBX 16 16 0 -2
BITMAP
0000
0000
0800
0800
0800
1FFC
1040
2040
4040
0080
0080
0100
0200
0400
0800
0000
ENDCHAR

STARTCHAR C2532
ENCODING 9522
SWIDTH 900 0
DWIDTH 16 0
BBX 16 16 0 -2
BITMAP
0004
0022
0810
0800
0800
1FFC
1040
2040
4040
0080
0080
0100
0200
0400
0800
0000
ENDCHAR

STARTCHAR C2533
ENCODING 9523
SWIDTH 900 0
DWIDTH 16 0
BBX 16 16 0 -2
BITMAP
0000
0000
0000
0000
3FF0
0010
0010
0010
0010
0010
0010
0010
3FF0
0010
0000
0000
ENDCHAR

STARTCHAR C2534
ENCODING 9524
SWIDTH 900 0
DWIDTH 16 0
BBX 16 16 0 -2
BITMAP
0004
0012
0008
0000
3FF0
0010
0010
0010
0010
0010
0010
0010
3FF0
0010
0000
0000
ENDCHAR

STARTCHAR C2535
ENCODING 9525
SWIDTH 900 0
DWIDTH 16 0
BBX 16 16 0 -2
BITMAP
0000
0000
0840
0840
0840
FFFC
0840
0840
0840
0840
0080
0080
0100
0200
0400
0000
ENDCHAR

STARTCHAR C2536
ENCODING 9526
SWIDTH 900 0
DWIDTH 16 0
BBX 16 16 0 -2
BITMAP
0004
0012
0848
0840
0840
FFFC
0840
0840
0840
0840
0080
0080
0100
0200
0400
0000
ENDCHAR

STARTCHAR C2537
ENCODING 9527
SWIDTH 900 0
DWIDTH 16 0
BBX 16 16 0 -2
BITMAP
0000
0C00
0300
0000
0000
3004
0C04
0008
0008
0010
0020
0040
0180
0E00
0000
0000
ENDCHAR

STARTCHAR C2538
ENCODING 9528
SWIDTH 900 0
DWIDTH 16 0
BBX 16 16 0 -2
BITMAP
0010
3008
0C40
0020
0000
6008
1808
0010
0010
0020
0040
0080
0300
1C00
0000
0000
ENDCHAR

STARTCHAR C2539
ENCODING 9529
SWIDTH 900 0
DWIDTH 16 0
BBX 16 16 0 -2
BITMAP
0000
0000
0000
3FE0
0020
0040
0040
0080
0100
02C0
0420
0810
1008
6004
0000
0000
ENDCHAR

STARTCHAR C253a
ENCODING 9530
SWIDTH 900 0
DWIDTH 16 0
BBX 16 16 0 -2
BITMAP
0004
0012
0008
3FE0
0020
0040
0040
0080
0100
0280
0460
0810
1008
6004
0000
0000
ENDCHAR

STARTCHAR C253b
ENCODING 9531
SWIDTH 900 0
DWIDTH 16 0
BBX 16 16 0 -2
BITMAP
0000
0400
0400
0400
043C
07C4
7C08
0410
0420
0440
0400
0400
0400
03F8
0000
0000
ENDCHAR

STARTCHAR C253c
ENCODING 9532
SWIDTH 900 0
DWIDTH 16 0
BBX 16 16 0 -2
BITMAP
0004
0812
0808
0800
0878
0F88
7810
0820
0840
0880
0800
0800
0800
07F0
0000
0000
ENDCHAR

STARTCHAR C253d
ENCODING 9533
SWIDTH 900 0
DWIDTH 16 0
BBX 16 16 0 -2
BITMAP
0000
0000
0000
2010
1010
0810
0820
0020
0040
0040
0080
0100
0200
0C00
0000
0000
ENDCHAR

STARTCHAR C253e
ENCODING 9534
SWIDTH 900 0
DWIDTH 16 0
BBX 16 16 0 -2
BITMAP
0004
0012
0008
2000
1010
0810
0810
0020
0020
0040
0080
0100
0200
0C00
0000
0000
ENDCHAR

STARTCHAR C253f
ENCODING 9535
SWIDTH 900 0
DWIDTH 16 0
BBX 16 16 0 -2
BITMAP
0000
0200
0200
07F0
0410
0810
1020
2220
0140
0080
0140
0220
0400
0800
3000
0000
ENDCHAR

STARTCHAR C2540
ENCODING 9536
SWIDTH 900 0
DWIDTH 16 0
BBX 16 16 0 -2
BITMAP
0004
0212
0208
07F0
0410
0810
1020
2220
0140
0080
0140
0220
0400
0800
3000
0000
ENDCHAR

STARTCHAR C2541
ENCODING 9537
SWIDTH 900 0
DWIDTH 16 0
BBX 16 16 0 -2
BITMAP
0000
0030
03C0
3D00
0100
0100
0100
7FFC
0100
0100
0200
0200
0400
1800
0000
0000
ENDCHAR

STARTCHAR C2542
ENCODING 9538
SWIDTH 900 0
DWIDTH 16 0
BBX 16 16 0 -2
BITMAP
0004
0062
0788
3904
0100
0100
0100
7FFC
0100
0100
0200
0200
0400
1800
0000
0000
ENDCHAR

STARTCHAR C2543
ENCODING 9539
SWIDTH 900 0
DWIDTH 16 0
BBX 16 16 0 -2
BITMAP
0000
0000
0000
0000
0000
0000
1210
0910
0910
0020
0020
0040
0080
0100
0200
0000
ENDCHAR

STARTCHAR C2544
ENCODING 9540
SWIDTH 900 0
DWIDTH 16 0
BBX 16 16 0 -2
BITMAP
0000
0000
0400
4208
2208
2108
1110
1010
0020
0020
0040
0080
0100
0600
1800
0000
ENDCHAR

STARTCHAR C2545
ENCODING 9541
SWIDTH 900 0
DWIDTH 16 0
BBX 16 16 0 -2
BITMAP
0004
0012
0408
4200
2210
2110
1110
1020
0020
0040
0040
0080
0100
0600
1800
0000
ENDCHAR

STARTCHAR C2546
ENCODING 9542
SWIDTH 900 0
DWIDTH 16 0
BBX 16 16 0 -2
BITMAP
0000
0000
3FF0
0000
0000
0000
FFFC
0100
0100
0100
0200
0200
0400
1800
0000
0000
ENDCHAR

STARTCHAR C2547
ENCODING 9543
SWIDTH 900 0
DWIDTH 16 0
BBX 16 16 0 -2
BITMAP
0004
0002
3FE8
0004
0000
0000
FFFC
0100
0100
0100
0200
0200
0400
1800
0000
0000
ENDCHAR

STARTCHAR C2548
ENCODING 9544
SWIDTH 900 0
DWIDTH 16 0
BBX 16 16 0 -2
BITMAP
0000
0400
0400
0400
0400
0400
0700
04C0
0420
0410
0400
0400
0400
0400
0400
0000
ENDCHAR

STARTCHAR C2549
ENCODING 9545
SWIDTH 900 0
DWIDTH 16 0
BBX 16 16 0 -2
BITMAP
0010
0408
0440
0420
0400
0400
0700
04C0
0420
0410
0400
0400
0400
0400
0400
0000
ENDCHAR

STARTCHAR C254a
ENCODING 9546
SWIDTH 900 0
DWIDTH 16 0
BBX 16 16 0 -2
BITMAP
0000
0100
0100
0100
0100
0100
FFFC
0100
0100
0100
0200
0200
0400
0800
1000
0000
ENDCHAR

STARTCHAR C254b
ENCODING 9547
SWIDTH 900 0
DWIDTH 16 0
BBX 16 16 0 -2
BITMAP
0000
0000
0000
0000
1FF8
0000
0000
0000
0000
0000
0000
7FFE
0000
0000
0000
0000
ENDCHAR

STARTCHAR C254c
ENCODING 9548
SWIDTH 900 0
DWIDTH 16 0
BBX 16 16 0 -2
BITMAP
0000
0000
0000
1FF0
0010
0020
0420
0240
0140
0080
0140
0220
0410
1800
0000
0000
ENDCHAR

STARTCHAR C254d
ENCODING 9549
SWIDTH 900 0
DWIDTH 16 0
BBX 16 16 0 -2
BITMAP
0000
0400
0200
0100
3FF0
0020
0040
0080
0140
0320
0510
1900
6100
0100
0100
0000
ENDCHAR

STARTCHAR C254e
ENCODING 9550
SWIDTH 900 0
DWIDTH 16 0
BBX 16 16 0 -2
BITMAP
0000
0000
0000
0020
0020
0020
0040
0040
0080
0080
0100
0200
0C00
3000
0000
0000
ENDCHAR

STARTCHAR C254f
ENCODING 9551
SWIDTH 900 0
DWIDTH 16 0
BBX 16 16 0 -2
BITMAP
0000
0000
0000
0000
0840
0820
1010
1010
2008
2008
4004
4004
8004
0000
0000
0000
ENDCHAR

STARTCHAR C2550
ENCODING 9552
SWIDTH 900 0
DWIDTH 16 0
BBX 16 16 0 -2
BITMAP
0004
0002
0010
0008
0840
0820
1010
1010
2008
2008
4004
4004
8004
0000
0000
0000
ENDCHAR

STARTCHAR C2551
ENCODING 9553
SWIDTH 900 0
DWIDTH 16 0
BBX 16 16 0 -2
BITMAP
000C
0012
0012
000C
0840
0820
1010
1010
2008
2008
4004
4004
8004
0000
0000
0000
ENDCHAR

STARTCHAR C2552
ENCODING 9554
SWIDTH 900 0
DWIDTH 16 0
BBX 16 16 0 -2
BITMAP
0000
0000
1000
1000
1000
1070
1380
1C00
1000
1000
1000
1000
1000
0FF0
0000
0000
ENDCHAR

STARTCHAR C2553
ENCODING 9555
SWIDTH 900 0
DWIDTH 16 0
BBX 16 16 0 -2
BITMAP
0008
0024
1010
1000
1000
1070
1380
1C00
1000
1000
1000
1000
1000
0FF0
0000
0000
ENDCHAR

STARTCHAR C2554
ENCODING 9556
SWIDTH 900 0
DWIDTH 16 0
BBX 16 16 0 -2
BITMAP
000C
0012
1012
100C
1000
1070
1380
1C00
1000
1000
1000
1000
1000
0FF0
0000
0000
ENDCHAR

STARTCHAR C2555
ENCODING 9557
SWIDTH 900 0
DWIDTH 16 0
BBX 16 16 0 -2
BITMAP
0000
0000
0000
3FF8
0008
0008
0008
0010
0010
0020
0040
0080
0100
0600
0000
0000
ENDCHAR

STARTCHAR C2556
ENCODING 9558
SWIDTH 900 0
DWIDTH 16 0
BBX 16 16 0 -2
BITMAP
0004
0012
0008
7FE0
0020
0020
0020
0040
0040
0080
0100
0200
0400
1800
0000
0000
ENDCHAR

STARTCHAR C2557
ENCODING 9559
SWIDTH 900 0
DWIDTH 16 0
BBX 16 16 0 -2
BITMAP
000C
0012
0012
7FEC
0020
0020
0020
0040
0040
0080
0100
0200
0400
1800
0000
0000
ENDCHAR

STARTCHAR C2558
ENCODING 9560
SWIDTH 900 0
DWIDTH 16 0
BBX 16 16 0 -2
BITMAP
0000
0000
0000
0000
0600
0900
1080
2040
4020
0010
0008
0004
0002
0000
0000
0000
ENDCHAR

STARTCHAR C2559
ENCODING 9561
SWIDTH 900 0
DWIDTH 16 0
BBX 16 16 0 -2
BITMAP
0000
0010
0048
0020
0C00
1200
2100
4080
8040
0020
0010
0008
0004
0000
0000
0000
ENDCHAR

STARTCHAR C255a
ENCODING 9562
SWIDTH 900 0
DWIDTH 16 0
BBX 16 16 0 -2
BITMAP
0000
0030
0048
0048
0C30
1200
2100
4080
8040
0020
0010
0008
0004
0000
0000
0000
ENDCHAR

STARTCHAR C255b
ENCODING 9563
SWIDTH 900 0
DWIDTH 16 0
BBX 16 16 0 -2
BITMAP
0000
0000
0100
0100
0100
7FF8
0100
0100
1120
2110
2108
4104
8904
0500
0200
0000
ENDCHAR

STARTCHAR C255c
ENCODING 9564
SWIDTH 900 0
DWIDTH 16 0
BBX 16 16 0 -2
BITMAP
0008
0024
0110
0100
0100
7FF8
0100
0100
1120
2110
2108
4104
8904
0500
0200
0000
ENDCHAR

STARTCHAR C255d
ENCODING 9565
SWIDTH 900 0
DWIDTH 16 0
BBX 16 16 0 -2
BITMAP
000C
0012
0112
010C
0100
7FF8
0100
0100
1120
2110
2108
4104
8904
0500
0200
0000
ENDCHAR

STARTCHAR C255e
ENCODING 9566
SWIDTH 900 0
DWIDTH 16 0
BBX 16 16 0 -2
BITMAP
0000
0000
0000
7FF8
0008
0010
0010
0020
0C40
0280
0100
0080
0040
0020
0000
0000
ENDCHAR

STARTCHAR C255f
ENCODING 9567
SWIDTH 900 0
DWIDTH 16 0
BBX 16 16 0 -2
BITMAP
0000
0000
0E00
0180
0060
0000
0C00
0300
00C0
0000
3000
0C00
0300
00E0
0000
0000
ENDCHAR

STARTCHAR C2560
ENCODING 9568
SWIDTH 900 0
DWIDTH 16 0
BBX 16 16 0 -2
BITMAP
0000
0000
0200
0200
0400
0400
0800
0840
1020
1010
2010
21F8
7E08
0008
0000
0000
ENDCHAR

STARTCHAR C2561
ENCODING 9569
SWIDTH 900 0
DWIDTH 16 0
BBX 16 16 0 -2
BITMAP
0000
0000
0010
0010
0020
0420
0240
0140
0080
0140
0220
0410
0800
3000
0000
0000
ENDCHAR

STARTCHAR C2562
ENCODING 9570
SWIDTH 900 0
DWIDTH 16 0
BBX 16 16 0 -2
BITMAP
0000
0000
1FF0
0200
0200
0200
0200
7FFE
0200
0200
0200
0200
0200
01F8
0000
0000
ENDCHAR

STARTCHAR C2563
ENCODING 9571
SWIDTH 900 0
DWIDTH 16 0
BBX 16 16 0 -2
BITMAP
0000
0000
0000
0000
0000
0400
0400
07F0
3C20
0440
0280
0200
0200
0200
0200
0000
ENDCHAR

STARTCHAR C2564
ENCODING 9572
SWIDTH 900 0
DWIDTH 16 0
BBX 16 16 0 -2
BITMAP
0000
0000
0400
0400
043C
07C8
7C08
0210
0220
0200
0200
0100
0100
0100
0100
0000
ENDCHAR

STARTCHAR C2565
ENCODING 9573
SWIDTH 900 0
DWIDTH 16 0
BBX 16 16 0 -2
BITMAP
0000
0000
0000
0000
0000
0000
0FC0
0040
0040
0040
0040
0040
3FF0
0000
0000
0000
ENDCHAR

STARTCHAR C2566
ENCODING 9574
SWIDTH 900 0
DWIDTH 16 0
BBX 16 16 0 -2
BITMAP
0000
0000
0000
0000
1FE0
0020
0020
0020
0020
0020
0020
0020
FFFC
0000
0000
0000
ENDCHAR

STARTCHAR C2567
ENCODING 9575
SWIDTH 900 0
DWIDTH 16 0
BBX 16 16 0 -2
BITMAP
0000
0000
0000
0000
0000
1FE0
0020
0020
0020
0FE0
0020
0020
0020
1FE0
0000
0000
ENDCHAR

STARTCHAR C2568
ENCODING 9576
SWIDTH 900 0
DWIDTH 16 0
BBX 16 16 0 -2
BITMAP
0000
0000
3FF0
0010
0010
0010
0010
1FF0
0010
0010
0010
0010
3FF0
0010
0000
0000
ENDCHAR

STARTCHAR C2569
ENCODING 9577
SWIDTH 900 0
DWIDTH 16 0
BBX 16 16 0 -2
BITMAP
0000
0000
1FE0
0000
0000
0000
7FF0
0010
0010
0020
0020
0040
0080
0300
0C00
0000
ENDCHAR

STARTCHAR C256a
ENCODING 9578
SWIDTH 900 0
DWIDTH 16 0
BBX 16 16 0 -2
BITMAP
0000
0000
1020
1020
1020
1020
1020
1020
1020
1020
0040
0040
0080
0100
0600
0000
ENDCHAR

STARTCHAR C256b
ENCODING 9579
SWIDTH 900 0
DWIDTH 16 0
BBX 16 16 0 -2
BITMAP
0000
0000
0100
0100
1100
1100
1104
1104
1108
2108
2110
4120
81C0
0100
0000
0000
ENDCHAR

STARTCHAR C256c
ENCODING 9580
SWIDTH 900 0
DWIDTH 16 0
BBX 16 16 0 -2
BITMAP
0000
0000
1000
1000
1000
1000
1008
1008
1010
1020
1040
1080
1300
1C00
0000
0000
ENDCHAR

STARTCHAR C256d
ENCODING 9581
SWIDTH 900 0
DWIDTH 16 0
BBX 16 16 0 -2
BITMAP
0000
0000
0000
0000
1FF8
1008
1008
1008
1008
1008
1008
1008
1FF8
1008
0000
0000
ENDCHAR

STARTCHAR C256e
ENCODING 9582
SWIDTH 900 0
DWIDTH 16 0
BBX 16 16 0 -2
BITMAP
0000
0000
0000
0000
0000
7FC0
4040
4040
4040
4080
0080
0100
0200
0C00
0000
0000
ENDCHAR

STARTCHAR C256f
ENCODING 9583
SWIDTH 900 0
DWIDTH 16 0
BBX 16 16 0 -2
BITMAP
0000
0000
0000
3FF0
2010
2010
2010
2010
0010
0020
0020
0040
0180
0600
0000
0000
ENDCHAR

STARTCHAR C2570
ENCODING 9584
SWIDTH 900 0
DWIDTH 16 0
BBX 16 16 0 -2
BITMAP
0000
0040
0040
0040
3FFC
0840
0840
0840
0840
0840
7FFE
0040
0040
0040
0040
0000
ENDCHAR

STARTCHAR C2571
ENCODING 9585
SWIDTH 900 0
DWIDTH 16 0
BBX 16 16 0 -2
BITMAP
0000
0000
0000
3FF0
0020
0040
0280
0300
0200
0200
0200
0200
FFFC
0000
0000
0000
ENDCHAR

STARTCHAR C2572
ENCODING 9586
SWIDTH 900 0
DWIDTH 16 0
BBX 16 16 0 -2
BITMAP
0000
0000
0000
3FF0
0010
0010
0010
3FF0
0020
0020
0040
0080
0100
0E00
0000
0000
ENDCHAR

STARTCHAR C2573
ENCODING 9587
SWIDTH 900 0
DWIDTH 16 0
BBX 16 16 0 -2
BITMAP
0000
0000
2000
1000
0808
0408
0010
0010
0020
0040
0080
0100
0600
1800
0000
0000
ENDCHAR

STARTCHAR C2574
ENCODING 9588
SWIDTH 900 0
DWIDTH 16 0
BBX 16 16 0 -2
BITMAP
0004
0012
0208
0200
7FF0
4010
4010
4010
4010
4020
0020
0040
0080
0100
0600
0000
ENDCHAR

STARTCHAR C2575
ENCODING 9589
SWIDTH 900 0
DWIDTH 16 0
BBX 16 16 0 -2
BITMAP
0000
0000
0000
0000
0200
0200
0200
1FE0
0220
0220
0420
0420
08A0
1040
0000
0000
ENDCHAR

STARTCHAR C2576
ENCODING 9590
SWIDTH 900 0
DWIDTH 16 0
BBX 16 16 0 -2
BITMAP
0000
0000
0000
0000
0400
0400
0800
0FF0
1080
1080
2080
0100
0100
0200
0400
0000
ENDCHAR

STARTCHAR C2577
ENCODING 9591
SWIDTH 900 0
DWIDTH 16 0
BBX 16 16 0 -2
BITMAP
0000
0000
0000
0000
0000
0000
0000
0000
0000
0000
0000
0000
0000
0000
0000
0000
ENDCHAR

STARTCHAR C2578
ENCODING 9592
SWIDTH 900 0
DWIDTH 16 0
BBX 16 16 0 -2
BITMAP
0000
0000
0000
0000
0000
0000
0000
0000
0000
0000
0000
0000
0000
0000
0000
0000
ENDCHAR

STARTCHAR C2579
ENCODING 9593
SWIDTH 900 0
DWIDTH 16 0
BBX 16 16 0 -2
BITMAP
0000
0000
0000
0000
0000
0000
0000
0000
0000
0000
0000
0000
0000
0000
0000
0000
ENDCHAR

STARTCHAR C257a
ENCODING 9594
SWIDTH 900 0
DWIDTH 16 0
BBX 16 16 0 -2
BITMAP
0000
0000
0000
0000
0000
0000
0000
0000
0000
0000
0000
0000
0000
0000
0000
0000
ENDCHAR

STARTCHAR C257b
ENCODING 9595
SWIDTH 900 0
DWIDTH 16 0
BBX 16 16 0 -2
BITMAP
0000
0000
0000
0000
0000
0000
0000
0000
0000
0000
0000
0000
0000
0000
0000
0000
ENDCHAR

STARTCHAR C257c
ENCODING 9596
SWIDTH 900 0
DWIDTH 16 0
BBX 16 16 0 -2
BITMAP
0000
0000
0000
0000
0000
0000
0000
0000
0000
0000
0000
0000
0000
0000
0000
0000
ENDCHAR

STARTCHAR C257d
ENCODING 9597
SWIDTH 900 0
DWIDTH 16 0
BBX 16 16 0 -2
BITMAP
0000
0000
0000
0000
0000
0000
0000
0000
0000
0000
0000
0000
0000
0000
0000
0000
ENDCHAR

STARTCHAR C257e
ENCODING 9598
SWIDTH 900 0
DWIDTH 16 0
BBX 16 16 0 -2
BITMAP
0000
0000
0000
0000
0000
0000
0000
0000
0000
0000
0000
0000
0000
0000
0000
0000
ENDCHAR

STARTCHAR C2621
ENCODING 9761
SWIDTH 900 0
DWIDTH 16 0
BBX 16 16 0 -2
BITMAP
0000
0100
0100
0280
0280
0280
0440
0440
0820
0FE0
0820
1010
1010
3838
0000
0000
ENDCHAR

STARTCHAR C2622
ENCODING 9762
SWIDTH 900 0
DWIDTH 16 0
BBX 16 16 0 -2
BITMAP
0000
3FC0
1020
1010
1010
1010
1020
1FE0
1010
1008
1008
1008
1010
3FE0
0000
0000
ENDCHAR

STARTCHAR C2623
ENCODING 9763
SWIDTH 900 0
DWIDTH 16 0
BBX 16 16 0 -2
BITMAP
0000
3FF8
1008
1000
1000
1000
1000
1000
1000
1000
1000
1000
1000
3800
0000
0000
ENDCHAR

STARTCHAR C2624
ENCODING 9764
SWIDTH 900 0
DWIDTH 16 0
BBX 16 16 0 -2
BITMAP
0000
0100
0100
0280
0280
0440
0440
0820
0820
1010
1010
2008
2008
3FF8
0000
0000
ENDCHAR

STARTCHAR C2625
ENCODING 9765
SWIDTH 900 0
DWIDTH 16 0
BBX 16 16 0 -2
BITMAP
0000
3FF8
1008
1000
1000
1000
1000
1FE0
1000
1000
1000
1000
1008
3FF8
0000
0000
ENDCHAR

STARTCHAR C2626
ENCODING 9766
SWIDTH 900 0
DWIDTH 16 0
BBX 16 16 0 -2
BITMAP
0000
3FF8
2008
0010
0020
0040
0080
0100
0200
0400
0800
1000
2008
3FF8
0000
0000
ENDCHAR

STARTCHAR C2627
ENCODING 9767
SWIDTH 900 0
DWIDTH 16 0
BBX 16 16 0 -2
BITMAP
0000
3838
1010
1010
1010
1010
1010
1FF0
1010
1010
1010
1010
1010
3838
0000
0000
ENDCHAR

STARTCHAR C2628
ENCODING 9768
SWIDTH 900 0
DWIDTH 16 0
BBX 16 16 0 -2
BITMAP
0000
07C0
1830
2008
2008
2008
2448
27C8
2448
2008
2008
2008
1830
07C0
0000
0000
ENDCHAR

STARTCHAR C2629
ENCODING 9769
SWIDTH 900 0
DWIDTH 16 0
BBX 16 16 0 -2
BITMAP
0000
0380
0100
0100
0100
0100
0100
0100
0100
0100
0100
0100
0100
0380
0000
0000
ENDCHAR

STARTCHAR C262a
ENCODING 9770
SWIDTH 900 0
DWIDTH 16 0
BBX 16 16 0 -2
BITMAP
0000
3870
1020
1040
1080
1100
1200
1600
1900
1080
1040
1020
1010
3838
0000
0000
ENDCHAR

STARTCHAR C262b
ENCODING 9771
SWIDTH 900 0
DWIDTH 16 0
BBX 16 16 0 -2
BITMAP
0000
0100
0100
0280
0280
0280
0440
0440
0820
0820
0820
1010
1010
3838
0000
0000
ENDCHAR

STARTCHAR C262c
ENCODING 9772
SWIDTH 900 0
DWIDTH 16 0
BBX 16 16 0 -2
BITMAP
0000
600C
3018
3018
2828
2828
2448
2448
2288
2288
2108
2108
2008
701C
0000
0000
ENDCHAR

STARTCHAR C262d
ENCODING 9773
SWIDTH 900 0
DWIDTH 16 0
BBX 16 16 0 -2
BITMAP
0000
3838
1410
1410
1210
1210
1110
1110
1090
1090
1050
1050
1030
3830
0000
0000
ENDCHAR

STARTCHAR C262e
ENCODING 9774
SWIDTH 900 0
DWIDTH 16 0
BBX 16 16 0 -2
BITMAP
0000
3FF8
2008
0000
0000
0000
1010
1FF0
1010
0000
0000
0000
2008
3FF8
0000
0000
ENDCHAR

STARTCHAR C262f
ENCODING 9775
SWIDTH 900 0
DWIDTH 16 0
BBX 16 16 0 -2
BITMAP
0000
07C0
1830
2008
2008
2008
2008
2008
2008
2008
2008
2008
1830
07C0
0000
0000
ENDCHAR

STARTCHAR C2630
ENCODING 9776
SWIDTH 900 0
DWIDTH 16 0
BBX 16 16 0 -2
BITMAP
0000
3FF8
1010
1010
1010
1010
1010
1010
1010
1010
1010
1010
1010
3838
0000
0000
ENDCHAR

STARTCHAR C2631
ENCODING 9777
SWIDTH 900 0
DWIDTH 16 0
BBX 16 16 0 -2
BITMAP
0000
1FE0
0810
0808
0808
0808
0808
0810
0FE0
0800
0800
0800
0800
1C00
0000
0000
ENDCHAR

STARTCHAR C2632
ENCODING 9778
SWIDTH 900 0
DWIDTH 16 0
BBX 16 16 0 -2
BITMAP
0000
1FF8
1008
0800
0400
0200
0100
0080
0100
0200
0400
0800
1008
1FF8
0000
0000
ENDCHAR

STARTCHAR C2633
ENCODING 9779
SWIDTH 900 0
DWIDTH 16 0
BBX 16 16 0 -2
BITMAP
0000
3FF8
2108
0100
0100
0100
0100
0100
0100
0100
0100
0100
0100
0380
0000
0000
ENDCHAR

STARTCHAR C2634
ENCODING 9780
SWIDTH 900 0
DWIDTH 16 0
BBX 16 16 0 -2
BITMAP
0000
1830
2448
0280
0280
0100
0100
0100
0100
0100
0100
0100
0100
0380
0000
0000
ENDCHAR

STARTCHAR C2635
ENCODING 9781
SWIDTH 900 0
DWIDTH 16 0
BBX 16 16 0 -2
BITMAP
0000
0380
0100
0FE0
1110
2108
2108
2108
2108
2108
1110
0FE0
0100
0380
0000
0000
ENDCHAR

STARTCHAR C2636
ENCODING 9782
SWIDTH 900 0
DWIDTH 16 0
BBX 16 16 0 -2
BITMAP
0000
701C
2008
1010
0820
0440
0280
0100
0280
0440
0820
1010
2008
701C
0000
0000
ENDCHAR

STARTCHAR C2637
ENCODING 9783
SWIDTH 900 0
DWIDTH 16 0
BBX 16 16 0 -2
BITMAP
0000
0380
0100
610C
2108
2108
1110
1110
1110
0920
07C0
0100
0100
0380
0000
0000
ENDCHAR

STARTCHAR C2638
ENCODING 9784
SWIDTH 900 0
DWIDTH 16 0
BBX 16 16 0 -2
BITMAP
0000
07C0
1830
2008
2008
2008
2008
2008
2008
2008
1830
0440
2448
3C78
0000
0000
ENDCHAR

STARTCHAR C2639
ENCODING 9785
SWIDTH 900 0
DWIDTH 16 0
BBX 16 16 0 -2
BITMAP
0000
0000
0000
0000
0000
0000
0000
0000
0000
0000
0000
0000
0000
0000
0000
0000
ENDCHAR

STARTCHAR C263a
ENCODING 9786
SWIDTH 900 0
DWIDTH 16 0
BBX 16 16 0 -2
BITMAP
0000
0000
0000
0000
0000
0000
0000
0000
0000
0000
0000
0000
0000
0000
0000
0000
ENDCHAR

STARTCHAR C263b
ENCODING 9787
SWIDTH 900 0
DWIDTH 16 0
BBX 16 16 0 -2
BITMAP
0000
0000
0000
0000
0000
0000
0000
0000
0000
0000
0000
0000
0000
0000
0000
0000
ENDCHAR

STARTCHAR C263c
ENCODING 9788
SWIDTH 900 0
DWIDTH 16 0
BBX 16 16 0 -2
BITMAP
0000
0000
0000
0000
0000
0000
0000
0000
0000
0000
0000
0000
0000
0000
0000
0000
ENDCHAR

STARTCHAR C263d
ENCODING 9789
SWIDTH 900 0
DWIDTH 16 0
BBX 16 16 0 -2
BITMAP
0000
0000
0000
0000
0000
0000
0000
0000
0000
0000
0000
0000
0000
0000
0000
0000
ENDCHAR

STARTCHAR C263e
ENCODING 9790
SWIDTH 900 0
DWIDTH 16 0
BBX 16 16 0 -2
BITMAP
0000
0000
0000
0000
0000
0000
0000
0000
0000
0000
0000
0000
0000
0000
0000
0000
ENDCHAR

STARTCHAR C263f
ENCODING 9791
SWIDTH 900 0
DWIDTH 16 0
BBX 16 16 0 -2
BITMAP
0000
0000
0000
0000
0000
0000
0000
0000
0000
0000
0000
0000
0000
0000
0000
0000
ENDCHAR

STARTCHAR C2640
ENCODING 9792
SWIDTH 900 0
DWIDTH 16 0
BBX 16 16 0 -2
BITMAP
0000
0000
0000
0000
0000
0000
0000
0000
0000
0000
0000
0000
0000
0000
0000
0000
ENDCHAR

STARTCHAR C2641
ENCODING 9793
SWIDTH 900 0
DWIDTH 16 0
BBX 16 16 0 -2
BITMAP
0000
0000
0000
0000
0000
0380
0450
0450
0420
0820
0840
0840
08A0
0710
0000
0000
ENDCHAR

STARTCHAR C2642
ENCODING 9794
SWIDTH 900 0
DWIDTH 16 0
BBX 16 16 0 -2
BITMAP
0000
01C0
0220
0220
0420
0440
0580
0440
0440
0840
0840
0C80
0B00
0800
0800
0800
ENDCHAR

STARTCHAR C2643
ENCODING 9795
SWIDTH 900 0
DWIDTH 16 0
BBX 16 16 0 -2
BITMAP
0000
0000
0000
0000
0000
0420
0A40
0280
0100
0100
0200
0200
0200
0400
0400
0400
ENDCHAR

STARTCHAR C2644
ENCODING 9796
SWIDTH 900 0
DWIDTH 16 0
BBX 16 16 0 -2
BITMAP
0000
0380
0440
0420
0200
0100
0380
0440
0420
0820
0820
0840
0440
0380
0000
0000
ENDCHAR

STARTCHAR C2645
ENCODING 9797
SWIDTH 900 0
DWIDTH 16 0
BBX 16 16 0 -2
BITMAP
0000
0000
0000
0000
0000
01C0
0220
0400
0400
0380
0400
0800
0840
0780
0000
0000
ENDCHAR

STARTCHAR C2646
ENCODING 9798
SWIDTH 900 0
DWIDTH 16 0
BBX 16 16 0 -2
BITMAP
0000
0220
0440
0380
0100
0200
0200
0400
0400
0800
0800
0600
0180
0040
0040
0780
ENDCHAR

STARTCHAR C2647
ENCODING 9799
SWIDTH 900 0
DWIDTH 16 0
BBX 16 16 0 -2
BITMAP
0000
0000
0000
0000
0000
0DC0
0620
0420
0420
0420
0840
0840
0840
0840
0080
0080
ENDCHAR

STARTCHAR C2648
ENCODING 9800
SWIDTH 900 0
DWIDTH 16 0
BBX 16 16 0 -2
BITMAP
0000
01C0
0220
0220
0420
0420
0420
07C0
0840
0840
0840
0880
0880
0700
0000
0000
ENDCHAR

STARTCHAR C2649
ENCODING 9801
SWIDTH 900 0
DWIDTH 16 0
BBX 16 16 0 -2
BITMAP
0000
0000
0000
0000
0000
0100
0100
0100
0200
0200
0200
0400
0440
0380
0000
0000
ENDCHAR

STARTCHAR C264a
ENCODING 9802
SWIDTH 900 0
DWIDTH 16 0
BBX 16 16 0 -2
BITMAP
0000
0000
0000
0000
0000
0460
0480
0480
0500
0600
0900
0880
08A0
0840
0000
0000
ENDCHAR

STARTCHAR C264b
ENCODING 9803
SWIDTH 900 0
DWIDTH 16 0
BBX 16 16 0 -2
BITMAP
0000
0600
0100
0100
0080
0080
0080
0140
0140
0240
0220
0420
0420
0810
0000
0000
ENDCHAR

STARTCHAR C264c
ENCODING 9804
SWIDTH 900 0
DWIDTH 16 0
BBX 16 16 0 -2
BITMAP
0000
0000
0000
0000
0000
0220
0220
0220
0220
0440
0440
0440
04C0
0B20
0800
0800
ENDCHAR

STARTCHAR C264d
ENCODING 9805
SWIDTH 900 0
DWIDTH 16 0
BBX 16 16 0 -2
BITMAP
0000
0000
0000
0000
0000
0C20
0420
0420
0420
0440
0840
0880
0B00
0C00
0000
0000
ENDCHAR

STARTCHAR C264e
ENCODING 9806
SWIDTH 900 0
DWIDTH 16 0
BBX 16 16 0 -2
BITMAP
0000
0100
0260
0180
0200
0200
0100
00C0
0300
0400
0800
0800
0700
0080
0080
0700
ENDCHAR

STARTCHAR C264f
ENCODING 9807
SWIDTH 900 0
DWIDTH 16 0
BBX 16 16 0 -2
BITMAP
0000
0000
0000
0000
0000
01C0
0220
0420
0420
0440
0840
0840
0880
0700
0000
0000
ENDCHAR

STARTCHAR C2650
ENCODING 9808
SWIDTH 900 0
DWIDTH 16 0
BBX 16 16 0 -2
BITMAP
0000
0000
0000
0000
0000
0FF0
0240
0240
0240
0240
0480
0480
0480
0860
0000
0000
ENDCHAR

STARTCHAR C2651
ENCODING 9809
SWIDTH 900 0
DWIDTH 16 0
BBX 16 16 0 -2
BITMAP
0000
0000
0000
0000
0000
01C0
0220
0220
0420
0420
0420
0440
0A40
0980
0800
0800
ENDCHAR

STARTCHAR C2652
ENCODING 9810
SWIDTH 900 0
DWIDTH 16 0
BBX 16 16 0 -2
BITMAP
0000
0000
0000
0000
0000
01F0
0240
0420
0420
0440
0840
0840
0880
0700
0000
0000
ENDCHAR

STARTCHAR C2653
ENCODING 9811
SWIDTH 900 0
DWIDTH 16 0
BBX 16 16 0 -2
BITMAP
0000
0000
0000
0000
0000
0FE0
0100
0100
0200
0200
0200
0400
0480
0300
0000
0000
ENDCHAR

STARTCHAR C2654
ENCODING 9812
SWIDTH 900 0
DWIDTH 16 0
BBX 16 16 0 -2
BITMAP
0000
0000
0000
0000
0000
0C40
0420
0420
0420
0820
0820
0820
0440
0380
0000
0000
ENDCHAR

STARTCHAR C2655
ENCODING 9813
SWIDTH 900 0
DWIDTH 16 0
BBX 16 16 0 -2
BITMAP
0000
0020
0020
0040
0040
03C0
04A0
0890
0910
1110
1120
1220
0A40
0780
0400
0400
ENDCHAR

STARTCHAR C2656
ENCODING 9814
SWIDTH 900 0
DWIDTH 16 0
BBX 16 16 0 -2
BITMAP
0000
0000
0000
0000
0000
0C20
0220
0240
0280
0180
0100
0300
0280
0480
0880
0860
ENDCHAR

STARTCHAR C2657
ENCODING 9815
SWIDTH 900 0
DWIDTH 16 0
BBX 16 16 0 -2
BITMAP
0000
0080
0080
0080
0080
18A0
0910
0910
1110
1110
1120
1220
0A40
0780
0200
0200
ENDCHAR

STARTCHAR C2658
ENCODING 9816
SWIDTH 900 0
DWIDTH 16 0
BBX 16 16 0 -2
BITMAP
0000
0000
0000
0000
0000
0810
1008
1008
1008
2108
2108
2290
1290
0C60
0000
0000
ENDCHAR

STARTCHAR C2659
ENCODING 9817
SWIDTH 900 0
DWIDTH 16 0
BBX 16 16 0 -2
BITMAP
0000
0000
0000
0000
0000
0000
0000
0000
0000
0000
0000
0000
0000
0000
0000
0000
ENDCHAR

STARTCHAR C265a
ENCODING 9818
SWIDTH 900 0
DWIDTH 16 0
BBX 16 16 0 -2
BITMAP
0000
0000
0000
0000
0000
0000
0000
0000
0000
0000
0000
0000
0000
0000
0000
0000
ENDCHAR

STARTCHAR C265b
ENCODING 9819
SWIDTH 900 0
DWIDTH 16 0
BBX 16 16 0 -2
BITMAP
0000
0000
0000
0000
0000
0000
0000
0000
0000
0000
0000
0000
0000
0000
0000
0000
ENDCHAR

STARTCHAR C265c
ENCODING 9820
SWIDTH 900 0
DWIDTH 16 0
BBX 16 16 0 -2
BITMAP
0000
0000
0000
0000
0000
0000
0000
0000
0000
0000
0000
0000
0000
0000
0000
0000
ENDCHAR

STARTCHAR C265d
ENCODING 9821
SWIDTH 900 0
DWIDTH 16 0
BBX 16 16 0 -2
BITMAP
0000
0000
0000
0000
0000
0000
0000
0000
0000
0000
0000
0000
0000
0000
0000
0000
ENDCHAR

STARTCHAR C265e
ENCODING 9822
SWIDTH 900 0
DWIDTH 16 0
BBX 16 16 0 -2
BITMAP
0000
0000
0000
0000
0000
0000
0000
0000
0000
0000
0000
0000
0000
0000
0000
0000
ENDCHAR

STARTCHAR C265f
ENCODING 9823
SWIDTH 900 0
DWIDTH 16 0
BBX 16 16 0 -2
BITMAP
0000
0000
0000
0000
0000
0000
0000
0000
0000
0000
0000
0000
0000
0000
0000
0000
ENDCHAR

STARTCHAR C2660
ENCODING 9824
SWIDTH 900 0
DWIDTH 16 0
BBX 16 16 0 -2
BITMAP
0000
0000
0000
0000
0000
0000
0000
0000
0000
0000
0000
0000
0000
0000
0000
0000
ENDCHAR

STARTCHAR C2661
ENCODING 9825
SWIDTH 900 0
DWIDTH 16 0
BBX 16 16 0 -2
BITMAP
0000
0000
0000
0000
0000
0000
0000
0000
0000
0000
0000
0000
0000
0000
0000
0000
ENDCHAR

STARTCHAR C2662
ENCODING 9826
SWIDTH 900 0
DWIDTH 16 0
BBX 16 16 0 -2
BITMAP
0000
0000
0000
0000
0000
0000
0000
0000
0000
0000
0000
0000
0000
0000
0000
0000
ENDCHAR

STARTCHAR C2663
ENCODING 9827
SWIDTH 900 0
DWIDTH 16 0
BBX 16 16 0 -2
BITMAP
0000
0000
0000
0000
0000
0000
0000
0000
0000
0000
0000
0000
0000
0000
0000
0000
ENDCHAR

STARTCHAR C2664
ENCODING 9828
SWIDTH 900 0
DWIDTH 16 0
BBX 16 16 0 -2
BITMAP
0000
0000
0000
0000
0000
0000
0000
0000
0000
0000
0000
0000
0000
0000
0000
0000
ENDCHAR

STARTCHAR C2665
ENCODING 9829
SWIDTH 900 0
DWIDTH 16 0
BBX 16 16 0 -2
BITMAP
0000
0000
0000
0000
0000
0000
0000
0000
0000
0000
0000
0000
0000
0000
0000
0000
ENDCHAR

STARTCHAR C2666
ENCODING 9830
SWIDTH 900 0
DWIDTH 16 0
BBX 16 16 0 -2
BITMAP
0000
0000
0000
0000
0000
0000
0000
0000
0000
0000
0000
0000
0000
0000
0000
0000
ENDCHAR

STARTCHAR C2667
ENCODING 9831
SWIDTH 900 0
DWIDTH 16 0
BBX 16 16 0 -2
BITMAP
0000
0000
0000
0000
0000
0000
0000
0000
0000
0000
0000
0000
0000
0000
0000
0000
ENDCHAR

STARTCHAR C2668
ENCODING 9832
SWIDTH 900 0
DWIDTH 16 0
BBX 16 16 0 -2
BITMAP
0000
0000
0000
0000
0000
0000
0000
0000
0000
0000
0000
0000
0000
0000
0000
0000
ENDCHAR

STARTCHAR C2669
ENCODING 9833
SWIDTH 900 0
DWIDTH 16 0
BBX 16 16 0 -2
BITMAP
0000
0000
0000
0000
0000
0000
0000
0000
0000
0000
0000
0000
0000
0000
0000
0000
ENDCHAR

STARTCHAR C266a
ENCODING 9834
SWIDTH 900 0
DWIDTH 16 0
BBX 16 16 0 -2
BITMAP
0000
0000
0000
0000
0000
0000
0000
0000
0000
0000
0000
0000
0000
0000
0000
0000
ENDCHAR

STARTCHAR C266b
ENCODING 9835
SWIDTH 900 0
DWIDTH 16 0
BBX 16 16 0 -2
BITMAP
0000
0000
0000
0000
0000
0000
0000
0000
0000
0000
0000
0000
0000
0000
0000
0000
ENDCHAR

STARTCHAR C266c
ENCODING 9836
SWIDTH 900 0
DWIDTH 16 0
BBX 16 16 0 -2
BITMAP
0000
0000
0000
0000
0000
0000
0000
0000
0000
0000
0000
0000
0000
0000
0000
0000
ENDCHAR

STARTCHAR C266d
ENCODING 9837
SWIDTH 900 0
DWIDTH 16 0
BBX 16 16 0 -2
BITMAP
0000
0000
0000
0000
0000
0000
0000
0000
0000
0000
0000
0000
0000
0000
0000
0000
ENDCHAR

STARTCHAR C266e
ENCODING 9838
SWIDTH 900 0
DWIDTH 16 0
BBX 16 16 0 -2
BITMAP
0000
0000
0000
0000
0000
0000
0000
0000
0000
0000
0000
0000
0000
0000
0000
0000
ENDCHAR

STARTCHAR C266f
ENCODING 9839
SWIDTH 900 0
DWIDTH 16 0
BBX 16 16 0 -2
BITMAP
0000
0000
0000
0000
0000
0000
0000
0000
0000
0000
0000
0000
0000
0000
0000
0000
ENDCHAR

STARTCHAR C2670
ENCODING 9840
SWIDTH 900 0
DWIDTH 16 0
BBX 16 16 0 -2
BITMAP
0000
0000
0000
0000
0000
0000
0000
0000
0000
0000
0000
0000
0000
0000
0000
0000
ENDCHAR

STARTCHAR C2671
ENCODING 9841
SWIDTH 900 0
DWIDTH 16 0
BBX 16 16 0 -2
BITMAP
0000
0000
0000
0000
0000
0000
0000
0000
0000
0000
0000
0000
0000
0000
0000
0000
ENDCHAR

STARTCHAR C2672
ENCODING 9842
SWIDTH 900 0
DWIDTH 16 0
BBX 16 16 0 -2
BITMAP
0000
0000
0000
0000
0000
0000
0000
0000
0000
0000
0000
0000
0000
0000
0000
0000
ENDCHAR

STARTCHAR C2673
ENCODING 9843
SWIDTH 900 0
DWIDTH 16 0
BBX 16 16 0 -2
BITMAP
0000
0000
0000
0000
0000
0000
0000
0000
0000
0000
0000
0000
0000
0000
0000
0000
ENDCHAR

STARTCHAR C2674
ENCODING 9844
SWIDTH 900 0
DWIDTH 16 0
BBX 16 16 0 -2
BITMAP
0000
0000
0000
0000
0000
0000
0000
0000
0000
0000
0000
0000
0000
0000
0000
0000
ENDCHAR

STARTCHAR C2675
ENCODING 9845
SWIDTH 900 0
DWIDTH 16 0
BBX 16 16 0 -2
BITMAP
0000
0000
0000
0000
0000
0000
0000
0000
0000
0000
0000
0000
0000
0000
0000
0000
ENDCHAR

STARTCHAR C2676
ENCODING 9846
SWIDTH 900 0
DWIDTH 16 0
BBX 16 16 0 -2
BITMAP
0000
0000
0000
0000
0000
0000
0000
0000
0000
0000
0000
0000
0000
0000
0000
0000
ENDCHAR

STARTCHAR C2677
ENCODING 9847
SWIDTH 900 0
DWIDTH 16 0
BBX 16 16 0 -2
BITMAP
0000
0000
0000
0000
0000
0000
0000
0000
0000
0000
0000
0000
0000
0000
0000
0000
ENDCHAR

STARTCHAR C2678
ENCODING 9848
SWIDTH 900 0
DWIDTH 16 0
BBX 16 16 0 -2
BITMAP
0000
0000
0000
0000
0000
0000
0000
0000
0000
0000
0000
0000
0000
0000
0000
0000
ENDCHAR

STARTCHAR C2679
ENCODING 9849
SWIDTH 900 0
DWIDTH 16 0
BBX 16 16 0 -2
BITMAP
0000
0000
0000
0000
0000
0000
0000
0000
0000
0000
0000
0000
0000
0000
0000
0000
ENDCHAR

STARTCHAR C267a
ENCODING 9850
SWIDTH 900 0
DWIDTH 16 0
BBX 16 16 0 -2
BITMAP
0000
0000
0000
0000
0000
0000
0000
0000
0000
0000
0000
0000
0000
0000
0000
0000
ENDCHAR

STARTCHAR C267b
ENCODING 9851
SWIDTH 900 0
DWIDTH 16 0
BBX 16 16 0 -2
BITMAP
0000
0000
0000
0000
0000
0000
0000
0000
0000
0000
0000
0000
0000
0000
0000
0000
ENDCHAR

STARTCHAR C267c
ENCODING 9852
SWIDTH 900 0
DWIDTH 16 0
BBX 16 16 0 -2
BITMAP
0000
0000
0000
0000
0000
0000
0000
0000
0000
0000
0000
0000
0000
0000
0000
0000
ENDCHAR

STARTCHAR C267d
ENCODING 9853
SWIDTH 900 0
DWIDTH 16 0
BBX 16 16 0 -2
BITMAP
0000
0000
0000
0000
0000
0000
0000
0000
0000
0000
0000
0000
0000
0000
0000
0000
ENDCHAR

STARTCHAR C267e
ENCODING 9854
SWIDTH 900 0
DWIDTH 16 0
BBX 16 16 0 -2
BITMAP
0000
0000
0000
0000
0000
0000
0000
0000
0000
0000
0000
0000
0000
0000
0000
0000
ENDCHAR

STARTCHAR C2721
ENCODING 10017
SWIDTH 900 0
DWIDTH 16 0
BBX 16 16 0 -2
BITMAP
0000
0100
0100
0280
0280
0280
0440
0440
0820
0FE0
0820
1010
1010
3838
0000
0000
ENDCHAR

STARTCHAR C2722
ENCODING 10018
SWIDTH 900 0
DWIDTH 16 0
BBX 16 16 0 -2
BITMAP
0000
3FF0
1010
1000
1000
1000
1FE0
1010
1008
1008
1008
1008
1010
3FE0
0000
0000
ENDCHAR

STARTCHAR C2723
ENCODING 10019
SWIDTH 900 0
DWIDTH 16 0
BBX 16 16 0 -2
BITMAP
0000
3FC0
1020
1010
1010
1010
1020
1FE0
1010
1008
1008
1008
1010
3FE0
0000
0000
ENDCHAR

STARTCHAR C2724
ENCODING 10020
SWIDTH 900 0
DWIDTH 16 0
BBX 16 16 0 -2
BITMAP
0000
3FF8
1008
1000
1000
1000
1000
1000
1000
1000
1000
1000
1000
3800
0000
0000
ENDCHAR

STARTCHAR C2725
ENCODING 10021
SWIDTH 900 0
DWIDTH 16 0
BBX 16 16 0 -2
BITMAP
0000
0FF8
0410
0410
0410
0410
0410
0810
0810
0810
0810
1010
1010
3FF8
2008
0000
ENDCHAR

STARTCHAR C2726
ENCODING 10022
SWIDTH 900 0
DWIDTH 16 0
BBX 16 16 0 -2
BITMAP
0000
3FF8
1008
1000
1000
1000
1000
1FE0
1000
1000
1000
1000
1008
3FF8
0000
0000
ENDCHAR

STARTCHAR C2727
ENCODING 10023
SWIDTH 900 0
DWIDTH 16 0
BBX 16 16 0 -2
BITMAP
0440
0440
0000
3FF8
1008
1000
1000
1000
1FC0
1000
1000
1000
1008
3FF8
0000
0000
ENDCHAR

STARTCHAR C2728
ENCODING 10024
SWIDTH 900 0
DWIDTH 16 0
BBX 16 16 0 -2
BITMAP
0000
638C
2108
2108
1110
1110
0920
07C0
0920
0920
1110
1110
2108
739C
0000
0000
ENDCHAR

STARTCHAR C2729
ENCODING 10025
SWIDTH 900 0
DWIDTH 16 0
BBX 16 16 0 -2
BITMAP
0000
0FC0
3030
2008
0008
0008
0030
01C0
0030
0008
0008
2008
3030
0FC0
0000
0000
ENDCHAR

STARTCHAR C272a
ENCODING 10026
SWIDTH 900 0
DWIDTH 16 0
BBX 16 16 0 -2
BITMAP
0000
3838
1010
1030
1050
1090
1090
1110
1210
1210
1410
1810
1010
3838
0000
0000
ENDCHAR

STARTCHAR C272b
ENCODING 10027
SWIDTH 900 0
DWIDTH 16 0
BBX 16 16 0 -2
BITMAP
0440
0440
0380
3838
1010
1030
1050
1090
1110
1210
1410
1810
1010
3838
0000
0000
ENDCHAR

STARTCHAR C272c
ENCODING 10028
SWIDTH 900 0
DWIDTH 16 0
BBX 16 16 0 -2
BITMAP
0000
3830
1040
1040
1080
1080
1100
1E00
1100
1080
1040
1020
1010
3838
0000
0000
ENDCHAR

STARTCHAR C272d
ENCODING 10029
SWIDTH 900 0
DWIDTH 16 0
BBX 16 16 0 -2
BITMAP
0000
07F8
0210
0210
0210
0210
0210
0210
0210
0210
0210
2410
2410
1838
0000
0000
ENDCHAR

STARTCHAR C272e
ENCODING 10030
SWIDTH 900 0
DWIDTH 16 0
BBX 16 16 0 -2
BITMAP
0000
3018
1010
1830
1830
1450
1450
1290
1290
2108
2108
2008
2008
701C
0000
0000
ENDCHAR

STARTCHAR C272f
ENCODING 10031
SWIDTH 900 0
DWIDTH 16 0
BBX 16 16 0 -2
BITMAP
0000
3838
1010
1010
1010
1010
1FF0
1010
1010
1010
1010
1010
1010
3838
0000
0000
ENDCHAR

STARTCHAR C2730
ENCODING 10032
SWIDTH 900 0
DWIDTH 16 0
BBX 16 16 0 -2
BITMAP
0000
07C0
1830
2008
2008
2008
2008
2008
2008
2008
2008
2008
1830
07C0
0000
0000
ENDCHAR

STARTCHAR C2731
ENCODING 10033
SWIDTH 900 0
DWIDTH 16 0
BBX 16 16 0 -2
BITMAP
0000
3FF8
1010
1010
1010
1010
1010
1010
1010
1010
1010
1010
1010
3838
0000
0000
ENDCHAR

STARTCHAR C2732
ENCODING 10034
SWIDTH 900 0
DWIDTH 16 0
BBX 16 16 0 -2
BITMAP
0000
1FE0
0810
0808
0808
0808
0808
0810
0FE0
0800
0800
0800
0800
1C00
0000
0000
ENDCHAR

STARTCHAR C2733
ENCODING 10035
SWIDTH 900 0
DWIDTH 16 0
BBX 16 16 0 -2
BITMAP
0000
07E0
0810
1008
1000
1000
1000
1000
1000
1000
1008
1008
0810
07E0
0000
0000
ENDCHAR

STARTCHAR C2734
ENCODING 10036
SWIDTH 900 0
DWIDTH 16 0
BBX 16 16 0 -2
BITMAP
0000
3FF8
2108
0100
0100
0100
0100
0100
0100
0100
0100
0100
0100
0380
0000
0000
ENDCHAR

STARTCHAR C2735
ENCODING 10037
SWIDTH 900 0
DWIDTH 16 0
BBX 16 16 0 -2
BITMAP
0000
3838
1010
1010
0820
0820
0820
0440
0440
0280
0280
0280
1100
1100
0E00
0000
ENDCHAR

STARTCHAR C2736
ENCODING 10038
SWIDTH 900 0
DWIDTH 16 0
BBX 16 16 0 -2
BITMAP
0000
0380
0100
0FE0
1110
2108
2108
2108
2108
2108
1110
0FE0
0100
0380
0000
0000
ENDCHAR

STARTCHAR C2737
ENCODING 10039
SWIDTH 900 0
DWIDTH 16 0
BBX 16 16 0 -2
BITMAP
0000
701C
2008
1010
0820
0440
0280
0100
0280
0440
0820
1010
2008
701C
0000
0000
ENDCHAR

STARTCHAR C2738
ENCODING 10040
SWIDTH 900 0
DWIDTH 16 0
BBX 16 16 0 -2
BITMAP
0000
3838
1010
1010
1010
1010
1010
1010
1010
1010
1010
1010
1010
3FF8
0008
0000
ENDCHAR

STARTCHAR C2739
ENCODING 10041
SWIDTH 900 0
DWIDTH 16 0
BBX 16 16 0 -2
BITMAP
0000
3838
1010
1010
1010
1010
1010
1010
1030
0FD0
0010
0010
0010
0038
0000
0000
ENDCHAR

STARTCHAR C273a
ENCODING 10042
SWIDTH 900 0
DWIDTH 16 0
BBX 16 16 0 -2
BITMAP
0000
739C
2108
2108
2108
2108
2108
2108
2108
2108
2108
2108
2108
7FFC
0000
0000
ENDCHAR

STARTCHAR C273b
ENCODING 10043
SWIDTH 900 0
DWIDTH 16 0
BBX 16 16 0 -2
BITMAP
0000
739C
2108
2108
2108
2108
2108
2108
2108
2108
2108
2108
2108
7FFC
0004
0000
ENDCHAR

STARTCHAR C273c
ENCODING 10044
SWIDTH 900 0
DWIDTH 16 0
BBX 16 16 0 -2
BITMAP
0000
3E00
2400
0400
0400
0400
07E0
0410
0408
0408
0408
0408
0410
0FE0
0000
0000
ENDCHAR

STARTCHAR C273d
ENCODING 10045
SWIDTH 900 0
DWIDTH 16 0
BBX 16 16 0 -2
BITMAP
0000
381C
1008
1008
1008
1008
1F08
1088
1048
1048
1048
1048
1088
3F1C
0000
0000
ENDCHAR

STARTCHAR C273e
ENCODING 10046
SWIDTH 900 0
DWIDTH 16 0
BBX 16 16 0 -2
BITMAP
0000
1C00
0800
0800
0800
0800
0FE0
0810
0808
0808
0808
0808
0810
1FE0
0000
0000
ENDCHAR

STARTCHAR C273f
ENCODING 10047
SWIDTH 900 0
DWIDTH 16 0
BBX 16 16 0 -2
BITMAP
0000
07E0
0810
1008
0008
0008
0638
01C8
0008
0008
0008
1008
1810
07E0
0000
0000
ENDCHAR

STARTCHAR C2740
ENCODING 10048
SWIDTH 900 0
DWIDTH 16 0
BBX 16 16 0 -2
BITMAP
0000
70E0
2318
2404
2404
2404
2404
3C04
2404
2404
2404
2404
2318
70E0
0000
0000
ENDCHAR

STARTCHAR C2741
ENCODING 10049
SWIDTH 900 0
DWIDTH 16 0
BBX 16 16 0 -2
BITMAP
0000
07F8
0810
1010
1010
1010
1010
0810
07F0
0210
0410
0810
1010
2038
0000
0000
ENDCHAR

STARTCHAR C2742
ENCODING 10050
SWIDTH 900 0
DWIDTH 16 0
BBX 16 16 0 -2
BITMAP
0000
0000
0000
0000
0000
0000
0000
0000
0000
0000
0000
0000
0000
0000
0000
0000
ENDCHAR

STARTCHAR C2743
ENCODING 10051
SWIDTH 900 0
DWIDTH 16 0
BBX 16 16 0 -2
BITMAP
0000
0000
0000
0000
0000
0000
0000
0000
0000
0000
0000
0000
0000
0000
0000
0000
ENDCHAR

STARTCHAR C2744
ENCODING 10052
SWIDTH 900 0
DWIDTH 16 0
BBX 16 16 0 -2
BITMAP
0000
0000
0000
0000
0000
0000
0000
0000
0000
0000
0000
0000
0000
0000
0000
0000
ENDCHAR

STARTCHAR C2745
ENCODING 10053
SWIDTH 900 0
DWIDTH 16 0
BBX 16 16 0 -2
BITMAP
0000
0000
0000
0000
0000
0000
0000
0000
0000
0000
0000
0000
0000
0000
0000
0000
ENDCHAR

STARTCHAR C2746
ENCODING 10054
SWIDTH 900 0
DWIDTH 16 0
BBX 16 16 0 -2
BITMAP
0000
0000
0000
0000
0000
0000
0000
0000
0000
0000
0000
0000
0000
0000
0000
0000
ENDCHAR

STARTCHAR C2747
ENCODING 10055
SWIDTH 900 0
DWIDTH 16 0
BBX 16 16 0 -2
BITMAP
0000
0000
0000
0000
0000
0000
0000
0000
0000
0000
0000
0000
0000
0000
0000
0000
ENDCHAR

STARTCHAR C2748
ENCODING 10056
SWIDTH 900 0
DWIDTH 16 0
BBX 16 16 0 -2
BITMAP
0000
0000
0000
0000
0000
0000
0000
0000
0000
0000
0000
0000
0000
0000
0000
0000
ENDCHAR

STARTCHAR C2749
ENCODING 10057
SWIDTH 900 0
DWIDTH 16 0
BBX 16 16 0 -2
BITMAP
0000
0000
0000
0000
0000
0000
0000
0000
0000
0000
0000
0000
0000
0000
0000
0000
ENDCHAR

STARTCHAR C274a
ENCODING 10058
SWIDTH 900 0
DWIDTH 16 0
BBX 16 16 0 -2
BITMAP
0000
0000
0000
0000
0000
0000
0000
0000
0000
0000
0000
0000
0000
0000
0000
0000
ENDCHAR

STARTCHAR C274b
ENCODING 10059
SWIDTH 900 0
DWIDTH 16 0
BBX 16 16 0 -2
BITMAP
0000
0000
0000
0000
0000
0000
0000
0000
0000
0000
0000
0000
0000
0000
0000
0000
ENDCHAR

STARTCHAR C274c
ENCODING 10060
SWIDTH 900 0
DWIDTH 16 0
BBX 16 16 0 -2
BITMAP
0000
0000
0000
0000
0000
0000
0000
0000
0000
0000
0000
0000
0000
0000
0000
0000
ENDCHAR

STARTCHAR C274d
ENCODING 10061
SWIDTH 900 0
DWIDTH 16 0
BBX 16 16 0 -2
BITMAP
0000
0000
0000
0000
0000
0000
0000
0000
0000
0000
0000
0000
0000
0000
0000
0000
ENDCHAR

STARTCHAR C274e
ENCODING 10062
SWIDTH 900 0
DWIDTH 16 0
BBX 16 16 0 -2
BITMAP
0000
0000
0000
0000
0000
0000
0000
0000
0000
0000
0000
0000
0000
0000
0000
0000
ENDCHAR

STARTCHAR C274f
ENCODING 10063
SWIDTH 900 0
DWIDTH 16 0
BBX 16 16 0 -2
BITMAP
0000
0000
0000
0000
0000
0000
0000
0000
0000
0000
0000
0000
0000
0000
0000
0000
ENDCHAR

STARTCHAR C2750
ENCODING 10064
SWIDTH 900 0
DWIDTH 16 0
BBX 16 16 0 -2
BITMAP
0000
0000
0000
0000
0000
0000
0000
0000
0000
0000
0000
0000
0000
0000
0000
0000
ENDCHAR

STARTCHAR C2751
ENCODING 10065
SWIDTH 900 0
DWIDTH 16 0
BBX 16 16 0 -2
BITMAP
0000
0000
0000
0000
0000
07C0
0820
0020
01E0
0620
0820
0820
0860
0790
0000
0000
ENDCHAR

STARTCHAR C2752
ENCODING 10066
SWIDTH 900 0
DWIDTH 16 0
BBX 16 16 0 -2
BITMAP
0000
0040
0180
0600
0800
0B80
0C40
0820
0820
0820
0820
0820
0440
0380
0000
0000
ENDCHAR

STARTCHAR C2753
ENCODING 10067
SWIDTH 900 0
DWIDTH 16 0
BBX 16 16 0 -2
BITMAP
0000
0000
0000
0000
0000
0FE0
0410
0410
0410
07E0
0410
0410
0410
0FE0
0000
0000
ENDCHAR

STARTCHAR C2754
ENCODING 10068
SWIDTH 900 0
DWIDTH 16 0
BBX 16 16 0 -2
BITMAP
0000
0000
0000
0000
0000
0FF0
0410
0400
0400
0400
0400
0400
0400
0E00
0000
0000
ENDCHAR

STARTCHAR C2755
ENCODING 10069
SWIDTH 900 0
DWIDTH 16 0
BBX 16 16 0 -2
BITMAP
0000
0000
0000
0000
0000
07F0
0220
0220
0220
0420
0420
0820
1FF0
1010
0000
0000
ENDCHAR

STARTCHAR C2756
ENCODING 10070
SWIDTH 900 0
DWIDTH 16 0
BBX 16 16 0 -2
BITMAP
0000
0000
0000
0000
0000
0380
0440
0820
0820
0FE0
0800
0800
0420
03C0
0000
0000
ENDCHAR

STARTCHAR C2757
ENCODING 10071
SWIDTH 900 0
DWIDTH 16 0
BBX 16 16 0 -2
BITMAP
0000
0000
0440
0440
0000
0380
0440
0820
0820
0FE0
0800
0800
0420
03C0
0000
0000
ENDCHAR

STARTCHAR C2758
ENCODING 10072
SWIDTH 900 0
DWIDTH 16 0
BBX 16 16 0 -2
BITMAP
0000
0000
0000
0000
0000
3398
1110
0920
0920
07C0
0540
0920
1110
3BB8
0000
0000
ENDCHAR

STARTCHAR C2759
ENCODING 10073
SWIDTH 900 0
DWIDTH 16 0
BBX 16 16 0 -2
BITMAP
0000
0000
0000
0000
0000
0780
0840
0020
0020
01C0
0020
0020
0840
0780
0000
0000
ENDCHAR

STARTCHAR C275a
ENCODING 10074
SWIDTH 900 0
DWIDTH 16 0
BBX 16 16 0 -2
BITMAP
0000
0000
0000
0000
0000
1C70
0820
0860
08A0
0920
0A20
0C20
0820
1C70
0000
0000
ENDCHAR

STARTCHAR C275b
ENCODING 10075
SWIDTH 900 0
DWIDTH 16 0
BBX 16 16 0 -2
BITMAP
0000
0440
0440
0380
0000
1C70
0820
0860
08A0
0920
0A20
0C20
0820
1C70
0000
0000
ENDCHAR

STARTCHAR C275c
ENCODING 10076
SWIDTH 900 0
DWIDTH 16 0
BBX 16 16 0 -2
BITMAP
0000
0000
0000
0000
0000
0E20
0440
0440
0480
0700
0480
0440
0420
0E70
0000
0000
ENDCHAR

STARTCHAR C275d
ENCODING 10077
SWIDTH 900 0
DWIDTH 16 0
BBX 16 16 0 -2
BITMAP
0000
0000
0000
0000
0000
03F0
0120
0120
0120
0120
0220
0220
1220
0C70
0000
0000
ENDCHAR

STARTCHAR C275e
ENCODING 10078
SWIDTH 900 0
DWIDTH 16 0
BBX 16 16 0 -2
BITMAP
0000
0000
0000
0000
0000
3838
1830
1450
1450
1290
1290
1110
1110
3838
0000
0000
ENDCHAR

STARTCHAR C275f
ENCODING 10079
SWIDTH 900 0
DWIDTH 16 0
BBX 16 16 0 -2
BITMAP
0000
0000
0000
0000
0000
1C70
0820
0820
0820
0FE0
0820
0820
0820
1C70
0000
0000
ENDCHAR

STARTCHAR C2760
ENCODING 10080
SWIDTH 900 0
DWIDTH 16 0
BBX 16 16 0 -2
BITMAP
0000
0000
0000
0000
0000
0380
0440
0820
0820
0820
0820
0820
0440
0380
0000
0000
ENDCHAR

STARTCHAR C2761
ENCODING 10081
SWIDTH 900 0
DWIDTH 16 0
BBX 16 16 0 -2
BITMAP
0000
0000
0000
0000
0000
0FF0
0420
0420
0420
0420
0420
0420
0420
0E70
0000
0000
ENDCHAR

STARTCHAR C2762
ENCODING 10082
SWIDTH 900 0
DWIDTH 16 0
BBX 16 16 0 -2
BITMAP
0000
0000
0000
0000
0000
0DC0
0620
0410
0410
0410
0410
0620
05C0
0400
0400
0E00
ENDCHAR

STARTCHAR C2763
ENCODING 10083
SWIDTH 900 0
DWIDTH 16 0
BBX 16 16 0 -2
BITMAP
0000
0000
0000
0000
0000
03C0
0420
0800
0800
0800
0800
0800
0420
03C0
0000
0000
ENDCHAR

STARTCHAR C2764
ENCODING 10084
SWIDTH 900 0
DWIDTH 16 0
BBX 16 16 0 -2
BITMAP
0000
0000
0000
0000
0000
0FE0
0920
0100
0100
0100
0100
0100
0100
0380
0000
0000
ENDCHAR

STARTCHAR C2765
ENCODING 10085
SWIDTH 900 0
DWIDTH 16 0
BBX 16 16 0 -2
BITMAP
0000
0000
0000
0000
0000
1C70
0820
0820
0440
0440
0280
0280
0100
0100
1200
0C00
ENDCHAR

STARTCHAR C2766
ENCODING 10086
SWIDTH 900 0
DWIDTH 16 0
BBX 16 16 0 -2
BITMAP
0000
0000
0000
0380
0100
0100
07C0
0920
1110
1110
1110
0920
07C0
0100
0100
0380
ENDCHAR

STARTCHAR C2767
ENCODING 10087
SWIDTH 900 0
DWIDTH 16 0
BBX 16 16 0 -2
BITMAP
0000
0000
0000
0000
0000
1C70
0820
0440
0280
0100
0280
0440
0820
1C70
0000
0000
ENDCHAR

STARTCHAR C2768
ENCODING 10088
SWIDTH 900 0
DWIDTH 16 0
BBX 16 16 0 -2
BITMAP
0000
0000
0000
0000
0000
0E70
0420
0420
0420
0420
0420
0420
0420
0FF0
0010
0000
ENDCHAR

STARTCHAR C2769
ENCODING 10089
SWIDTH 900 0
DWIDTH 16 0
BBX 16 16 0 -2
BITMAP
0000
0000
0000
0000
0000
1C70
0820
0820
0820
0860
07A0
0020
0020
0070
0000
0000
ENDCHAR

STARTCHAR C276a
ENCODING 10090
SWIDTH 900 0
DWIDTH 16 0
BBX 16 16 0 -2
BITMAP
0000
0000
0000
0000
0000
739C
2108
2108
2108
2108
2108
2108
2108
7FFC
0000
0000
ENDCHAR

STARTCHAR C276b
ENCODING 10091
SWIDTH 900 0
DWIDTH 16 0
BBX 16 16 0 -2
BITMAP
0000
0000
0000
0000
0000
739C
2108
2108
2108
2108
2108
2108
2108
7FFC
0004
0000
ENDCHAR

STARTCHAR C276c
ENCODING 10092
SWIDTH 900 0
DWIDTH 16 0
BBX 16 16 0 -2
BITMAP
0000
0000
0000
0000
0000
0E00
0A00
0200
03C0
0220
0210
0210
0220
07C0
0000
0000
ENDCHAR

STARTCHAR C276d
ENCODING 10093
SWIDTH 900 0
DWIDTH 16 0
BBX 16 16 0 -2
BITMAP
0000
0000
0000
0000
0000
1C38
0810
0810
0E10
0910
0890
0890
0910
1E38
0000
0000
ENDCHAR

STARTCHAR C276e
ENCODING 10094
SWIDTH 900 0
DWIDTH 16 0
BBX 16 16 0 -2
BITMAP
0000
0000
0000
0000
0000
0E00
0400
0400
07C0
0420
0410
0410
0420
0FC0
0000
0000
ENDCHAR

STARTCHAR C276f
ENCODING 10095
SWIDTH 900 0
DWIDTH 16 0
BBX 16 16 0 -2
BITMAP
0000
0000
0000
0000
0000
0780
0840
0020
0320
04E0
0020
0020
0840
0780
0000
0000
ENDCHAR

STARTCHAR C2770
ENCODING 10096
SWIDTH 900 0
DWIDTH 16 0
BBX 16 16 0 -2
BITMAP
0000
0000
0000
0000
0000
1C60
0890
0908
0908
0F08
0908
0908
0890
1C60
0000
0000
ENDCHAR

STARTCHAR C2771
ENCODING 10097
SWIDTH 900 0
DWIDTH 16 0
BBX 16 16 0 -2
BITMAP
0000
0000
0000
0000
0000
01F0
0220
0420
0420
0220
01E0
0220
0420
0870
0000
0000
ENDCHAR

STARTCHAR C2772
ENCODING 10098
SWIDTH 900 0
DWIDTH 16 0
BBX 16 16 0 -2
BITMAP
0000
0000
0000
0000
0000
0000
0000
0000
0000
0000
0000
0000
0000
0000
0000
0000
ENDCHAR

STARTCHAR C2773
ENCODING 10099
SWIDTH 900 0
DWIDTH 16 0
BBX 16 16 0 -2
BITMAP
0000
0000
0000
0000
0000
0000
0000
0000
0000
0000
0000
0000
0000
0000
0000
0000
ENDCHAR

STARTCHAR C2774
ENCODING 10100
SWIDTH 900 0
DWIDTH 16 0
BBX 16 16 0 -2
BITMAP
0000
0000
0000
0000
0000
0000
0000
0000
0000
0000
0000
0000
0000
0000
0000
0000
ENDCHAR

STARTCHAR C2775
ENCODING 10101
SWIDTH 900 0
DWIDTH 16 0
BBX 16 16 0 -2
BITMAP
0000
0000
0000
0000
0000
0000
0000
0000
0000
0000
0000
0000
0000
0000
0000
0000
ENDCHAR

STARTCHAR C2776
ENCODING 10102
SWIDTH 900 0
DWIDTH 16 0
BBX 16 16 0 -2
BITMAP
0000
0000
0000
0000
0000
0000
0000
0000
0000
0000
0000
0000
0000
0000
0000
0000
ENDCHAR

STARTCHAR C2777
ENCODING 10103
SWIDTH 900 0
DWIDTH 16 0
BBX 16 16 0 -2
BITMAP
0000
0000
0000
0000
0000
0000
0000
0000
0000
0000
0000
0000
0000
0000
0000
0000
ENDCHAR

STARTCHAR C2778
ENCODING 10104
SWIDTH 900 0
DWIDTH 16 0
BBX 16 16 0 -2
BITMAP
0000
0000
0000
0000
0000
0000
0000
0000
0000
0000
0000
0000
0000
0000
0000
0000
ENDCHAR

STARTCHAR C2779
ENCODING 10105
SWIDTH 900 0
DWIDTH 16 0
BBX 16 16 0 -2
BITMAP
0000
0000
0000
0000
0000
0000
0000
0000
0000
0000
0000
0000
0000
0000
0000
0000
ENDCHAR

STARTCHAR C277a
ENCODING 10106
SWIDTH 900 0
DWIDTH 16 0
BBX 16 16 0 -2
BITMAP
0000
0000
0000
0000
0000
0000
0000
0000
0000
0000
0000
0000
0000
0000
0000
0000
ENDCHAR

STARTCHAR C277b
ENCODING 10107
SWIDTH 900 0
DWIDTH 16 0
BBX 16 16 0 -2
BITMAP
0000
0000
0000
0000
0000
0000
0000
0000
0000
0000
0000
0000
0000
0000
0000
0000
ENDCHAR

STARTCHAR C277c
ENCODING 10108
SWIDTH 900 0
DWIDTH 16 0
BBX 16 16 0 -2
BITMAP
0000
0000
0000
0000
0000
0000
0000
0000
0000
0000
0000
0000
0000
0000
0000
0000
ENDCHAR

STARTCHAR C277d
ENCODING 10109
SWIDTH 900 0
DWIDTH 16 0
BBX 16 16 0 -2
BITMAP
0000
0000
0000
0000
0000
0000
0000
0000
0000
0000
0000
0000
0000
0000
0000
0000
ENDCHAR

STARTCHAR C277e
ENCODING 10110
SWIDTH 900 0
DWIDTH 16 0
BBX 16 16 0 -2
BITMAP
0000
0000
0000
0000
0000
0000
0000
0000
0000
0000
0000
0000
0000
0000
0000
0000
ENDCHAR

STARTCHAR C2821
ENCODING 10273
SWIDTH 900 0
DWIDTH 16 0
BBX 16 16 0 -2
BITMAP
0000
0000
0000
0000
0000
0000
0000
0000
FFFF
0000
0000
0000
0000
0000
0000
0000
ENDCHAR

STARTCHAR C2822
ENCODING 10274
SWIDTH 900 0
DWIDTH 16 0
BBX 16 16 0 -2
BITMAP
0100
0100
0100
0100
0100
0100
0100
0100
0100
0100
0100
0100
0100
0100
0100
0100
ENDCHAR

STARTCHAR C2823
ENCODING 10275
SWIDTH 900 0
DWIDTH 16 0
BBX 16 16 0 -2
BITMAP
0000
0000
0000
0000
0000
0000
0000
0000
01FF
0100
0100
0100
0100
0100
0100
0100
ENDCHAR

STARTCHAR C2824
ENCODING 10276
SWIDTH 900 0
DWIDTH 16 0
BBX 16 16 0 -2
BITMAP
0000
0000
0000
0000
0000
0000
0000
0000
FF00
0100
0100
0100
0100
0100
0100
0100
ENDCHAR

STARTCHAR C2825
ENCODING 10277
SWIDTH 900 0
DWIDTH 16 0
BBX 16 16 0 -2
BITMAP
0100
0100
0100
0100
0100
0100
0100
0100
FF00
0000
0000
0000
0000
0000
0000
0000
ENDCHAR

STARTCHAR C2826
ENCODING 10278
SWIDTH 900 0
DWIDTH 16 0
BBX 16 16 0 -2
BITMAP
0100
0100
0100
0100
0100
0100
0100
0100
01FF
0000
0000
0000
0000
0000
0000
0000
ENDCHAR

STARTCHAR C2827
ENCODING 10279
SWIDTH 900 0
DWIDTH 16 0
BBX 16 16 0 -2
BITMAP
0100
0100
0100
0100
0100
0100
0100
0100
01FF
0100
0100
0100
0100
0100
0100
0100
ENDCHAR

STARTCHAR C2828
ENCODING 10280
SWIDTH 900 0
DWIDTH 16 0
BBX 16 16 0 -2
BITMAP
0000
0000
0000
0000
0000
0000
0000
0000
FFFF
0100
0100
0100
0100
0100
0100
0100
ENDCHAR

STARTCHAR C2829
ENCODING 10281
SWIDTH 900 0
DWIDTH 16 0
BBX 16 16 0 -2
BITMAP
0100
0100
0100
0100
0100
0100
0100
0100
FF00
0100
0100
0100
0100
0100
0100
0100
ENDCHAR

STARTCHAR C282a
ENCODING 10282
SWIDTH 900 0
DWIDTH 16 0
BBX 16 16 0 -2
BITMAP
0100
0100
0100
0100
0100
0100
0100
0100
FFFF
0000
0000
0000
0000
0000
0000
0000
ENDCHAR

STARTCHAR C282b
ENCODING 10283
SWIDTH 900 0
DWIDTH 16 0
BBX 16 16 0 -2
BITMAP
0100
0100
0100
0100
0100
0100
0100
0100
FFFF
0100
0100
0100
0100
0100
0100
0100
ENDCHAR

STARTCHAR C282c
ENCODING 10284
SWIDTH 900 0
DWIDTH 16 0
BBX 16 16 0 -2
BITMAP
0000
0000
0000
0000
0000
0000
0000
FFFF
FFFF
0000
0000
0000
0000
0000
0000
0000
ENDCHAR

STARTCHAR C282d
ENCODING 10285
SWIDTH 900 0
DWIDTH 16 0
BBX 16 16 0 -2
BITMAP
0180
0180
0180
0180
0180
0180
0180
0180
0180
0180
0180
0180
0180
0180
0180
0180
ENDCHAR

STARTCHAR C282e
ENCODING 10286
SWIDTH 900 0
DWIDTH 16 0
BBX 16 16 0 -2
BITMAP
0000
0000
0000
0000
0000
0000
0000
01FF
01FF
0180
0180
0180
0180
0180
0180
0180
ENDCHAR

STARTCHAR C282f
ENCODING 10287
SWIDTH 900 0
DWIDTH 16 0
BBX 16 16 0 -2
BITMAP
0000
0000
0000
0000
0000
0000
0000
FF80
FF80
0180
0180
0180
0180
0180
0180
0180
ENDCHAR

STARTCHAR C2830
ENCODING 10288
SWIDTH 900 0
DWIDTH 16 0
BBX 16 16 0 -2
BITMAP
0180
0180
0180
0180
0180
0180
0180
FF80
FF80
0000
0000
0000
0000
0000
0000
0000
ENDCHAR

STARTCHAR C2831
ENCODING 10289
SWIDTH 900 0
DWIDTH 16 0
BBX 16 16 0 -2
BITMAP
0180
0180
0180
0180
0180
0180
0180
01FF
01FF
0000
0000
0000
0000
0000
0000
0000
ENDCHAR

STARTCHAR C2832
ENCODING 10290
SWIDTH 900 0
DWIDTH 16 0
BBX 16 16 0 -2
BITMAP
0180
0180
0180
0180
0180
0180
0180
01FF
01FF
0180
0180
0180
0180
0180
0180
0180
ENDCHAR

STARTCHAR C2833
ENCODING 10291
SWIDTH 900 0
DWIDTH 16 0
BBX 16 16 0 -2
BITMAP
0000
0000
0000
0000
0000
0000
0000
FFFF
FFFF
0180
0180
0180
0180
0180
0180
0180
ENDCHAR

STARTCHAR C2834
ENCODING 10292
SWIDTH 900 0
DWIDTH 16 0
BBX 16 16 0 -2
BITMAP
0180
0180
0180
0180
0180
0180
0180
FF80
FF80
0180
0180
0180
0180
0180
0180
0180
ENDCHAR

STARTCHAR C2835
ENCODING 10293
SWIDTH 900 0
DWIDTH 16 0
BBX 16 16 0 -2
BITMAP
0180
0180
0180
0180
0180
0180
0180
FFFF
FFFF
0000
0000
0000
0000
0000
0000
0000
ENDCHAR

STARTCHAR C2836
ENCODING 10294
SWIDTH 900 0
DWIDTH 16 0
BBX 16 16 0 -2
BITMAP
0180
0180
0180
0180
0180
0180
0180
FFFF
FFFF
0180
0180
0180
0180
0180
0180
0180
ENDCHAR

STARTCHAR C2837
ENCODING 10295
SWIDTH 900 0
DWIDTH 16 0
BBX 16 16 0 -2
BITMAP
0180
0180
0180
0180
0180
0180
0180
0180
01FF
0180
0180
0180
0180
0180
0180
0180
ENDCHAR

STARTCHAR C2838
ENCODING 10296
SWIDTH 900 0
DWIDTH 16 0
BBX 16 16 0 -2
BITMAP
0000
0000
0000
0000
0000
0000
0000
FFFF
FFFF
0100
0100
0100
0100
0100
0100
0100
ENDCHAR

STARTCHAR C2839
ENCODING 10297
SWIDTH 900 0
DWIDTH 16 0
BBX 16 16 0 -2
BITMAP
0180
0180
0180
0180
0180
0180
0180
0180
FF80
0180
0180
0180
0180
0180
0180
0180
ENDCHAR

STARTCHAR C283a
ENCODING 10298
SWIDTH 900 0
DWIDTH 16 0
BBX 16 16 0 -2
BITMAP
0100
0100
0100
0100
0100
0100
0100
FFFF
FFFF
0000
0000
0000
0000
0000
0000
0000
ENDCHAR

STARTCHAR C283b
ENCODING 10299
SWIDTH 900 0
DWIDTH 16 0
BBX 16 16 0 -2
BITMAP
0100
0100
0100
0100
0100
0100
0100
FFFF
FFFF
0100
0100
0100
0100
0100
0100
0100
ENDCHAR

STARTCHAR C283c
ENCODING 10300
SWIDTH 900 0
DWIDTH 16 0
BBX 16 16 0 -2
BITMAP
0100
0100
0100
0100
0100
0100
0100
01FF
01FF
0100
0100
0100
0100
0100
0100
0100
ENDCHAR

STARTCHAR C283d
ENCODING 10301
SWIDTH 900 0
DWIDTH 16 0
BBX 16 16 0 -2
BITMAP
0000
0000
0000
0000
0000
0000
0000
0000
FFFF
0180
0180
0180
0180
0180
0180
0180
ENDCHAR

STARTCHAR C283e
ENCODING 10302
SWIDTH 900 0
DWIDTH 16 0
BBX 16 16 0 -2
BITMAP
0100
0100
0100
0100
0100
0100
0100
FF00
FF00
0100
0100
0100
0100
0100
0100
0100
ENDCHAR

STARTCHAR C283f
ENCODING 10303
SWIDTH 900 0
DWIDTH 16 0
BBX 16 16 0 -2
BITMAP
0180
0180
0180
0180
0180
0180
0180
0180
FFFF
0000
0000
0000
0000
0000
0000
0000
ENDCHAR

STARTCHAR C2840
ENCODING 10304
SWIDTH 900 0
DWIDTH 16 0
BBX 16 16 0 -2
BITMAP
0180
0180
0180
0180
0180
0180
0180
0180
FFFF
0180
0180
0180
0180
0180
0180
0180
ENDCHAR

STARTCHAR C2841
ENCODING 10305
SWIDTH 900 0
DWIDTH 16 0
BBX 16 16 0 -2
BITMAP
0000
0000
0000
0000
0000
0000
0000
0000
0000
0000
0000
0000
0000
0000
0000
0000
ENDCHAR

STARTCHAR C2842
ENCODING 10306
SWIDTH 900 0
DWIDTH 16 0
BBX 16 16 0 -2
BITMAP
0000
0000
0000
0000
0000
0000
0000
0000
0000
0000
0000
0000
0000
0000
0000
0000
ENDCHAR

STARTCHAR C2843
ENCODING 10307
SWIDTH 900 0
DWIDTH 16 0
BBX 16 16 0 -2
BITMAP
0000
0000
0000
0000
0000
0000
0000
0000
0000
0000
0000
0000
0000
0000
0000
0000
ENDCHAR

STARTCHAR C2844
ENCODING 10308
SWIDTH 900 0
DWIDTH 16 0
BBX 16 16 0 -2
BITMAP
0000
0000
0000
0000
0000
0000
0000
0000
0000
0000
0000
0000
0000
0000
0000
0000
ENDCHAR

STARTCHAR C2845
ENCODING 10309
SWIDTH 900 0
DWIDTH 16 0
BBX 16 16 0 -2
BITMAP
0000
0000
0000
0000
0000
0000
0000
0000
0000
0000
0000
0000
0000
0000
0000
0000
ENDCHAR

STARTCHAR C2846
ENCODING 10310
SWIDTH 900 0
DWIDTH 16 0
BBX 16 16 0 -2
BITMAP
0000
0000
0000
0000
0000
0000
0000
0000
0000
0000
0000
0000
0000
0000
0000
0000
ENDCHAR

STARTCHAR C2847
ENCODING 10311
SWIDTH 900 0
DWIDTH 16 0
BBX 16 16 0 -2
BITMAP
0000
0000
0000
0000
0000
0000
0000
0000
0000
0000
0000
0000
0000
0000
0000
0000
ENDCHAR

STARTCHAR C2848
ENCODING 10312
SWIDTH 900 0
DWIDTH 16 0
BBX 16 16 0 -2
BITMAP
0000
0000
0000
0000
0000
0000
0000
0000
0000
0000
0000
0000
0000
0000
0000
0000
ENDCHAR

STARTCHAR C2849
ENCODING 10313
SWIDTH 900 0
DWIDTH 16 0
BBX 16 16 0 -2
BITMAP
0000
0000
0000
0000
0000
0000
0000
0000
0000
0000
0000
0000
0000
0000
0000
0000
ENDCHAR

STARTCHAR C284a
ENCODING 10314
SWIDTH 900 0
DWIDTH 16 0
BBX 16 16 0 -2
BITMAP
0000
0000
0000
0000
0000
0000
0000
0000
0000
0000
0000
0000
0000
0000
0000
0000
ENDCHAR

STARTCHAR C284b
ENCODING 10315
SWIDTH 900 0
DWIDTH 16 0
BBX 16 16 0 -2
BITMAP
0000
0000
0000
0000
0000
0000
0000
0000
0000
0000
0000
0000
0000
0000
0000
0000
ENDCHAR

STARTCHAR C284c
ENCODING 10316
SWIDTH 900 0
DWIDTH 16 0
BBX 16 16 0 -2
BITMAP
0000
0000
0000
0000
0000
0000
0000
0000
0000
0000
0000
0000
0000
0000
0000
0000
ENDCHAR

STARTCHAR C284d
ENCODING 10317
SWIDTH 900 0
DWIDTH 16 0
BBX 16 16 0 -2
BITMAP
0000
0000
0000
0000
0000
0000
0000
0000
0000
0000
0000
0000
0000
0000
0000
0000
ENDCHAR

STARTCHAR C284e
ENCODING 10318
SWIDTH 900 0
DWIDTH 16 0
BBX 16 16 0 -2
BITMAP
0000
0000
0000
0000
0000
0000
0000
0000
0000
0000
0000
0000
0000
0000
0000
0000
ENDCHAR

STARTCHAR C284f
ENCODING 10319
SWIDTH 900 0
DWIDTH 16 0
BBX 16 16 0 -2
BITMAP
0000
0000
0000
0000
0000
0000
0000
0000
0000
0000
0000
0000
0000
0000
0000
0000
ENDCHAR

STARTCHAR C2850
ENCODING 10320
SWIDTH 900 0
DWIDTH 16 0
BBX 16 16 0 -2
BITMAP
0000
0000
0000
0000
0000
0000
0000
0000
0000
0000
0000
0000
0000
0000
0000
0000
ENDCHAR

STARTCHAR C2851
ENCODING 10321
SWIDTH 900 0
DWIDTH 16 0
BBX 16 16 0 -2
BITMAP
0000
0000
0000
0000
0000
0000
0000
0000
0000
0000
0000
0000
0000
0000
0000
0000
ENDCHAR

STARTCHAR C2852
ENCODING 10322
SWIDTH 900 0
DWIDTH 16 0
BBX 16 16 0 -2
BITMAP
0000
0000
0000
0000
0000
0000
0000
0000
0000
0000
0000
0000
0000
0000
0000
0000
ENDCHAR

STARTCHAR C2853
ENCODING 10323
SWIDTH 900 0
DWIDTH 16 0
BBX 16 16 0 -2
BITMAP
0000
0000
0000
0000
0000
0000
0000
0000
0000
0000
0000
0000
0000
0000
0000
0000
ENDCHAR

STARTCHAR C2854
ENCODING 10324
SWIDTH 900 0
DWIDTH 16 0
BBX 16 16 0 -2
BITMAP
0000
0000
0000
0000
0000
0000
0000
0000
0000
0000
0000
0000
0000
0000
0000
0000
ENDCHAR

STARTCHAR C2855
ENCODING 10325
SWIDTH 900 0
DWIDTH 16 0
BBX 16 16 0 -2
BITMAP
0000
0000
0000
0000
0000
0000
0000
0000
0000
0000
0000
0000
0000
0000
0000
0000
ENDCHAR

STARTCHAR C2856
ENCODING 10326
SWIDTH 900 0
DWIDTH 16 0
BBX 16 16 0 -2
BITMAP
0000
0000
0000
0000
0000
0000
0000
0000
0000
0000
0000
0000
0000
0000
0000
0000
ENDCHAR

STARTCHAR C2857
ENCODING 10327
SWIDTH 900 0
DWIDTH 16 0
BBX 16 16 0 -2
BITMAP
0000
0000
0000
0000
0000
0000
0000
0000
0000
0000
0000
0000
0000
0000
0000
0000
ENDCHAR

STARTCHAR C2858
ENCODING 10328
SWIDTH 900 0
DWIDTH 16 0
BBX 16 16 0 -2
BITMAP
0000
0000
0000
0000
0000
0000
0000
0000
0000
0000
0000
0000
0000
0000
0000
0000
ENDCHAR

STARTCHAR C2859
ENCODING 10329
SWIDTH 900 0
DWIDTH 16 0
BBX 16 16 0 -2
BITMAP
0000
0000
0000
0000
0000
0000
0000
0000
0000
0000
0000
0000
0000
0000
0000
0000
ENDCHAR

STARTCHAR C285a
ENCODING 10330
SWIDTH 900 0
DWIDTH 16 0
BBX 16 16 0 -2
BITMAP
0000
0000
0000
0000
0000
0000
0000
0000
0000
0000
0000
0000
0000
0000
0000
0000
ENDCHAR

STARTCHAR C285b
ENCODING 10331
SWIDTH 900 0
DWIDTH 16 0
BBX 16 16 0 -2
BITMAP
0000
0000
0000
0000
0000
0000
0000
0000
0000
0000
0000
0000
0000
0000
0000
0000
ENDCHAR

STARTCHAR C285c
ENCODING 10332
SWIDTH 900 0
DWIDTH 16 0
BBX 16 16 0 -2
BITMAP
0000
0000
0000
0000
0000
0000
0000
0000
0000
0000
0000
0000
0000
0000
0000
0000
ENDCHAR

STARTCHAR C285d
ENCODING 10333
SWIDTH 900 0
DWIDTH 16 0
BBX 16 16 0 -2
BITMAP
0000
0000
0000
0000
0000
0000
0000
0000
0000
0000
0000
0000
0000
0000
0000
0000
ENDCHAR

STARTCHAR C285e
ENCODING 10334
SWIDTH 900 0
DWIDTH 16 0
BBX 16 16 0 -2
BITMAP
0000
0000
0000
0000
0000
0000
0000
0000
0000
0000
0000
0000
0000
0000
0000
0000
ENDCHAR

STARTCHAR C285f
ENCODING 10335
SWIDTH 900 0
DWIDTH 16 0
BBX 16 16 0 -2
BITMAP
0000
0000
0000
0000
0000
0000
0000
0000
0000
0000
0000
0000
0000
0000
0000
0000
ENDCHAR

STARTCHAR C2860
ENCODING 10336
SWIDTH 900 0
DWIDTH 16 0
BBX 16 16 0 -2
BITMAP
0000
0000
0000
0000
0000
0000
0000
0000
0000
0000
0000
0000
0000
0000
0000
0000
ENDCHAR

STARTCHAR C2861
ENCODING 10337
SWIDTH 900 0
DWIDTH 16 0
BBX 16 16 0 -2
BITMAP
0000
0000
0000
0000
0000
0000
0000
0000
0000
0000
0000
0000
0000
0000
0000
0000
ENDCHAR

STARTCHAR C2862
ENCODING 10338
SWIDTH 900 0
DWIDTH 16 0
BBX 16 16 0 -2
BITMAP
0000
0000
0000
0000
0000
0000
0000
0000
0000
0000
0000
0000
0000
0000
0000
0000
ENDCHAR

STARTCHAR C2863
ENCODING 10339
SWIDTH 900 0
DWIDTH 16 0
BBX 16 16 0 -2
BITMAP
0000
0000
0000
0000
0000
0000
0000
0000
0000
0000
0000
0000
0000
0000
0000
0000
ENDCHAR

STARTCHAR C2864
ENCODING 10340
SWIDTH 900 0
DWIDTH 16 0
BBX 16 16 0 -2
BITMAP
0000
0000
0000
0000
0000
0000
0000
0000
0000
0000
0000
0000
0000
0000
0000
0000
ENDCHAR

STARTCHAR C2865
ENCODING 10341
SWIDTH 900 0
DWIDTH 16 0
BBX 16 16 0 -2
BITMAP
0000
0000
0000
0000
0000
0000
0000
0000
0000
0000
0000
0000
0000
0000
0000
0000
ENDCHAR

STARTCHAR C2866
ENCODING 10342
SWIDTH 900 0
DWIDTH 16 0
BBX 16 16 0 -2
BITMAP
0000
0000
0000
0000
0000
0000
0000
0000
0000
0000
0000
0000
0000
0000
0000
0000
ENDCHAR

STARTCHAR C2867
ENCODING 10343
SWIDTH 900 0
DWIDTH 16 0
BBX 16 16 0 -2
BITMAP
0000
0000
0000
0000
0000
0000
0000
0000
0000
0000
0000
0000
0000
0000
0000
0000
ENDCHAR

STARTCHAR C2868
ENCODING 10344
SWIDTH 900 0
DWIDTH 16 0
BBX 16 16 0 -2
BITMAP
0000
0000
0000
0000
0000
0000
0000
0000
0000
0000
0000
0000
0000
0000
0000
0000
ENDCHAR

STARTCHAR C2869
ENCODING 10345
SWIDTH 900 0
DWIDTH 16 0
BBX 16 16 0 -2
BITMAP
0000
0000
0000
0000
0000
0000
0000
0000
0000
0000
0000
0000
0000
0000
0000
0000
ENDCHAR

STARTCHAR C286a
ENCODING 10346
SWIDTH 900 0
DWIDTH 16 0
BBX 16 16 0 -2
BITMAP
0000
0000
0000
0000
0000
0000
0000
0000
0000
0000
0000
0000
0000
0000
0000
0000
ENDCHAR

STARTCHAR C286b
ENCODING 10347
SWIDTH 900 0
DWIDTH 16 0
BBX 16 16 0 -2
BITMAP
0000
0000
0000
0000
0000
0000
0000
0000
0000
0000
0000
0000
0000
0000
0000
0000
ENDCHAR

STARTCHAR C286c
ENCODING 10348
SWIDTH 900 0
DWIDTH 16 0
BBX 16 16 0 -2
BITMAP
0000
0000
0000
0000
0000
0000
0000
0000
0000
0000
0000
0000
0000
0000
0000
0000
ENDCHAR

STARTCHAR C286d
ENCODING 10349
SWIDTH 900 0
DWIDTH 16 0
BBX 16 16 0 -2
BITMAP
0000
0000
0000
0000
0000
0000
0000
0000
0000
0000
0000
0000
0000
0000
0000
0000
ENDCHAR

STARTCHAR C286e
ENCODING 10350
SWIDTH 900 0
DWIDTH 16 0
BBX 16 16 0 -2
BITMAP
0000
0000
0000
0000
0000
0000
0000
0000
0000
0000
0000
0000
0000
0000
0000
0000
ENDCHAR

STARTCHAR C286f
ENCODING 10351
SWIDTH 900 0
DWIDTH 16 0
BBX 16 16 0 -2
BITMAP
0000
0000
0000
0000
0000
0000
0000
0000
0000
0000
0000
0000
0000
0000
0000
0000
ENDCHAR

STARTCHAR C2870
ENCODING 10352
SWIDTH 900 0
DWIDTH 16 0
BBX 16 16 0 -2
BITMAP
0000
0000
0000
0000
0000
0000
0000
0000
0000
0000
0000
0000
0000
0000
0000
0000
ENDCHAR

STARTCHAR C2871
ENCODING 10353
SWIDTH 900 0
DWIDTH 16 0
BBX 16 16 0 -2
BITMAP
0000
0000
0000
0000
0000
0000
0000
0000
0000
0000
0000
0000
0000
0000
0000
0000
ENDCHAR

STARTCHAR C2872
ENCODING 10354
SWIDTH 900 0
DWIDTH 16 0
BBX 16 16 0 -2
BITMAP
0000
0000
0000
0000
0000
0000
0000
0000
0000
0000
0000
0000
0000
0000
0000
0000
ENDCHAR

STARTCHAR C2873
ENCODING 10355
SWIDTH 900 0
DWIDTH 16 0
BBX 16 16 0 -2
BITMAP
0000
0000
0000
0000
0000
0000
0000
0000
0000
0000
0000
0000
0000
0000
0000
0000
ENDCHAR

STARTCHAR C2874
ENCODING 10356
SWIDTH 900 0
DWIDTH 16 0
BBX 16 16 0 -2
BITMAP
0000
0000
0000
0000
0000
0000
0000
0000
0000
0000
0000
0000
0000
0000
0000
0000
ENDCHAR

STARTCHAR C2875
ENCODING 10357
SWIDTH 900 0
DWIDTH 16 0
BBX 16 16 0 -2
BITMAP
0000
0000
0000
0000
0000
0000
0000
0000
0000
0000
0000
0000
0000
0000
0000
0000
ENDCHAR

STARTCHAR C2876
ENCODING 10358
SWIDTH 900 0
DWIDTH 16 0
BBX 16 16 0 -2
BITMAP
0000
0000
0000
0000
0000
0000
0000
0000
0000
0000
0000
0000
0000
0000
0000
0000
ENDCHAR

STARTCHAR C2877
ENCODING 10359
SWIDTH 900 0
DWIDTH 16 0
BBX 16 16 0 -2
BITMAP
0000
0000
0000
0000
0000
0000
0000
0000
0000
0000
0000
0000
0000
0000
0000
0000
ENDCHAR

STARTCHAR C2878
ENCODING 10360
SWIDTH 900 0
DWIDTH 16 0
BBX 16 16 0 -2
BITMAP
0000
0000
0000
0000
0000
0000
0000
0000
0000
0000
0000
0000
0000
0000
0000
0000
ENDCHAR

STARTCHAR C2879
ENCODING 10361
SWIDTH 900 0
DWIDTH 16 0
BBX 16 16 0 -2
BITMAP
0000
0000
0000
0000
0000
0000
0000
0000
0000
0000
0000
0000
0000
0000
0000
0000
ENDCHAR

STARTCHAR C287a
ENCODING 10362
SWIDTH 900 0
DWIDTH 16 0
BBX 16 16 0 -2
BITMAP
0000
0000
0000
0000
0000
0000
0000
0000
0000
0000
0000
0000
0000
0000
0000
0000
ENDCHAR

STARTCHAR C287b
ENCODING 10363
SWIDTH 900 0
DWIDTH 16 0
BBX 16 16 0 -2
BITMAP
0000
0000
0000
0000
0000
0000
0000
0000
0000
0000
0000
0000
0000
0000
0000
0000
ENDCHAR

STARTCHAR C287c
ENCODING 10364
SWIDTH 900 0
DWIDTH 16 0
BBX 16 16 0 -2
BITMAP
0000
0000
0000
0000
0000
0000
0000
0000
0000
0000
0000
0000
0000
0000
0000
0000
ENDCHAR

STARTCHAR C287d
ENCODING 10365
SWIDTH 900 0
DWIDTH 16 0
BBX 16 16 0 -2
BITMAP
0000
0000
0000
0000
0000
0000
0000
0000
0000
0000
0000
0000
0000
0000
0000
0000
ENDCHAR

STARTCHAR C287e
ENCODING 10366
SWIDTH 900 0
DWIDTH 16 0
BBX 16 16 0 -2
BITMAP
0000
0000
0000
0000
0000
0000
0000
0000
0000
0000
0000
0000
0000
0000
0000
0000
ENDCHAR

STARTCHAR C2921
ENCODING 10529
SWIDTH 900 0
DWIDTH 16 0
BBX 16 16 0 -2
BITMAP
0000
0000
0000
0000
0000
0000
0000
0000
0000
0000
0000
0000
0000
0000
0000
0000
ENDCHAR

STARTCHAR C2922
ENCODING 10530
SWIDTH 900 0
DWIDTH 16 0
BBX 16 16 0 -2
BITMAP
0000
0000
0000
0000
0000
0000
0000
0000
0000
0000
0000
0000
0000
0000
0000
0000
ENDCHAR

STARTCHAR C2923
ENCODING 10531
SWIDTH 900 0
DWIDTH 16 0
BBX 16 16 0 -2
BITMAP
0000
0000
0000
0000
0000
0000
0000
0000
0000
0000
0000
0000
0000
0000
0000
0000
ENDCHAR

STARTCHAR C2924
ENCODING 10532
SWIDTH 900 0
DWIDTH 16 0
BBX 16 16 0 -2
BITMAP
0000
0000
0000
0000
0000
0000
0000
0000
0000
0000
0000
0000
0000
0000
0000
0000
ENDCHAR

STARTCHAR C2925
ENCODING 10533
SWIDTH 900 0
DWIDTH 16 0
BBX 16 16 0 -2
BITMAP
0000
0000
0000
0000
0000
0000
0000
0000
0000
0000
0000
0000
0000
0000
0000
0000
ENDCHAR

STARTCHAR C2926
ENCODING 10534
SWIDTH 900 0
DWIDTH 16 0
BBX 16 16 0 -2
BITMAP
0000
0000
0000
0000
0000
0000
0000
0000
0000
0000
0000
0000
0000
0000
0000
0000
ENDCHAR

STARTCHAR C2927
ENCODING 10535
SWIDTH 900 0
DWIDTH 16 0
BBX 16 16 0 -2
BITMAP
0000
0000
0000
0000
0000
0000
0000
0000
0000
0000
0000
0000
0000
0000
0000
0000
ENDCHAR

STARTCHAR C2928
ENCODING 10536
SWIDTH 900 0
DWIDTH 16 0
BBX 16 16 0 -2
BITMAP
0000
0000
0000
0000
0000
0000
0000
0000
0000
0000
0000
0000
0000
0000
0000
0000
ENDCHAR

STARTCHAR C2929
ENCODING 10537
SWIDTH 900 0
DWIDTH 16 0
BBX 16 16 0 -2
BITMAP
0000
0000
0000
0000
0000
0000
0000
0000
0000
0000
0000
0000
0000
0000
0000
0000
ENDCHAR

STARTCHAR C292a
ENCODING 10538
SWIDTH 900 0
DWIDTH 16 0
BBX 16 16 0 -2
BITMAP
0000
0000
0000
0000
0000
0000
0000
0000
0000
0000
0000
0000
0000
0000
0000
0000
ENDCHAR

STARTCHAR C292b
ENCODING 10539
SWIDTH 900 0
DWIDTH 16 0
BBX 16 16 0 -2
BITMAP
0000
0000
0000
0000
0000
0000
0000
0000
0000
0000
0000
0000
0000
0000
0000
0000
ENDCHAR

STARTCHAR C292c
ENCODING 10540
SWIDTH 900 0
DWIDTH 16 0
BBX 16 16 0 -2
BITMAP
0000
0000
0000
0000
0000
0000
0000
0000
0000
0000
0000
0000
0000
0000
0000
0000
ENDCHAR

STARTCHAR C292d
ENCODING 10541
SWIDTH 900 0
DWIDTH 16 0
BBX 16 16 0 -2
BITMAP
0000
0000
0000
0000
0000
0000
0000
0000
0000
0000
0000
0000
0000
0000
0000
0000
ENDCHAR

STARTCHAR C292e
ENCODING 10542
SWIDTH 900 0
DWIDTH 16 0
BBX 16 16 0 -2
BITMAP
0000
0000
0000
0000
0000
0000
0000
0000
0000
0000
0000
0000
0000
0000
0000
0000
ENDCHAR

STARTCHAR C292f
ENCODING 10543
SWIDTH 900 0
DWIDTH 16 0
BBX 16 16 0 -2
BITMAP
0000
0000
0000
0000
0000
0000
0000
0000
0000
0000
0000
0000
0000
0000
0000
0000
ENDCHAR

STARTCHAR C2930
ENCODING 10544
SWIDTH 900 0
DWIDTH 16 0
BBX 16 16 0 -2
BITMAP
0000
0000
0000
0000
0000
0000
0000
0000
0000
0000
0000
0000
0000
0000
0000
0000
ENDCHAR

STARTCHAR C2931
ENCODING 10545
SWIDTH 900 0
DWIDTH 16 0
BBX 16 16 0 -2
BITMAP
0000
0000
0000
0000
0000
0000
0000
0000
0000
0000
0000
0000
0000
0000
0000
0000
ENDCHAR

STARTCHAR C2932
ENCODING 10546
SWIDTH 900 0
DWIDTH 16 0
BBX 16 16 0 -2
BITMAP
0000
0000
0000
0000
0000
0000
0000
0000
0000
0000
0000
0000
0000
0000
0000
0000
ENDCHAR

STARTCHAR C2933
ENCODING 10547
SWIDTH 900 0
DWIDTH 16 0
BBX 16 16 0 -2
BITMAP
0000
0000
0000
0000
0000
0000
0000
0000
0000
0000
0000
0000
0000
0000
0000
0000
ENDCHAR

STARTCHAR C2934
ENCODING 10548
SWIDTH 900 0
DWIDTH 16 0
BBX 16 16 0 -2
BITMAP
0000
0000
0000
0000
0000
0000
0000
0000
0000
0000
0000
0000
0000
0000
0000
0000
ENDCHAR

STARTCHAR C2935
ENCODING 10549
SWIDTH 900 0
DWIDTH 16 0
BBX 16 16 0 -2
BITMAP
0000
0000
0000
0000
0000
0000
0000
0000
0000
0000
0000
0000
0000
0000
0000
0000
ENDCHAR

STARTCHAR C2936
ENCODING 10550
SWIDTH 900 0
DWIDTH 16 0
BBX 16 16 0 -2
BITMAP
0000
0000
0000
0000
0000
0000
0000
0000
0000
0000
0000
0000
0000
0000
0000
0000
ENDCHAR

STARTCHAR C2937
ENCODING 10551
SWIDTH 900 0
DWIDTH 16 0
BBX 16 16 0 -2
BITMAP
0000
0000
0000
0000
0000
0000
0000
0000
0000
0000
0000
0000
0000
0000
0000
0000
ENDCHAR

STARTCHAR C2938
ENCODING 10552
SWIDTH 900 0
DWIDTH 16 0
BBX 16 16 0 -2
BITMAP
0000
0000
0000
0000
0000
0000
0000
0000
0000
0000
0000
0000
0000
0000
0000
0000
ENDCHAR

STARTCHAR C2939
ENCODING 10553
SWIDTH 900 0
DWIDTH 16 0
BBX 16 16 0 -2
BITMAP
0000
0000
0000
0000
0000
0000
0000
0000
0000
0000
0000
0000
0000
0000
0000
0000
ENDCHAR

STARTCHAR C293a
ENCODING 10554
SWIDTH 900 0
DWIDTH 16 0
BBX 16 16 0 -2
BITMAP
0000
0000
0000
0000
0000
0000
0000
0000
0000
0000
0000
0000
0000
0000
0000
0000
ENDCHAR

STARTCHAR C293b
ENCODING 10555
SWIDTH 900 0
DWIDTH 16 0
BBX 16 16 0 -2
BITMAP
0000
0000
0000
0000
0000
0000
0000
0000
0000
0000
0000
0000
0000
0000
0000
0000
ENDCHAR

STARTCHAR C293c
ENCODING 10556
SWIDTH 900 0
DWIDTH 16 0
BBX 16 16 0 -2
BITMAP
0000
0000
0000
0000
0000
0000
0000
0000
0000
0000
0000
0000
0000
0000
0000
0000
ENDCHAR

STARTCHAR C293d
ENCODING 10557
SWIDTH 900 0
DWIDTH 16 0
BBX 16 16 0 -2
BITMAP
0000
0000
0000
0000
0000
0000
0000
0000
0000
0000
0000
0000
0000
0000
0000
0000
ENDCHAR

STARTCHAR C293e
ENCODING 10558
SWIDTH 900 0
DWIDTH 16 0
BBX 16 16 0 -2
BITMAP
0000
0000
0000
0000
0000
0000
0000
0000
0000
0000
0000
0000
0000
0000
0000
0000
ENDCHAR

STARTCHAR C293f
ENCODING 10559
SWIDTH 900 0
DWIDTH 16 0
BBX 16 16 0 -2
BITMAP
0000
0000
0000
0000
0000
0000
0000
0000
0000
0000
0000
0000
0000
0000
0000
0000
ENDCHAR

STARTCHAR C2940
ENCODING 10560
SWIDTH 900 0
DWIDTH 16 0
BBX 16 16 0 -2
BITMAP
0000
0000
0000
0000
0000
0000
0000
0000
0000
0000
0000
0000
0000
0000
0000
0000
ENDCHAR

STARTCHAR C2941
ENCODING 10561
SWIDTH 900 0
DWIDTH 16 0
BBX 16 16 0 -2
BITMAP
0000
0000
0000
0000
0000
0000
0000
0000
0000
0000
0000
0000
0000
0000
0000
0000
ENDCHAR

STARTCHAR C2942
ENCODING 10562
SWIDTH 900 0
DWIDTH 16 0
BBX 16 16 0 -2
BITMAP
0000
0000
0000
0000
0000
0000
0000
0000
0000
0000
0000
0000
0000
0000
0000
0000
ENDCHAR

STARTCHAR C2943
ENCODING 10563
SWIDTH 900 0
DWIDTH 16 0
BBX 16 16 0 -2
BITMAP
0000
0000
0000
0000
0000
0000
0000
0000
0000
0000
0000
0000
0000
0000
0000
0000
ENDCHAR

STARTCHAR C2944
ENCODING 10564
SWIDTH 900 0
DWIDTH 16 0
BBX 16 16 0 -2
BITMAP
0000
0000
0000
0000
0000
0000
0000
0000
0000
0000
0000
0000
0000
0000
0000
0000
ENDCHAR

STARTCHAR C2945
ENCODING 10565
SWIDTH 900 0
DWIDTH 16 0
BBX 16 16 0 -2
BITMAP
0000
0000
0000
0000
0000
0000
0000
0000
0000
0000
0000
0000
0000
0000
0000
0000
ENDCHAR

STARTCHAR C2946
ENCODING 10566
SWIDTH 900 0
DWIDTH 16 0
BBX 16 16 0 -2
BITMAP
0000
0000
0000
0000
0000
0000
0000
0000
0000
0000
0000
0000
0000
0000
0000
0000
ENDCHAR

STARTCHAR C2947
ENCODING 10567
SWIDTH 900 0
DWIDTH 16 0
BBX 16 16 0 -2
BITMAP
0000
0000
0000
0000
0000
0000
0000
0000
0000
0000
0000
0000
0000
0000
0000
0000
ENDCHAR

STARTCHAR C2948
ENCODING 10568
SWIDTH 900 0
DWIDTH 16 0
BBX 16 16 0 -2
BITMAP
0000
0000
0000
0000
0000
0000
0000
0000
0000
0000
0000
0000
0000
0000
0000
0000
ENDCHAR

STARTCHAR C2949
ENCODING 10569
SWIDTH 900 0
DWIDTH 16 0
BBX 16 16 0 -2
BITMAP
0000
0000
0000
0000
0000
0000
0000
0000
0000
0000
0000
0000
0000
0000
0000
0000
ENDCHAR

STARTCHAR C294a
ENCODING 10570
SWIDTH 900 0
DWIDTH 16 0
BBX 16 16 0 -2
BITMAP
0000
0000
0000
0000
0000
0000
0000
0000
0000
0000
0000
0000
0000
0000
0000
0000
ENDCHAR

STARTCHAR C294b
ENCODING 10571
SWIDTH 900 0
DWIDTH 16 0
BBX 16 16 0 -2
BITMAP
0000
0000
0000
0000
0000
0000
0000
0000
0000
0000
0000
0000
0000
0000
0000
0000
ENDCHAR

STARTCHAR C294c
ENCODING 10572
SWIDTH 900 0
DWIDTH 16 0
BBX 16 16 0 -2
BITMAP
0000
0000
0000
0000
0000
0000
0000
0000
0000
0000
0000
0000
0000
0000
0000
0000
ENDCHAR

STARTCHAR C294d
ENCODING 10573
SWIDTH 900 0
DWIDTH 16 0
BBX 16 16 0 -2
BITMAP
0000
0000
0000
0000
0000
0000
0000
0000
0000
0000
0000
0000
0000
0000
0000
0000
ENDCHAR

STARTCHAR C294e
ENCODING 10574
SWIDTH 900 0
DWIDTH 16 0
BBX 16 16 0 -2
BITMAP
0000
0000
0000
0000
0000
0000
0000
0000
0000
0000
0000
0000
0000
0000
0000
0000
ENDCHAR

STARTCHAR C294f
ENCODING 10575
SWIDTH 900 0
DWIDTH 16 0
BBX 16 16 0 -2
BITMAP
0000
0000
0000
0000
0000
0000
0000
0000
0000
0000
0000
0000
0000
0000
0000
0000
ENDCHAR

STARTCHAR C2950
ENCODING 10576
SWIDTH 900 0
DWIDTH 16 0
BBX 16 16 0 -2
BITMAP
0000
0000
0000
0000
0000
0000
0000
0000
0000
0000
0000
0000
0000
0000
0000
0000
ENDCHAR

STARTCHAR C2951
ENCODING 10577
SWIDTH 900 0
DWIDTH 16 0
BBX 16 16 0 -2
BITMAP
0000
0000
0000
0000
0000
0000
0000
0000
0000
0000
0000
0000
0000
0000
0000
0000
ENDCHAR

STARTCHAR C2952
ENCODING 10578
SWIDTH 900 0
DWIDTH 16 0
BBX 16 16 0 -2
BITMAP
0000
0000
0000
0000
0000
0000
0000
0000
0000
0000
0000
0000
0000
0000
0000
0000
ENDCHAR

STARTCHAR C2953
ENCODING 10579
SWIDTH 900 0
DWIDTH 16 0
BBX 16 16 0 -2
BITMAP
0000
0000
0000
0000
0000
0000
0000
0000
0000
0000
0000
0000
0000
0000
0000
0000
ENDCHAR

STARTCHAR C2954
ENCODING 10580
SWIDTH 900 0
DWIDTH 16 0
BBX 16 16 0 -2
BITMAP
0000
0000
0000
0000
0000
0000
0000
0000
0000
0000
0000
0000
0000
0000
0000
0000
ENDCHAR

STARTCHAR C2955
ENCODING 10581
SWIDTH 900 0
DWIDTH 16 0
BBX 16 16 0 -2
BITMAP
0000
0000
0000
0000
0000
0000
0000
0000
0000
0000
0000
0000
0000
0000
0000
0000
ENDCHAR

STARTCHAR C2956
ENCODING 10582
SWIDTH 900 0
DWIDTH 16 0
BBX 16 16 0 -2
BITMAP
0000
0000
0000
0000
0000
0000
0000
0000
0000
0000
0000
0000
0000
0000
0000
0000
ENDCHAR

STARTCHAR C2957
ENCODING 10583
SWIDTH 900 0
DWIDTH 16 0
BBX 16 16 0 -2
BITMAP
0000
0000
0000
0000
0000
0000
0000
0000
0000
0000
0000
0000
0000
0000
0000
0000
ENDCHAR

STARTCHAR C2958
ENCODING 10584
SWIDTH 900 0
DWIDTH 16 0
BBX 16 16 0 -2
BITMAP
0000
0000
0000
0000
0000
0000
0000
0000
0000
0000
0000
0000
0000
0000
0000
0000
ENDCHAR

STARTCHAR C2959
ENCODING 10585
SWIDTH 900 0
DWIDTH 16 0
BBX 16 16 0 -2
BITMAP
0000
0000
0000
0000
0000
0000
0000
0000
0000
0000
0000
0000
0000
0000
0000
0000
ENDCHAR

STARTCHAR C295a
ENCODING 10586
SWIDTH 900 0
DWIDTH 16 0
BBX 16 16 0 -2
BITMAP
0000
0000
0000
0000
0000
0000
0000
0000
0000
0000
0000
0000
0000
0000
0000
0000
ENDCHAR

STARTCHAR C295b
ENCODING 10587
SWIDTH 900 0
DWIDTH 16 0
BBX 16 16 0 -2
BITMAP
0000
0000
0000
0000
0000
0000
0000
0000
0000
0000
0000
0000
0000
0000
0000
0000
ENDCHAR

STARTCHAR C295c
ENCODING 10588
SWIDTH 900 0
DWIDTH 16 0
BBX 16 16 0 -2
BITMAP
0000
0000
0000
0000
0000
0000
0000
0000
0000
0000
0000
0000
0000
0000
0000
0000
ENDCHAR

STARTCHAR C295d
ENCODING 10589
SWIDTH 900 0
DWIDTH 16 0
BBX 16 16 0 -2
BITMAP
0000
0000
0000
0000
0000
0000
0000
0000
0000
0000
0000
0000
0000
0000
0000
0000
ENDCHAR

STARTCHAR C295e
ENCODING 10590
SWIDTH 900 0
DWIDTH 16 0
BBX 16 16 0 -2
BITMAP
0000
0000
0000
0000
0000
0000
0000
0000
0000
0000
0000
0000
0000
0000
0000
0000
ENDCHAR

STARTCHAR C295f
ENCODING 10591
SWIDTH 900 0
DWIDTH 16 0
BBX 16 16 0 -2
BITMAP
0000
0000
0000
0000
0000
0000
0000
0000
0000
0000
0000
0000
0000
0000
0000
0000
ENDCHAR

STARTCHAR C2960
ENCODING 10592
SWIDTH 900 0
DWIDTH 16 0
BBX 16 16 0 -2
BITMAP
0000
0000
0000
0000
0000
0000
0000
0000
0000
0000
0000
0000
0000
0000
0000
0000
ENDCHAR

STARTCHAR C2961
ENCODING 10593
SWIDTH 900 0
DWIDTH 16 0
BBX 16 16 0 -2
BITMAP
0000
0000
0000
0000
0000
0000
0000
0000
0000
0000
0000
0000
0000
0000
0000
0000
ENDCHAR

STARTCHAR C2962
ENCODING 10594
SWIDTH 900 0
DWIDTH 16 0
BBX 16 16 0 -2
BITMAP
0000
0000
0000
0000
0000
0000
0000
0000
0000
0000
0000
0000
0000
0000
0000
0000
ENDCHAR

STARTCHAR C2963
ENCODING 10595
SWIDTH 900 0
DWIDTH 16 0
BBX 16 16 0 -2
BITMAP
0000
0000
0000
0000
0000
0000
0000
0000
0000
0000
0000
0000
0000
0000
0000
0000
ENDCHAR

STARTCHAR C2964
ENCODING 10596
SWIDTH 900 0
DWIDTH 16 0
BBX 16 16 0 -2
BITMAP
0000
0000
0000
0000
0000
0000
0000
0000
0000
0000
0000
0000
0000
0000
0000
0000
ENDCHAR

STARTCHAR C2965
ENCODING 10597
SWIDTH 900 0
DWIDTH 16 0
BBX 16 16 0 -2
BITMAP
0000
0000
0000
0000
0000
0000
0000
0000
0000
0000
0000
0000
0000
0000
0000
0000
ENDCHAR

STARTCHAR C2966
ENCODING 10598
SWIDTH 900 0
DWIDTH 16 0
BBX 16 16 0 -2
BITMAP
0000
0000
0000
0000
0000
0000
0000
0000
0000
0000
0000
0000
0000
0000
0000
0000
ENDCHAR

STARTCHAR C2967
ENCODING 10599
SWIDTH 900 0
DWIDTH 16 0
BBX 16 16 0 -2
BITMAP
0000
0000
0000
0000
0000
0000
0000
0000
0000
0000
0000
0000
0000
0000
0000
0000
ENDCHAR

STARTCHAR C2968
ENCODING 10600
SWIDTH 900 0
DWIDTH 16 0
BBX 16 16 0 -2
BITMAP
0000
0000
0000
0000
0000
0000
0000
0000
0000
0000
0000
0000
0000
0000
0000
0000
ENDCHAR

STARTCHAR C2969
ENCODING 10601
SWIDTH 900 0
DWIDTH 16 0
BBX 16 16 0 -2
BITMAP
0000
0000
0000
0000
0000
0000
0000
0000
0000
0000
0000
0000
0000
0000
0000
0000
ENDCHAR

STARTCHAR C296a
ENCODING 10602
SWIDTH 900 0
DWIDTH 16 0
BBX 16 16 0 -2
BITMAP
0000
0000
0000
0000
0000
0000
0000
0000
0000
0000
0000
0000
0000
0000
0000
0000
ENDCHAR

STARTCHAR C296b
ENCODING 10603
SWIDTH 900 0
DWIDTH 16 0
BBX 16 16 0 -2
BITMAP
0000
0000
0000
0000
0000
0000
0000
0000
0000
0000
0000
0000
0000
0000
0000
0000
ENDCHAR

STARTCHAR C296c
ENCODING 10604
SWIDTH 900 0
DWIDTH 16 0
BBX 16 16 0 -2
BITMAP
0000
0000
0000
0000
0000
0000
0000
0000
0000
0000
0000
0000
0000
0000
0000
0000
ENDCHAR

STARTCHAR C296d
ENCODING 10605
SWIDTH 900 0
DWIDTH 16 0
BBX 16 16 0 -2
BITMAP
0000
0000
0000
0000
0000
0000
0000
0000
0000
0000
0000
0000
0000
0000
0000
0000
ENDCHAR

STARTCHAR C296e
ENCODING 10606
SWIDTH 900 0
DWIDTH 16 0
BBX 16 16 0 -2
BITMAP
0000
0000
0000
0000
0000
0000
0000
0000
0000
0000
0000
0000
0000
0000
0000
0000
ENDCHAR

STARTCHAR C296f
ENCODING 10607
SWIDTH 900 0
DWIDTH 16 0
BBX 16 16 0 -2
BITMAP
0000
0000
0000
0000
0000
0000
0000
0000
0000
0000
0000
0000
0000
0000
0000
0000
ENDCHAR

STARTCHAR C2970
ENCODING 10608
SWIDTH 900 0
DWIDTH 16 0
BBX 16 16 0 -2
BITMAP
0000
0000
0000
0000
0000
0000
0000
0000
0000
0000
0000
0000
0000
0000
0000
0000
ENDCHAR

STARTCHAR C2971
ENCODING 10609
SWIDTH 900 0
DWIDTH 16 0
BBX 16 16 0 -2
BITMAP
0000
0000
0000
0000
0000
0000
0000
0000
0000
0000
0000
0000
0000
0000
0000
0000
ENDCHAR

STARTCHAR C2972
ENCODING 10610
SWIDTH 900 0
DWIDTH 16 0
BBX 16 16 0 -2
BITMAP
0000
0000
0000
0000
0000
0000
0000
0000
0000
0000
0000
0000
0000
0000
0000
0000
ENDCHAR

STARTCHAR C2973
ENCODING 10611
SWIDTH 900 0
DWIDTH 16 0
BBX 16 16 0 -2
BITMAP
0000
0000
0000
0000
0000
0000
0000
0000
0000
0000
0000
0000
0000
0000
0000
0000
ENDCHAR

STARTCHAR C2974
ENCODING 10612
SWIDTH 900 0
DWIDTH 16 0
BBX 16 16 0 -2
BITMAP
0000
0000
0000
0000
0000
0000
0000
0000
0000
0000
0000
0000
0000
0000
0000
0000
ENDCHAR

STARTCHAR C2975
ENCODING 10613
SWIDTH 900 0
DWIDTH 16 0
BBX 16 16 0 -2
BITMAP
0000
0000
0000
0000
0000
0000
0000
0000
0000
0000
0000
0000
0000
0000
0000
0000
ENDCHAR

STARTCHAR C2976
ENCODING 10614
SWIDTH 900 0
DWIDTH 16 0
BBX 16 16 0 -2
BITMAP
0000
0000
0000
0000
0000
0000
0000
0000
0000
0000
0000
0000
0000
0000
0000
0000
ENDCHAR

STARTCHAR C2977
ENCODING 10615
SWIDTH 900 0
DWIDTH 16 0
BBX 16 16 0 -2
BITMAP
0000
0000
0000
0000
0000
0000
0000
0000
0000
0000
0000
0000
0000
0000
0000
0000
ENDCHAR

STARTCHAR C2978
ENCODING 10616
SWIDTH 900 0
DWIDTH 16 0
BBX 16 16 0 -2
BITMAP
0000
0000
0000
0000
0000
0000
0000
0000
0000
0000
0000
0000
0000
0000
0000
0000
ENDCHAR

STARTCHAR C2979
ENCODING 10617
SWIDTH 900 0
DWIDTH 16 0
BBX 16 16 0 -2
BITMAP
0000
0000
0000
0000
0000
0000
0000
0000
0000
0000
0000
0000
0000
0000
0000
0000
ENDCHAR

STARTCHAR C297a
ENCODING 10618
SWIDTH 900 0
DWIDTH 16 0
BBX 16 16 0 -2
BITMAP
0000
0000
0000
0000
0000
0000
0000
0000
0000
0000
0000
0000
0000
0000
0000
0000
ENDCHAR

STARTCHAR C297b
ENCODING 10619
SWIDTH 900 0
DWIDTH 16 0
BBX 16 16 0 -2
BITMAP
0000
0000
0000
0000
0000
0000
0000
0000
0000
0000
0000
0000
0000
0000
0000
0000
ENDCHAR

STARTCHAR C297c
ENCODING 10620
SWIDTH 900 0
DWIDTH 16 0
BBX 16 16 0 -2
BITMAP
0000
0000
0000
0000
0000
0000
0000
0000
0000
0000
0000
0000
0000
0000
0000
0000
ENDCHAR

STARTCHAR C297d
ENCODING 10621
SWIDTH 900 0
DWIDTH 16 0
BBX 16 16 0 -2
BITMAP
0000
0000
0000
0000
0000
0000
0000
0000
0000
0000
0000
0000
0000
0000
0000
0000
ENDCHAR

STARTCHAR C297e
ENCODING 10622
SWIDTH 900 0
DWIDTH 16 0
BBX 16 16 0 -2
BITMAP
0000
0000
0000
0000
0000
0000
0000
0000
0000
0000
0000
0000
0000
0000
0000
0000
ENDCHAR

STARTCHAR C2a21
ENCODING 10785
SWIDTH 900 0
DWIDTH 16 0
BBX 16 16 0 -2
BITMAP
0000
0000
0000
0000
0000
0000
0000
0000
0000
0000
0000
0000
0000
0000
0000
0000
ENDCHAR

STARTCHAR C2a22
ENCODING 10786
SWIDTH 900 0
DWIDTH 16 0
BBX 16 16 0 -2
BITMAP
0000
0000
0000
0000
0000
0000
0000
0000
0000
0000
0000
0000
0000
0000
0000
0000
ENDCHAR

STARTCHAR C2a23
ENCODING 10787
SWIDTH 900 0
DWIDTH 16 0
BBX 16 16 0 -2
BITMAP
0000
0000
0000
0000
0000
0000
0000
0000
0000
0000
0000
0000
0000
0000
0000
0000
ENDCHAR

STARTCHAR C2a24
ENCODING 10788
SWIDTH 900 0
DWIDTH 16 0
BBX 16 16 0 -2
BITMAP
0000
0000
0000
0000
0000
0000
0000
0000
0000
0000
0000
0000
0000
0000
0000
0000
ENDCHAR

STARTCHAR C2a25
ENCODING 10789
SWIDTH 900 0
DWIDTH 16 0
BBX 16 16 0 -2
BITMAP
0000
0000
0000
0000
0000
0000
0000
0000
0000
0000
0000
0000
0000
0000
0000
0000
ENDCHAR

STARTCHAR C2a26
ENCODING 10790
SWIDTH 900 0
DWIDTH 16 0
BBX 16 16 0 -2
BITMAP
0000
0000
0000
0000
0000
0000
0000
0000
0000
0000
0000
0000
0000
0000
0000
0000
ENDCHAR

STARTCHAR C2a27
ENCODING 10791
SWIDTH 900 0
DWIDTH 16 0
BBX 16 16 0 -2
BITMAP
0000
0000
0000
0000
0000
0000
0000
0000
0000
0000
0000
0000
0000
0000
0000
0000
ENDCHAR

STARTCHAR C2a28
ENCODING 10792
SWIDTH 900 0
DWIDTH 16 0
BBX 16 16 0 -2
BITMAP
0000
0000
0000
0000
0000
0000
0000
0000
0000
0000
0000
0000
0000
0000
0000
0000
ENDCHAR

STARTCHAR C2a29
ENCODING 10793
SWIDTH 900 0
DWIDTH 16 0
BBX 16 16 0 -2
BITMAP
0000
0000
0000
0000
0000
0000
0000
0000
0000
0000
0000
0000
0000
0000
0000
0000
ENDCHAR

STARTCHAR C2a2a
ENCODING 10794
SWIDTH 900 0
DWIDTH 16 0
BBX 16 16 0 -2
BITMAP
0000
0000
0000
0000
0000
0000
0000
0000
0000
0000
0000
0000
0000
0000
0000
0000
ENDCHAR

STARTCHAR C2a2b
ENCODING 10795
SWIDTH 900 0
DWIDTH 16 0
BBX 16 16 0 -2
BITMAP
0000
0000
0000
0000
0000
0000
0000
0000
0000
0000
0000
0000
0000
0000
0000
0000
ENDCHAR

STARTCHAR C2a2c
ENCODING 10796
SWIDTH 900 0
DWIDTH 16 0
BBX 16 16 0 -2
BITMAP
0000
0000
0000
0000
0000
0000
0000
0000
0000
0000
0000
0000
0000
0000
0000
0000
ENDCHAR

STARTCHAR C2a2d
ENCODING 10797
SWIDTH 900 0
DWIDTH 16 0
BBX 16 16 0 -2
BITMAP
0000
0000
0000
0000
0000
0000
0000
0000
0000
0000
0000
0000
0000
0000
0000
0000
ENDCHAR

STARTCHAR C2a2e
ENCODING 10798
SWIDTH 900 0
DWIDTH 16 0
BBX 16 16 0 -2
BITMAP
0000
0000
0000
0000
0000
0000
0000
0000
0000
0000
0000
0000
0000
0000
0000
0000
ENDCHAR

STARTCHAR C2a2f
ENCODING 10799
SWIDTH 900 0
DWIDTH 16 0
BBX 16 16 0 -2
BITMAP
0000
0000
0000
0000
0000
0000
0000
0000
0000
0000
0000
0000
0000
0000
0000
0000
ENDCHAR

STARTCHAR C2a30
ENCODING 10800
SWIDTH 900 0
DWIDTH 16 0
BBX 16 16 0 -2
BITMAP
0000
0000
0000
0000
0000
0000
0000
0000
0000
0000
0000
0000
0000
0000
0000
0000
ENDCHAR

STARTCHAR C2a31
ENCODING 10801
SWIDTH 900 0
DWIDTH 16 0
BBX 16 16 0 -2
BITMAP
0000
0000
0000
0000
0000
0000
0000
0000
0000
0000
0000
0000
0000
0000
0000
0000
ENDCHAR

STARTCHAR C2a32
ENCODING 10802
SWIDTH 900 0
DWIDTH 16 0
BBX 16 16 0 -2
BITMAP
0000
0000
0000
0000
0000
0000
0000
0000
0000
0000
0000
0000
0000
0000
0000
0000
ENDCHAR

STARTCHAR C2a33
ENCODING 10803
SWIDTH 900 0
DWIDTH 16 0
BBX 16 16 0 -2
BITMAP
0000
0000
0000
0000
0000
0000
0000
0000
0000
0000
0000
0000
0000
0000
0000
0000
ENDCHAR

STARTCHAR C2a34
ENCODING 10804
SWIDTH 900 0
DWIDTH 16 0
BBX 16 16 0 -2
BITMAP
0000
0000
0000
0000
0000
0000
0000
0000
0000
0000
0000
0000
0000
0000
0000
0000
ENDCHAR

STARTCHAR C2a35
ENCODING 10805
SWIDTH 900 0
DWIDTH 16 0
BBX 16 16 0 -2
BITMAP
0000
0000
0000
0000
0000
0000
0000
0000
0000
0000
0000
0000
0000
0000
0000
0000
ENDCHAR

STARTCHAR C2a36
ENCODING 10806
SWIDTH 900 0
DWIDTH 16 0
BBX 16 16 0 -2
BITMAP
0000
0000
0000
0000
0000
0000
0000
0000
0000
0000
0000
0000
0000
0000
0000
0000
ENDCHAR

STARTCHAR C2a37
ENCODING 10807
SWIDTH 900 0
DWIDTH 16 0
BBX 16 16 0 -2
BITMAP
0000
0000
0000
0000
0000
0000
0000
0000
0000
0000
0000
0000
0000
0000
0000
0000
ENDCHAR

STARTCHAR C2a38
ENCODING 10808
SWIDTH 900 0
DWIDTH 16 0
BBX 16 16 0 -2
BITMAP
0000
0000
0000
0000
0000
0000
0000
0000
0000
0000
0000
0000
0000
0000
0000
0000
ENDCHAR

STARTCHAR C2a39
ENCODING 10809
SWIDTH 900 0
DWIDTH 16 0
BBX 16 16 0 -2
BITMAP
0000
0000
0000
0000
0000
0000
0000
0000
0000
0000
0000
0000
0000
0000
0000
0000
ENDCHAR

STARTCHAR C2a3a
ENCODING 10810
SWIDTH 900 0
DWIDTH 16 0
BBX 16 16 0 -2
BITMAP
0000
0000
0000
0000
0000
0000
0000
0000
0000
0000
0000
0000
0000
0000
0000
0000
ENDCHAR

STARTCHAR C2a3b
ENCODING 10811
SWIDTH 900 0
DWIDTH 16 0
BBX 16 16 0 -2
BITMAP
0000
0000
0000
0000
0000
0000
0000
0000
0000
0000
0000
0000
0000
0000
0000
0000
ENDCHAR

STARTCHAR C2a3c
ENCODING 10812
SWIDTH 900 0
DWIDTH 16 0
BBX 16 16 0 -2
BITMAP
0000
0000
0000
0000
0000
0000
0000
0000
0000
0000
0000
0000
0000
0000
0000
0000
ENDCHAR

STARTCHAR C2a3d
ENCODING 10813
SWIDTH 900 0
DWIDTH 16 0
BBX 16 16 0 -2
BITMAP
0000
0000
0000
0000
0000
0000
0000
0000
0000
0000
0000
0000
0000
0000
0000
0000
ENDCHAR

STARTCHAR C2a3e
ENCODING 10814
SWIDTH 900 0
DWIDTH 16 0
BBX 16 16 0 -2
BITMAP
0000
0000
0000
0000
0000
0000
0000
0000
0000
0000
0000
0000
0000
0000
0000
0000
ENDCHAR

STARTCHAR C2a3f
ENCODING 10815
SWIDTH 900 0
DWIDTH 16 0
BBX 16 16 0 -2
BITMAP
0000
0000
0000
0000
0000
0000
0000
0000
0000
0000
0000
0000
0000
0000
0000
0000
ENDCHAR

STARTCHAR C2a40
ENCODING 10816
SWIDTH 900 0
DWIDTH 16 0
BBX 16 16 0 -2
BITMAP
0000
0000
0000
0000
0000
0000
0000
0000
0000
0000
0000
0000
0000
0000
0000
0000
ENDCHAR

STARTCHAR C2a41
ENCODING 10817
SWIDTH 900 0
DWIDTH 16 0
BBX 16 16 0 -2
BITMAP
0000
0000
0000
0000
0000
0000
0000
0000
0000
0000
0000
0000
0000
0000
0000
0000
ENDCHAR

STARTCHAR C2a42
ENCODING 10818
SWIDTH 900 0
DWIDTH 16 0
BBX 16 16 0 -2
BITMAP
0000
0000
0000
0000
0000
0000
0000
0000
0000
0000
0000
0000
0000
0000
0000
0000
ENDCHAR

STARTCHAR C2a43
ENCODING 10819
SWIDTH 900 0
DWIDTH 16 0
BBX 16 16 0 -2
BITMAP
0000
0000
0000
0000
0000
0000
0000
0000
0000
0000
0000
0000
0000
0000
0000
0000
ENDCHAR

STARTCHAR C2a44
ENCODING 10820
SWIDTH 900 0
DWIDTH 16 0
BBX 16 16 0 -2
BITMAP
0000
0000
0000
0000
0000
0000
0000
0000
0000
0000
0000
0000
0000
0000
0000
0000
ENDCHAR

STARTCHAR C2a45
ENCODING 10821
SWIDTH 900 0
DWIDTH 16 0
BBX 16 16 0 -2
BITMAP
0000
0000
0000
0000
0000
0000
0000
0000
0000
0000
0000
0000
0000
0000
0000
0000
ENDCHAR

STARTCHAR C2a46
ENCODING 10822
SWIDTH 900 0
DWIDTH 16 0
BBX 16 16 0 -2
BITMAP
0000
0000
0000
0000
0000
0000
0000
0000
0000
0000
0000
0000
0000
0000
0000
0000
ENDCHAR

STARTCHAR C2a47
ENCODING 10823
SWIDTH 900 0
DWIDTH 16 0
BBX 16 16 0 -2
BITMAP
0000
0000
0000
0000
0000
0000
0000
0000
0000
0000
0000
0000
0000
0000
0000
0000
ENDCHAR

STARTCHAR C2a48
ENCODING 10824
SWIDTH 900 0
DWIDTH 16 0
BBX 16 16 0 -2
BITMAP
0000
0000
0000
0000
0000
0000
0000
0000
0000
0000
0000
0000
0000
0000
0000
0000
ENDCHAR

STARTCHAR C2a49
ENCODING 10825
SWIDTH 900 0
DWIDTH 16 0
BBX 16 16 0 -2
BITMAP
0000
0000
0000
0000
0000
0000
0000
0000
0000
0000
0000
0000
0000
0000
0000
0000
ENDCHAR

STARTCHAR C2a4a
ENCODING 10826
SWIDTH 900 0
DWIDTH 16 0
BBX 16 16 0 -2
BITMAP
0000
0000
0000
0000
0000
0000
0000
0000
0000
0000
0000
0000
0000
0000
0000
0000
ENDCHAR

STARTCHAR C2a4b
ENCODING 10827
SWIDTH 900 0
DWIDTH 16 0
BBX 16 16 0 -2
BITMAP
0000
0000
0000
0000
0000
0000
0000
0000
0000
0000
0000
0000
0000
0000
0000
0000
ENDCHAR

STARTCHAR C2a4c
ENCODING 10828
SWIDTH 900 0
DWIDTH 16 0
BBX 16 16 0 -2
BITMAP
0000
0000
0000
0000
0000
0000
0000
0000
0000
0000
0000
0000
0000
0000
0000
0000
ENDCHAR

STARTCHAR C2a4d
ENCODING 10829
SWIDTH 900 0
DWIDTH 16 0
BBX 16 16 0 -2
BITMAP
0000
0000
0000
0000
0000
0000
0000
0000
0000
0000
0000
0000
0000
0000
0000
0000
ENDCHAR

STARTCHAR C2a4e
ENCODING 10830
SWIDTH 900 0
DWIDTH 16 0
BBX 16 16 0 -2
BITMAP
0000
0000
0000
0000
0000
0000
0000
0000
0000
0000
0000
0000
0000
0000
0000
0000
ENDCHAR

STARTCHAR C2a4f
ENCODING 10831
SWIDTH 900 0
DWIDTH 16 0
BBX 16 16 0 -2
BITMAP
0000
0000
0000
0000
0000
0000
0000
0000
0000
0000
0000
0000
0000
0000
0000
0000
ENDCHAR

STARTCHAR C2a50
ENCODING 10832
SWIDTH 900 0
DWIDTH 16 0
BBX 16 16 0 -2
BITMAP
0000
0000
0000
0000
0000
0000
0000
0000
0000
0000
0000
0000
0000
0000
0000
0000
ENDCHAR

STARTCHAR C2a51
ENCODING 10833
SWIDTH 900 0
DWIDTH 16 0
BBX 16 16 0 -2
BITMAP
0000
0000
0000
0000
0000
0000
0000
0000
0000
0000
0000
0000
0000
0000
0000
0000
ENDCHAR

STARTCHAR C2a52
ENCODING 10834
SWIDTH 900 0
DWIDTH 16 0
BBX 16 16 0 -2
BITMAP
0000
0000
0000
0000
0000
0000
0000
0000
0000
0000
0000
0000
0000
0000
0000
0000
ENDCHAR

STARTCHAR C2a53
ENCODING 10835
SWIDTH 900 0
DWIDTH 16 0
BBX 16 16 0 -2
BITMAP
0000
0000
0000
0000
0000
0000
0000
0000
0000
0000
0000
0000
0000
0000
0000
0000
ENDCHAR

STARTCHAR C2a54
ENCODING 10836
SWIDTH 900 0
DWIDTH 16 0
BBX 16 16 0 -2
BITMAP
0000
0000
0000
0000
0000
0000
0000
0000
0000
0000
0000
0000
0000
0000
0000
0000
ENDCHAR

STARTCHAR C2a55
ENCODING 10837
SWIDTH 900 0
DWIDTH 16 0
BBX 16 16 0 -2
BITMAP
0000
0000
0000
0000
0000
0000
0000
0000
0000
0000
0000
0000
0000
0000
0000
0000
ENDCHAR

STARTCHAR C2a56
ENCODING 10838
SWIDTH 900 0
DWIDTH 16 0
BBX 16 16 0 -2
BITMAP
0000
0000
0000
0000
0000
0000
0000
0000
0000
0000
0000
0000
0000
0000
0000
0000
ENDCHAR

STARTCHAR C2a57
ENCODING 10839
SWIDTH 900 0
DWIDTH 16 0
BBX 16 16 0 -2
BITMAP
0000
0000
0000
0000
0000
0000
0000
0000
0000
0000
0000
0000
0000
0000
0000
0000
ENDCHAR

STARTCHAR C2a58
ENCODING 10840
SWIDTH 900 0
DWIDTH 16 0
BBX 16 16 0 -2
BITMAP
0000
0000
0000
0000
0000
0000
0000
0000
0000
0000
0000
0000
0000
0000
0000
0000
ENDCHAR

STARTCHAR C2a59
ENCODING 10841
SWIDTH 900 0
DWIDTH 16 0
BBX 16 16 0 -2
BITMAP
0000
0000
0000
0000
0000
0000
0000
0000
0000
0000
0000
0000
0000
0000
0000
0000
ENDCHAR

STARTCHAR C2a5a
ENCODING 10842
SWIDTH 900 0
DWIDTH 16 0
BBX 16 16 0 -2
BITMAP
0000
0000
0000
0000
0000
0000
0000
0000
0000
0000
0000
0000
0000
0000
0000
0000
ENDCHAR

STARTCHAR C2a5b
ENCODING 10843
SWIDTH 900 0
DWIDTH 16 0
BBX 16 16 0 -2
BITMAP
0000
0000
0000
0000
0000
0000
0000
0000
0000
0000
0000
0000
0000
0000
0000
0000
ENDCHAR

STARTCHAR C2a5c
ENCODING 10844
SWIDTH 900 0
DWIDTH 16 0
BBX 16 16 0 -2
BITMAP
0000
0000
0000
0000
0000
0000
0000
0000
0000
0000
0000
0000
0000
0000
0000
0000
ENDCHAR

STARTCHAR C2a5d
ENCODING 10845
SWIDTH 900 0
DWIDTH 16 0
BBX 16 16 0 -2
BITMAP
0000
0000
0000
0000
0000
0000
0000
0000
0000
0000
0000
0000
0000
0000
0000
0000
ENDCHAR

STARTCHAR C2a5e
ENCODING 10846
SWIDTH 900 0
DWIDTH 16 0
BBX 16 16 0 -2
BITMAP
0000
0000
0000
0000
0000
0000
0000
0000
0000
0000
0000
0000
0000
0000
0000
0000
ENDCHAR

STARTCHAR C2a5f
ENCODING 10847
SWIDTH 900 0
DWIDTH 16 0
BBX 16 16 0 -2
BITMAP
0000
0000
0000
0000
0000
0000
0000
0000
0000
0000
0000
0000
0000
0000
0000
0000
ENDCHAR

STARTCHAR C2a60
ENCODING 10848
SWIDTH 900 0
DWIDTH 16 0
BBX 16 16 0 -2
BITMAP
0000
0000
0000
0000
0000
0000
0000
0000
0000
0000
0000
0000
0000
0000
0000
0000
ENDCHAR

STARTCHAR C2a61
ENCODING 10849
SWIDTH 900 0
DWIDTH 16 0
BBX 16 16 0 -2
BITMAP
0000
0000
0000
0000
0000
0000
0000
0000
0000
0000
0000
0000
0000
0000
0000
0000
ENDCHAR

STARTCHAR C2a62
ENCODING 10850
SWIDTH 900 0
DWIDTH 16 0
BBX 16 16 0 -2
BITMAP
0000
0000
0000
0000
0000
0000
0000
0000
0000
0000
0000
0000
0000
0000
0000
0000
ENDCHAR

STARTCHAR C2a63
ENCODING 10851
SWIDTH 900 0
DWIDTH 16 0
BBX 16 16 0 -2
BITMAP
0000
0000
0000
0000
0000
0000
0000
0000
0000
0000
0000
0000
0000
0000
0000
0000
ENDCHAR

STARTCHAR C2a64
ENCODING 10852
SWIDTH 900 0
DWIDTH 16 0
BBX 16 16 0 -2
BITMAP
0000
0000
0000
0000
0000
0000
0000
0000
0000
0000
0000
0000
0000
0000
0000
0000
ENDCHAR

STARTCHAR C2a65
ENCODING 10853
SWIDTH 900 0
DWIDTH 16 0
BBX 16 16 0 -2
BITMAP
0000
0000
0000
0000
0000
0000
0000
0000
0000
0000
0000
0000
0000
0000
0000
0000
ENDCHAR

STARTCHAR C2a66
ENCODING 10854
SWIDTH 900 0
DWIDTH 16 0
BBX 16 16 0 -2
BITMAP
0000
0000
0000
0000
0000
0000
0000
0000
0000
0000
0000
0000
0000
0000
0000
0000
ENDCHAR

STARTCHAR C2a67
ENCODING 10855
SWIDTH 900 0
DWIDTH 16 0
BBX 16 16 0 -2
BITMAP
0000
0000
0000
0000
0000
0000
0000
0000
0000
0000
0000
0000
0000
0000
0000
0000
ENDCHAR

STARTCHAR C2a68
ENCODING 10856
SWIDTH 900 0
DWIDTH 16 0
BBX 16 16 0 -2
BITMAP
0000
0000
0000
0000
0000
0000
0000
0000
0000
0000
0000
0000
0000
0000
0000
0000
ENDCHAR

STARTCHAR C2a69
ENCODING 10857
SWIDTH 900 0
DWIDTH 16 0
BBX 16 16 0 -2
BITMAP
0000
0000
0000
0000
0000
0000
0000
0000
0000
0000
0000
0000
0000
0000
0000
0000
ENDCHAR

STARTCHAR C2a6a
ENCODING 10858
SWIDTH 900 0
DWIDTH 16 0
BBX 16 16 0 -2
BITMAP
0000
0000
0000
0000
0000
0000
0000
0000
0000
0000
0000
0000
0000
0000
0000
0000
ENDCHAR

STARTCHAR C2a6b
ENCODING 10859
SWIDTH 900 0
DWIDTH 16 0
BBX 16 16 0 -2
BITMAP
0000
0000
0000
0000
0000
0000
0000
0000
0000
0000
0000
0000
0000
0000
0000
0000
ENDCHAR

STARTCHAR C2a6c
ENCODING 10860
SWIDTH 900 0
DWIDTH 16 0
BBX 16 16 0 -2
BITMAP
0000
0000
0000
0000
0000
0000
0000
0000
0000
0000
0000
0000
0000
0000
0000
0000
ENDCHAR

STARTCHAR C2a6d
ENCODING 10861
SWIDTH 900 0
DWIDTH 16 0
BBX 16 16 0 -2
BITMAP
0000
0000
0000
0000
0000
0000
0000
0000
0000
0000
0000
0000
0000
0000
0000
0000
ENDCHAR

STARTCHAR C2a6e
ENCODING 10862
SWIDTH 900 0
DWIDTH 16 0
BBX 16 16 0 -2
BITMAP
0000
0000
0000
0000
0000
0000
0000
0000
0000
0000
0000
0000
0000
0000
0000
0000
ENDCHAR

STARTCHAR C2a6f
ENCODING 10863
SWIDTH 900 0
DWIDTH 16 0
BBX 16 16 0 -2
BITMAP
0000
0000
0000
0000
0000
0000
0000
0000
0000
0000
0000
0000
0000
0000
0000
0000
ENDCHAR

STARTCHAR C2a70
ENCODING 10864
SWIDTH 900 0
DWIDTH 16 0
BBX 16 16 0 -2
BITMAP
0000
0000
0000
0000
0000
0000
0000
0000
0000
0000
0000
0000
0000
0000
0000
0000
ENDCHAR

STARTCHAR C2a71
ENCODING 10865
SWIDTH 900 0
DWIDTH 16 0
BBX 16 16 0 -2
BITMAP
0000
0000
0000
0000
0000
0000
0000
0000
0000
0000
0000
0000
0000
0000
0000
0000
ENDCHAR

STARTCHAR C2a72
ENCODING 10866
SWIDTH 900 0
DWIDTH 16 0
BBX 16 16 0 -2
BITMAP
0000
0000
0000
0000
0000
0000
0000
0000
0000
0000
0000
0000
0000
0000
0000
0000
ENDCHAR

STARTCHAR C2a73
ENCODING 10867
SWIDTH 900 0
DWIDTH 16 0
BBX 16 16 0 -2
BITMAP
0000
0000
0000
0000
0000
0000
0000
0000
0000
0000
0000
0000
0000
0000
0000
0000
ENDCHAR

STARTCHAR C2a74
ENCODING 10868
SWIDTH 900 0
DWIDTH 16 0
BBX 16 16 0 -2
BITMAP
0000
0000
0000
0000
0000
0000
0000
0000
0000
0000
0000
0000
0000
0000
0000
0000
ENDCHAR

STARTCHAR C2a75
ENCODING 10869
SWIDTH 900 0
DWIDTH 16 0
BBX 16 16 0 -2
BITMAP
0000
0000
0000
0000
0000
0000
0000
0000
0000
0000
0000
0000
0000
0000
0000
0000
ENDCHAR

STARTCHAR C2a76
ENCODING 10870
SWIDTH 900 0
DWIDTH 16 0
BBX 16 16 0 -2
BITMAP
0000
0000
0000
0000
0000
0000
0000
0000
0000
0000
0000
0000
0000
0000
0000
0000
ENDCHAR

STARTCHAR C2a77
ENCODING 10871
SWIDTH 900 0
DWIDTH 16 0
BBX 16 16 0 -2
BITMAP
0000
0000
0000
0000
0000
0000
0000
0000
0000
0000
0000
0000
0000
0000
0000
0000
ENDCHAR

STARTCHAR C2a78
ENCODING 10872
SWIDTH 900 0
DWIDTH 16 0
BBX 16 16 0 -2
BITMAP
0000
0000
0000
0000
0000
0000
0000
0000
0000
0000
0000
0000
0000
0000
0000
0000
ENDCHAR

STARTCHAR C2a79
ENCODING 10873
SWIDTH 900 0
DWIDTH 16 0
BBX 16 16 0 -2
BITMAP
0000
0000
0000
0000
0000
0000
0000
0000
0000
0000
0000
0000
0000
0000
0000
0000
ENDCHAR

STARTCHAR C2a7a
ENCODING 10874
SWIDTH 900 0
DWIDTH 16 0
BBX 16 16 0 -2
BITMAP
0000
0000
0000
0000
0000
0000
0000
0000
0000
0000
0000
0000
0000
0000
0000
0000
ENDCHAR

STARTCHAR C2a7b
ENCODING 10875
SWIDTH 900 0
DWIDTH 16 0
BBX 16 16 0 -2
BITMAP
0000
0000
0000
0000
0000
0000
0000
0000
0000
0000
0000
0000
0000
0000
0000
0000
ENDCHAR

STARTCHAR C2a7c
ENCODING 10876
SWIDTH 900 0
DWIDTH 16 0
BBX 16 16 0 -2
BITMAP
0000
0000
0000
0000
0000
0000
0000
0000
0000
0000
0000
0000
0000
0000
0000
0000
ENDCHAR

STARTCHAR C2a7d
ENCODING 10877
SWIDTH 900 0
DWIDTH 16 0
BBX 16 16 0 -2
BITMAP
0000
0000
0000
0000
0000
0000
0000
0000
0000
0000
0000
0000
0000
0000
0000
0000
ENDCHAR

STARTCHAR C2a7e
ENCODING 10878
SWIDTH 900 0
DWIDTH 16 0
BBX 16 16 0 -2
BITMAP
0000
0000
0000
0000
0000
0000
0000
0000
0000
0000
0000
0000
0000
0000
0000
0000
ENDCHAR

STARTCHAR C2b21
ENCODING 11041
SWIDTH 900 0
DWIDTH 16 0
BBX 16 16 0 -2
BITMAP
0000
0000
0000
0000
0000
0000
0000
0000
0000
0000
0000
0000
0000
0000
0000
0000
ENDCHAR

STARTCHAR C2b22
ENCODING 11042
SWIDTH 900 0
DWIDTH 16 0
BBX 16 16 0 -2
BITMAP
0000
0000
0000
0000
0000
0000
0000
0000
0000
0000
0000
0000
0000
0000
0000
0000
ENDCHAR

STARTCHAR C2b23
ENCODING 11043
SWIDTH 900 0
DWIDTH 16 0
BBX 16 16 0 -2
BITMAP
0000
0000
0000
0000
0000
0000
0000
0000
0000
0000
0000
0000
0000
0000
0000
0000
ENDCHAR

STARTCHAR C2b24
ENCODING 11044
SWIDTH 900 0
DWIDTH 16 0
BBX 16 16 0 -2
BITMAP
0000
0000
0000
0000
0000
0000
0000
0000
0000
0000
0000
0000
0000
0000
0000
0000
ENDCHAR

STARTCHAR C2b25
ENCODING 11045
SWIDTH 900 0
DWIDTH 16 0
BBX 16 16 0 -2
BITMAP
0000
0000
0000
0000
0000
0000
0000
0000
0000
0000
0000
0000
0000
0000
0000
0000
ENDCHAR

STARTCHAR C2b26
ENCODING 11046
SWIDTH 900 0
DWIDTH 16 0
BBX 16 16 0 -2
BITMAP
0000
0000
0000
0000
0000
0000
0000
0000
0000
0000
0000
0000
0000
0000
0000
0000
ENDCHAR

STARTCHAR C2b27
ENCODING 11047
SWIDTH 900 0
DWIDTH 16 0
BBX 16 16 0 -2
BITMAP
0000
0000
0000
0000
0000
0000
0000
0000
0000
0000
0000
0000
0000
0000
0000
0000
ENDCHAR

STARTCHAR C2b28
ENCODING 11048
SWIDTH 900 0
DWIDTH 16 0
BBX 16 16 0 -2
BITMAP
0000
0000
0000
0000
0000
0000
0000
0000
0000
0000
0000
0000
0000
0000
0000
0000
ENDCHAR

STARTCHAR C2b29
ENCODING 11049
SWIDTH 900 0
DWIDTH 16 0
BBX 16 16 0 -2
BITMAP
0000
0000
0000
0000
0000
0000
0000
0000
0000
0000
0000
0000
0000
0000
0000
0000
ENDCHAR

STARTCHAR C2b2a
ENCODING 11050
SWIDTH 900 0
DWIDTH 16 0
BBX 16 16 0 -2
BITMAP
0000
0000
0000
0000
0000
0000
0000
0000
0000
0000
0000
0000
0000
0000
0000
0000
ENDCHAR

STARTCHAR C2b2b
ENCODING 11051
SWIDTH 900 0
DWIDTH 16 0
BBX 16 16 0 -2
BITMAP
0000
0000
0000
0000
0000
0000
0000
0000
0000
0000
0000
0000
0000
0000
0000
0000
ENDCHAR

STARTCHAR C2b2c
ENCODING 11052
SWIDTH 900 0
DWIDTH 16 0
BBX 16 16 0 -2
BITMAP
0000
0000
0000
0000
0000
0000
0000
0000
0000
0000
0000
0000
0000
0000
0000
0000
ENDCHAR

STARTCHAR C2b2d
ENCODING 11053
SWIDTH 900 0
DWIDTH 16 0
BBX 16 16 0 -2
BITMAP
0000
0000
0000
0000
0000
0000
0000
0000
0000
0000
0000
0000
0000
0000
0000
0000
ENDCHAR

STARTCHAR C2b2e
ENCODING 11054
SWIDTH 900 0
DWIDTH 16 0
BBX 16 16 0 -2
BITMAP
0000
0000
0000
0000
0000
0000
0000
0000
0000
0000
0000
0000
0000
0000
0000
0000
ENDCHAR

STARTCHAR C2b2f
ENCODING 11055
SWIDTH 900 0
DWIDTH 16 0
BBX 16 16 0 -2
BITMAP
0000
0000
0000
0000
0000
0000
0000
0000
0000
0000
0000
0000
0000
0000
0000
0000
ENDCHAR

STARTCHAR C2b30
ENCODING 11056
SWIDTH 900 0
DWIDTH 16 0
BBX 16 16 0 -2
BITMAP
0000
0000
0000
0000
0000
0000
0000
0000
0000
0000
0000
0000
0000
0000
0000
0000
ENDCHAR

STARTCHAR C2b31
ENCODING 11057
SWIDTH 900 0
DWIDTH 16 0
BBX 16 16 0 -2
BITMAP
0000
0000
0000
0000
0000
0000
0000
0000
0000
0000
0000
0000
0000
0000
0000
0000
ENDCHAR

STARTCHAR C2b32
ENCODING 11058
SWIDTH 900 0
DWIDTH 16 0
BBX 16 16 0 -2
BITMAP
0000
0000
0000
0000
0000
0000
0000
0000
0000
0000
0000
0000
0000
0000
0000
0000
ENDCHAR

STARTCHAR C2b33
ENCODING 11059
SWIDTH 900 0
DWIDTH 16 0
BBX 16 16 0 -2
BITMAP
0000
0000
0000
0000
0000
0000
0000
0000
0000
0000
0000
0000
0000
0000
0000
0000
ENDCHAR

STARTCHAR C2b34
ENCODING 11060
SWIDTH 900 0
DWIDTH 16 0
BBX 16 16 0 -2
BITMAP
0000
0000
0000
0000
0000
0000
0000
0000
0000
0000
0000
0000
0000
0000
0000
0000
ENDCHAR

STARTCHAR C2b35
ENCODING 11061
SWIDTH 900 0
DWIDTH 16 0
BBX 16 16 0 -2
BITMAP
0000
0000
0000
0000
0000
0000
0000
0000
0000
0000
0000
0000
0000
0000
0000
0000
ENDCHAR

STARTCHAR C2b36
ENCODING 11062
SWIDTH 900 0
DWIDTH 16 0
BBX 16 16 0 -2
BITMAP
0000
0000
0000
0000
0000
0000
0000
0000
0000
0000
0000
0000
0000
0000
0000
0000
ENDCHAR

STARTCHAR C2b37
ENCODING 11063
SWIDTH 900 0
DWIDTH 16 0
BBX 16 16 0 -2
BITMAP
0000
0000
0000
0000
0000
0000
0000
0000
0000
0000
0000
0000
0000
0000
0000
0000
ENDCHAR

STARTCHAR C2b38
ENCODING 11064
SWIDTH 900 0
DWIDTH 16 0
BBX 16 16 0 -2
BITMAP
0000
0000
0000
0000
0000
0000
0000
0000
0000
0000
0000
0000
0000
0000
0000
0000
ENDCHAR

STARTCHAR C2b39
ENCODING 11065
SWIDTH 900 0
DWIDTH 16 0
BBX 16 16 0 -2
BITMAP
0000
0000
0000
0000
0000
0000
0000
0000
0000
0000
0000
0000
0000
0000
0000
0000
ENDCHAR

STARTCHAR C2b3a
ENCODING 11066
SWIDTH 900 0
DWIDTH 16 0
BBX 16 16 0 -2
BITMAP
0000
0000
0000
0000
0000
0000
0000
0000
0000
0000
0000
0000
0000
0000
0000
0000
ENDCHAR

STARTCHAR C2b3b
ENCODING 11067
SWIDTH 900 0
DWIDTH 16 0
BBX 16 16 0 -2
BITMAP
0000
0000
0000
0000
0000
0000
0000
0000
0000
0000
0000
0000
0000
0000
0000
0000
ENDCHAR

STARTCHAR C2b3c
ENCODING 11068
SWIDTH 900 0
DWIDTH 16 0
BBX 16 16 0 -2
BITMAP
0000
0000
0000
0000
0000
0000
0000
0000
0000
0000
0000
0000
0000
0000
0000
0000
ENDCHAR

STARTCHAR C2b3d
ENCODING 11069
SWIDTH 900 0
DWIDTH 16 0
BBX 16 16 0 -2
BITMAP
0000
0000
0000
0000
0000
0000
0000
0000
0000
0000
0000
0000
0000
0000
0000
0000
ENDCHAR

STARTCHAR C2b3e
ENCODING 11070
SWIDTH 900 0
DWIDTH 16 0
BBX 16 16 0 -2
BITMAP
0000
0000
0000
0000
0000
0000
0000
0000
0000
0000
0000
0000
0000
0000
0000
0000
ENDCHAR

STARTCHAR C2b3f
ENCODING 11071
SWIDTH 900 0
DWIDTH 16 0
BBX 16 16 0 -2
BITMAP
0000
0000
0000
0000
0000
0000
0000
0000
0000
0000
0000
0000
0000
0000
0000
0000
ENDCHAR

STARTCHAR C2b40
ENCODING 11072
SWIDTH 900 0
DWIDTH 16 0
BBX 16 16 0 -2
BITMAP
0000
0000
0000
0000
0000
0000
0000
0000
0000
0000
0000
0000
0000
0000
0000
0000
ENDCHAR

STARTCHAR C2b41
ENCODING 11073
SWIDTH 900 0
DWIDTH 16 0
BBX 16 16 0 -2
BITMAP
0000
0000
0000
0000
0000
0000
0000
0000
0000
0000
0000
0000
0000
0000
0000
0000
ENDCHAR

STARTCHAR C2b42
ENCODING 11074
SWIDTH 900 0
DWIDTH 16 0
BBX 16 16 0 -2
BITMAP
0000
0000
0000
0000
0000
0000
0000
0000
0000
0000
0000
0000
0000
0000
0000
0000
ENDCHAR

STARTCHAR C2b43
ENCODING 11075
SWIDTH 900 0
DWIDTH 16 0
BBX 16 16 0 -2
BITMAP
0000
0000
0000
0000
0000
0000
0000
0000
0000
0000
0000
0000
0000
0000
0000
0000
ENDCHAR

STARTCHAR C2b44
ENCODING 11076
SWIDTH 900 0
DWIDTH 16 0
BBX 16 16 0 -2
BITMAP
0000
0000
0000
0000
0000
0000
0000
0000
0000
0000
0000
0000
0000
0000
0000
0000
ENDCHAR

STARTCHAR C2b45
ENCODING 11077
SWIDTH 900 0
DWIDTH 16 0
BBX 16 16 0 -2
BITMAP
0000
0000
0000
0000
0000
0000
0000
0000
0000
0000
0000
0000
0000
0000
0000
0000
ENDCHAR

STARTCHAR C2b46
ENCODING 11078
SWIDTH 900 0
DWIDTH 16 0
BBX 16 16 0 -2
BITMAP
0000
0000
0000
0000
0000
0000
0000
0000
0000
0000
0000
0000
0000
0000
0000
0000
ENDCHAR

STARTCHAR C2b47
ENCODING 11079
SWIDTH 900 0
DWIDTH 16 0
BBX 16 16 0 -2
BITMAP
0000
0000
0000
0000
0000
0000
0000
0000
0000
0000
0000
0000
0000
0000
0000
0000
ENDCHAR

STARTCHAR C2b48
ENCODING 11080
SWIDTH 900 0
DWIDTH 16 0
BBX 16 16 0 -2
BITMAP
0000
0000
0000
0000
0000
0000
0000
0000
0000
0000
0000
0000
0000
0000
0000
0000
ENDCHAR

STARTCHAR C2b49
ENCODING 11081
SWIDTH 900 0
DWIDTH 16 0
BBX 16 16 0 -2
BITMAP
0000
0000
0000
0000
0000
0000
0000
0000
0000
0000
0000
0000
0000
0000
0000
0000
ENDCHAR

STARTCHAR C2b4a
ENCODING 11082
SWIDTH 900 0
DWIDTH 16 0
BBX 16 16 0 -2
BITMAP
0000
0000
0000
0000
0000
0000
0000
0000
0000
0000
0000
0000
0000
0000
0000
0000
ENDCHAR

STARTCHAR C2b4b
ENCODING 11083
SWIDTH 900 0
DWIDTH 16 0
BBX 16 16 0 -2
BITMAP
0000
0000
0000
0000
0000
0000
0000
0000
0000
0000
0000
0000
0000
0000
0000
0000
ENDCHAR

STARTCHAR C2b4c
ENCODING 11084
SWIDTH 900 0
DWIDTH 16 0
BBX 16 16 0 -2
BITMAP
0000
0000
0000
0000
0000
0000
0000
0000
0000
0000
0000
0000
0000
0000
0000
0000
ENDCHAR

STARTCHAR C2b4d
ENCODING 11085
SWIDTH 900 0
DWIDTH 16 0
BBX 16 16 0 -2
BITMAP
0000
0000
0000
0000
0000
0000
0000
0000
0000
0000
0000
0000
0000
0000
0000
0000
ENDCHAR

STARTCHAR C2b4e
ENCODING 11086
SWIDTH 900 0
DWIDTH 16 0
BBX 16 16 0 -2
BITMAP
0000
0000
0000
0000
0000
0000
0000
0000
0000
0000
0000
0000
0000
0000
0000
0000
ENDCHAR

STARTCHAR C2b4f
ENCODING 11087
SWIDTH 900 0
DWIDTH 16 0
BBX 16 16 0 -2
BITMAP
0000
0000
0000
0000
0000
0000
0000
0000
0000
0000
0000
0000
0000
0000
0000
0000
ENDCHAR

STARTCHAR C2b50
ENCODING 11088
SWIDTH 900 0
DWIDTH 16 0
BBX 16 16 0 -2
BITMAP
0000
0000
0000
0000
0000
0000
0000
0000
0000
0000
0000
0000
0000
0000
0000
0000
ENDCHAR

STARTCHAR C2b51
ENCODING 11089
SWIDTH 900 0
DWIDTH 16 0
BBX 16 16 0 -2
BITMAP
0000
0000
0000
0000
0000
0000
0000
0000
0000
0000
0000
0000
0000
0000
0000
0000
ENDCHAR

STARTCHAR C2b52
ENCODING 11090
SWIDTH 900 0
DWIDTH 16 0
BBX 16 16 0 -2
BITMAP
0000
0000
0000
0000
0000
0000
0000
0000
0000
0000
0000
0000
0000
0000
0000
0000
ENDCHAR

STARTCHAR C2b53
ENCODING 11091
SWIDTH 900 0
DWIDTH 16 0
BBX 16 16 0 -2
BITMAP
0000
0000
0000
0000
0000
0000
0000
0000
0000
0000
0000
0000
0000
0000
0000
0000
ENDCHAR

STARTCHAR C2b54
ENCODING 11092
SWIDTH 900 0
DWIDTH 16 0
BBX 16 16 0 -2
BITMAP
0000
0000
0000
0000
0000
0000
0000
0000
0000
0000
0000
0000
0000
0000
0000
0000
ENDCHAR

STARTCHAR C2b55
ENCODING 11093
SWIDTH 900 0
DWIDTH 16 0
BBX 16 16 0 -2
BITMAP
0000
0000
0000
0000
0000
0000
0000
0000
0000
0000
0000
0000
0000
0000
0000
0000
ENDCHAR

STARTCHAR C2b56
ENCODING 11094
SWIDTH 900 0
DWIDTH 16 0
BBX 16 16 0 -2
BITMAP
0000
0000
0000
0000
0000
0000
0000
0000
0000
0000
0000
0000
0000
0000
0000
0000
ENDCHAR

STARTCHAR C2b57
ENCODING 11095
SWIDTH 900 0
DWIDTH 16 0
BBX 16 16 0 -2
BITMAP
0000
0000
0000
0000
0000
0000
0000
0000
0000
0000
0000
0000
0000
0000
0000
0000
ENDCHAR

STARTCHAR C2b58
ENCODING 11096
SWIDTH 900 0
DWIDTH 16 0
BBX 16 16 0 -2
BITMAP
0000
0000
0000
0000
0000
0000
0000
0000
0000
0000
0000
0000
0000
0000
0000
0000
ENDCHAR

STARTCHAR C2b59
ENCODING 11097
SWIDTH 900 0
DWIDTH 16 0
BBX 16 16 0 -2
BITMAP
0000
0000
0000
0000
0000
0000
0000
0000
0000
0000
0000
0000
0000
0000
0000
0000
ENDCHAR

STARTCHAR C2b5a
ENCODING 11098
SWIDTH 900 0
DWIDTH 16 0
BBX 16 16 0 -2
BITMAP
0000
0000
0000
0000
0000
0000
0000
0000
0000
0000
0000
0000
0000
0000
0000
0000
ENDCHAR

STARTCHAR C2b5b
ENCODING 11099
SWIDTH 900 0
DWIDTH 16 0
BBX 16 16 0 -2
BITMAP
0000
0000
0000
0000
0000
0000
0000
0000
0000
0000
0000
0000
0000
0000
0000
0000
ENDCHAR

STARTCHAR C2b5c
ENCODING 11100
SWIDTH 900 0
DWIDTH 16 0
BBX 16 16 0 -2
BITMAP
0000
0000
0000
0000
0000
0000
0000
0000
0000
0000
0000
0000
0000
0000
0000
0000
ENDCHAR

STARTCHAR C2b5d
ENCODING 11101
SWIDTH 900 0
DWIDTH 16 0
BBX 16 16 0 -2
BITMAP
0000
0000
0000
0000
0000
0000
0000
0000
0000
0000
0000
0000
0000
0000
0000
0000
ENDCHAR

STARTCHAR C2b5e
ENCODING 11102
SWIDTH 900 0
DWIDTH 16 0
BBX 16 16 0 -2
BITMAP
0000
0000
0000
0000
0000
0000
0000
0000
0000
0000
0000
0000
0000
0000
0000
0000
ENDCHAR

STARTCHAR C2b5f
ENCODING 11103
SWIDTH 900 0
DWIDTH 16 0
BBX 16 16 0 -2
BITMAP
0000
0000
0000
0000
0000
0000
0000
0000
0000
0000
0000
0000
0000
0000
0000
0000
ENDCHAR

STARTCHAR C2b60
ENCODING 11104
SWIDTH 900 0
DWIDTH 16 0
BBX 16 16 0 -2
BITMAP
0000
0000
0000
0000
0000
0000
0000
0000
0000
0000
0000
0000
0000
0000
0000
0000
ENDCHAR

STARTCHAR C2b61
ENCODING 11105
SWIDTH 900 0
DWIDTH 16 0
BBX 16 16 0 -2
BITMAP
0000
0000
0000
0000
0000
0000
0000
0000
0000
0000
0000
0000
0000
0000
0000
0000
ENDCHAR

STARTCHAR C2b62
ENCODING 11106
SWIDTH 900 0
DWIDTH 16 0
BBX 16 16 0 -2
BITMAP
0000
0000
0000
0000
0000
0000
0000
0000
0000
0000
0000
0000
0000
0000
0000
0000
ENDCHAR

STARTCHAR C2b63
ENCODING 11107
SWIDTH 900 0
DWIDTH 16 0
BBX 16 16 0 -2
BITMAP
0000
0000
0000
0000
0000
0000
0000
0000
0000
0000
0000
0000
0000
0000
0000
0000
ENDCHAR

STARTCHAR C2b64
ENCODING 11108
SWIDTH 900 0
DWIDTH 16 0
BBX 16 16 0 -2
BITMAP
0000
0000
0000
0000
0000
0000
0000
0000
0000
0000
0000
0000
0000
0000
0000
0000
ENDCHAR

STARTCHAR C2b65
ENCODING 11109
SWIDTH 900 0
DWIDTH 16 0
BBX 16 16 0 -2
BITMAP
0000
0000
0000
0000
0000
0000
0000
0000
0000
0000
0000
0000
0000
0000
0000
0000
ENDCHAR

STARTCHAR C2b66
ENCODING 11110
SWIDTH 900 0
DWIDTH 16 0
BBX 16 16 0 -2
BITMAP
0000
0000
0000
0000
0000
0000
0000
0000
0000
0000
0000
0000
0000
0000
0000
0000
ENDCHAR

STARTCHAR C2b67
ENCODING 11111
SWIDTH 900 0
DWIDTH 16 0
BBX 16 16 0 -2
BITMAP
0000
0000
0000
0000
0000
0000
0000
0000
0000
0000
0000
0000
0000
0000
0000
0000
ENDCHAR

STARTCHAR C2b68
ENCODING 11112
SWIDTH 900 0
DWIDTH 16 0
BBX 16 16 0 -2
BITMAP
0000
0000
0000
0000
0000
0000
0000
0000
0000
0000
0000
0000
0000
0000
0000
0000
ENDCHAR

STARTCHAR C2b69
ENCODING 11113
SWIDTH 900 0
DWIDTH 16 0
BBX 16 16 0 -2
BITMAP
0000
0000
0000
0000
0000
0000
0000
0000
0000
0000
0000
0000
0000
0000
0000
0000
ENDCHAR

STARTCHAR C2b6a
ENCODING 11114
SWIDTH 900 0
DWIDTH 16 0
BBX 16 16 0 -2
BITMAP
0000
0000
0000
0000
0000
0000
0000
0000
0000
0000
0000
0000
0000
0000
0000
0000
ENDCHAR

STARTCHAR C2b6b
ENCODING 11115
SWIDTH 900 0
DWIDTH 16 0
BBX 16 16 0 -2
BITMAP
0000
0000
0000
0000
0000
0000
0000
0000
0000
0000
0000
0000
0000
0000
0000
0000
ENDCHAR

STARTCHAR C2b6c
ENCODING 11116
SWIDTH 900 0
DWIDTH 16 0
BBX 16 16 0 -2
BITMAP
0000
0000
0000
0000
0000
0000
0000
0000
0000
0000
0000
0000
0000
0000
0000
0000
ENDCHAR

STARTCHAR C2b6d
ENCODING 11117
SWIDTH 900 0
DWIDTH 16 0
BBX 16 16 0 -2
BITMAP
0000
0000
0000
0000
0000
0000
0000
0000
0000
0000
0000
0000
0000
0000
0000
0000
ENDCHAR

STARTCHAR C2b6e
ENCODING 11118
SWIDTH 900 0
DWIDTH 16 0
BBX 16 16 0 -2
BITMAP
0000
0000
0000
0000
0000
0000
0000
0000
0000
0000
0000
0000
0000
0000
0000
0000
ENDCHAR

STARTCHAR C2b6f
ENCODING 11119
SWIDTH 900 0
DWIDTH 16 0
BBX 16 16 0 -2
BITMAP
0000
0000
0000
0000
0000
0000
0000
0000
0000
0000
0000
0000
0000
0000
0000
0000
ENDCHAR

STARTCHAR C2b70
ENCODING 11120
SWIDTH 900 0
DWIDTH 16 0
BBX 16 16 0 -2
BITMAP
0000
0000
0000
0000
0000
0000
0000
0000
0000
0000
0000
0000
0000
0000
0000
0000
ENDCHAR

STARTCHAR C2b71
ENCODING 11121
SWIDTH 900 0
DWIDTH 16 0
BBX 16 16 0 -2
BITMAP
0000
0000
0000
0000
0000
0000
0000
0000
0000
0000
0000
0000
0000
0000
0000
0000
ENDCHAR

STARTCHAR C2b72
ENCODING 11122
SWIDTH 900 0
DWIDTH 16 0
BBX 16 16 0 -2
BITMAP
0000
0000
0000
0000
0000
0000
0000
0000
0000
0000
0000
0000
0000
0000
0000
0000
ENDCHAR

STARTCHAR C2b73
ENCODING 11123
SWIDTH 900 0
DWIDTH 16 0
BBX 16 16 0 -2
BITMAP
0000
0000
0000
0000
0000
0000
0000
0000
0000
0000
0000
0000
0000
0000
0000
0000
ENDCHAR

STARTCHAR C2b74
ENCODING 11124
SWIDTH 900 0
DWIDTH 16 0
BBX 16 16 0 -2
BITMAP
0000
0000
0000
0000
0000
0000
0000
0000
0000
0000
0000
0000
0000
0000
0000
0000
ENDCHAR

STARTCHAR C2b75
ENCODING 11125
SWIDTH 900 0
DWIDTH 16 0
BBX 16 16 0 -2
BITMAP
0000
0000
0000
0000
0000
0000
0000
0000
0000
0000
0000
0000
0000
0000
0000
0000
ENDCHAR

STARTCHAR C2b76
ENCODING 11126
SWIDTH 900 0
DWIDTH 16 0
BBX 16 16 0 -2
BITMAP
0000
0000
0000
0000
0000
0000
0000
0000
0000
0000
0000
0000
0000
0000
0000
0000
ENDCHAR

STARTCHAR C2b77
ENCODING 11127
SWIDTH 900 0
DWIDTH 16 0
BBX 16 16 0 -2
BITMAP
0000
0000
0000
0000
0000
0000
0000
0000
0000
0000
0000
0000
0000
0000
0000
0000
ENDCHAR

STARTCHAR C2b78
ENCODING 11128
SWIDTH 900 0
DWIDTH 16 0
BBX 16 16 0 -2
BITMAP
0000
0000
0000
0000
0000
0000
0000
0000
0000
0000
0000
0000
0000
0000
0000
0000
ENDCHAR

STARTCHAR C2b79
ENCODING 11129
SWIDTH 900 0
DWIDTH 16 0
BBX 16 16 0 -2
BITMAP
0000
0000
0000
0000
0000
0000
0000
0000
0000
0000
0000
0000
0000
0000
0000
0000
ENDCHAR

STARTCHAR C2b7a
ENCODING 11130
SWIDTH 900 0
DWIDTH 16 0
BBX 16 16 0 -2
BITMAP
0000
0000
0000
0000
0000
0000
0000
0000
0000
0000
0000
0000
0000
0000
0000
0000
ENDCHAR

STARTCHAR C2b7b
ENCODING 11131
SWIDTH 900 0
DWIDTH 16 0
BBX 16 16 0 -2
BITMAP
0000
0000
0000
0000
0000
0000
0000
0000
0000
0000
0000
0000
0000
0000
0000
0000
ENDCHAR

STARTCHAR C2b7c
ENCODING 11132
SWIDTH 900 0
DWIDTH 16 0
BBX 16 16 0 -2
BITMAP
0000
0000
0000
0000
0000
0000
0000
0000
0000
0000
0000
0000
0000
0000
0000
0000
ENDCHAR

STARTCHAR C2b7d
ENCODING 11133
SWIDTH 900 0
DWIDTH 16 0
BBX 16 16 0 -2
BITMAP
0000
0000
0000
0000
0000
0000
0000
0000
0000
0000
0000
0000
0000
0000
0000
0000
ENDCHAR

STARTCHAR C2b7e
ENCODING 11134
SWIDTH 900 0
DWIDTH 16 0
BBX 16 16 0 -2
BITMAP
0000
0000
0000
0000
0000
0000
0000
0000
0000
0000
0000
0000
0000
0000
0000
0000
ENDCHAR

STARTCHAR C2c21
ENCODING 11297
SWIDTH 900 0
DWIDTH 16 0
BBX 16 16 0 -2
BITMAP
0000
0000
0000
0000
0000
0000
0000
0000
0000
0000
0000
0000
0000
0000
0000
0000
ENDCHAR

STARTCHAR C2c22
ENCODING 11298
SWIDTH 900 0
DWIDTH 16 0
BBX 16 16 0 -2
BITMAP
0000
0000
0000
0000
0000
0000
0000
0000
0000
0000
0000
0000
0000
0000
0000
0000
ENDCHAR

STARTCHAR C2c23
ENCODING 11299
SWIDTH 900 0
DWIDTH 16 0
BBX 16 16 0 -2
BITMAP
0000
0000
0000
0000
0000
0000
0000
0000
0000
0000
0000
0000
0000
0000
0000
0000
ENDCHAR

STARTCHAR C2c24
ENCODING 11300
SWIDTH 900 0
DWIDTH 16 0
BBX 16 16 0 -2
BITMAP
0000
0000
0000
0000
0000
0000
0000
0000
0000
0000
0000
0000
0000
0000
0000
0000
ENDCHAR

STARTCHAR C2c25
ENCODING 11301
SWIDTH 900 0
DWIDTH 16 0
BBX 16 16 0 -2
BITMAP
0000
0000
0000
0000
0000
0000
0000
0000
0000
0000
0000
0000
0000
0000
0000
0000
ENDCHAR

STARTCHAR C2c26
ENCODING 11302
SWIDTH 900 0
DWIDTH 16 0
BBX 16 16 0 -2
BITMAP
0000
0000
0000
0000
0000
0000
0000
0000
0000
0000
0000
0000
0000
0000
0000
0000
ENDCHAR

STARTCHAR C2c27
ENCODING 11303
SWIDTH 900 0
DWIDTH 16 0
BBX 16 16 0 -2
BITMAP
0000
0000
0000
0000
0000
0000
0000
0000
0000
0000
0000
0000
0000
0000
0000
0000
ENDCHAR

STARTCHAR C2c28
ENCODING 11304
SWIDTH 900 0
DWIDTH 16 0
BBX 16 16 0 -2
BITMAP
0000
0000
0000
0000
0000
0000
0000
0000
0000
0000
0000
0000
0000
0000
0000
0000
ENDCHAR

STARTCHAR C2c29
ENCODING 11305
SWIDTH 900 0
DWIDTH 16 0
BBX 16 16 0 -2
BITMAP
0000
0000
0000
0000
0000
0000
0000
0000
0000
0000
0000
0000
0000
0000
0000
0000
ENDCHAR

STARTCHAR C2c2a
ENCODING 11306
SWIDTH 900 0
DWIDTH 16 0
BBX 16 16 0 -2
BITMAP
0000
0000
0000
0000
0000
0000
0000
0000
0000
0000
0000
0000
0000
0000
0000
0000
ENDCHAR

STARTCHAR C2c2b
ENCODING 11307
SWIDTH 900 0
DWIDTH 16 0
BBX 16 16 0 -2
BITMAP
0000
0000
0000
0000
0000
0000
0000
0000
0000
0000
0000
0000
0000
0000
0000
0000
ENDCHAR

STARTCHAR C2c2c
ENCODING 11308
SWIDTH 900 0
DWIDTH 16 0
BBX 16 16 0 -2
BITMAP
0000
0000
0000
0000
0000
0000
0000
0000
0000
0000
0000
0000
0000
0000
0000
0000
ENDCHAR

STARTCHAR C2c2d
ENCODING 11309
SWIDTH 900 0
DWIDTH 16 0
BBX 16 16 0 -2
BITMAP
0000
0000
0000
0000
0000
0000
0000
0000
0000
0000
0000
0000
0000
0000
0000
0000
ENDCHAR

STARTCHAR C2c2e
ENCODING 11310
SWIDTH 900 0
DWIDTH 16 0
BBX 16 16 0 -2
BITMAP
0000
0000
0000
0000
0000
0000
0000
0000
0000
0000
0000
0000
0000
0000
0000
0000
ENDCHAR

STARTCHAR C2c2f
ENCODING 11311
SWIDTH 900 0
DWIDTH 16 0
BBX 16 16 0 -2
BITMAP
0000
0000
0000
0000
0000
0000
0000
0000
0000
0000
0000
0000
0000
0000
0000
0000
ENDCHAR

STARTCHAR C2c30
ENCODING 11312
SWIDTH 900 0
DWIDTH 16 0
BBX 16 16 0 -2
BITMAP
0000
0000
0000
0000
0000
0000
0000
0000
0000
0000
0000
0000
0000
0000
0000
0000
ENDCHAR

STARTCHAR C2c31
ENCODING 11313
SWIDTH 900 0
DWIDTH 16 0
BBX 16 16 0 -2
BITMAP
0000
0000
0000
0000
0000
0000
0000
0000
0000
0000
0000
0000
0000
0000
0000
0000
ENDCHAR

STARTCHAR C2c32
ENCODING 11314
SWIDTH 900 0
DWIDTH 16 0
BBX 16 16 0 -2
BITMAP
0000
0000
0000
0000
0000
0000
0000
0000
0000
0000
0000
0000
0000
0000
0000
0000
ENDCHAR

STARTCHAR C2c33
ENCODING 11315
SWIDTH 900 0
DWIDTH 16 0
BBX 16 16 0 -2
BITMAP
0000
0000
0000
0000
0000
0000
0000
0000
0000
0000
0000
0000
0000
0000
0000
0000
ENDCHAR

STARTCHAR C2c34
ENCODING 11316
SWIDTH 900 0
DWIDTH 16 0
BBX 16 16 0 -2
BITMAP
0000
0000
0000
0000
0000
0000
0000
0000
0000
0000
0000
0000
0000
0000
0000
0000
ENDCHAR

STARTCHAR C2c35
ENCODING 11317
SWIDTH 900 0
DWIDTH 16 0
BBX 16 16 0 -2
BITMAP
0000
0000
0000
0000
0000
0000
0000
0000
0000
0000
0000
0000
0000
0000
0000
0000
ENDCHAR

STARTCHAR C2c36
ENCODING 11318
SWIDTH 900 0
DWIDTH 16 0
BBX 16 16 0 -2
BITMAP
0000
0000
0000
0000
0000
0000
0000
0000
0000
0000
0000
0000
0000
0000
0000
0000
ENDCHAR

STARTCHAR C2c37
ENCODING 11319
SWIDTH 900 0
DWIDTH 16 0
BBX 16 16 0 -2
BITMAP
0000
0000
0000
0000
0000
0000
0000
0000
0000
0000
0000
0000
0000
0000
0000
0000
ENDCHAR

STARTCHAR C2c38
ENCODING 11320
SWIDTH 900 0
DWIDTH 16 0
BBX 16 16 0 -2
BITMAP
0000
0000
0000
0000
0000
0000
0000
0000
0000
0000
0000
0000
0000
0000
0000
0000
ENDCHAR

STARTCHAR C2c39
ENCODING 11321
SWIDTH 900 0
DWIDTH 16 0
BBX 16 16 0 -2
BITMAP
0000
0000
0000
0000
0000
0000
0000
0000
0000
0000
0000
0000
0000
0000
0000
0000
ENDCHAR

STARTCHAR C2c3a
ENCODING 11322
SWIDTH 900 0
DWIDTH 16 0
BBX 16 16 0 -2
BITMAP
0000
0000
0000
0000
0000
0000
0000
0000
0000
0000
0000
0000
0000
0000
0000
0000
ENDCHAR

STARTCHAR C2c3b
ENCODING 11323
SWIDTH 900 0
DWIDTH 16 0
BBX 16 16 0 -2
BITMAP
0000
0000
0000
0000
0000
0000
0000
0000
0000
0000
0000
0000
0000
0000
0000
0000
ENDCHAR

STARTCHAR C2c3c
ENCODING 11324
SWIDTH 900 0
DWIDTH 16 0
BBX 16 16 0 -2
BITMAP
0000
0000
0000
0000
0000
0000
0000
0000
0000
0000
0000
0000
0000
0000
0000
0000
ENDCHAR

STARTCHAR C2c3d
ENCODING 11325
SWIDTH 900 0
DWIDTH 16 0
BBX 16 16 0 -2
BITMAP
0000
0000
0000
0000
0000
0000
0000
0000
0000
0000
0000
0000
0000
0000
0000
0000
ENDCHAR

STARTCHAR C2c3e
ENCODING 11326
SWIDTH 900 0
DWIDTH 16 0
BBX 16 16 0 -2
BITMAP
0000
0000
0000
0000
0000
0000
0000
0000
0000
0000
0000
0000
0000
0000
0000
0000
ENDCHAR

STARTCHAR C2c3f
ENCODING 11327
SWIDTH 900 0
DWIDTH 16 0
BBX 16 16 0 -2
BITMAP
0000
0000
0000
0000
0000
0000
0000
0000
0000
0000
0000
0000
0000
0000
0000
0000
ENDCHAR

STARTCHAR C2c40
ENCODING 11328
SWIDTH 900 0
DWIDTH 16 0
BBX 16 16 0 -2
BITMAP
0000
0000
0000
0000
0000
0000
0000
0000
0000
0000
0000
0000
0000
0000
0000
0000
ENDCHAR

STARTCHAR C2c41
ENCODING 11329
SWIDTH 900 0
DWIDTH 16 0
BBX 16 16 0 -2
BITMAP
0000
0000
0000
0000
0000
0000
0000
0000
0000
0000
0000
0000
0000
0000
0000
0000
ENDCHAR

STARTCHAR C2c42
ENCODING 11330
SWIDTH 900 0
DWIDTH 16 0
BBX 16 16 0 -2
BITMAP
0000
0000
0000
0000
0000
0000
0000
0000
0000
0000
0000
0000
0000
0000
0000
0000
ENDCHAR

STARTCHAR C2c43
ENCODING 11331
SWIDTH 900 0
DWIDTH 16 0
BBX 16 16 0 -2
BITMAP
0000
0000
0000
0000
0000
0000
0000
0000
0000
0000
0000
0000
0000
0000
0000
0000
ENDCHAR

STARTCHAR C2c44
ENCODING 11332
SWIDTH 900 0
DWIDTH 16 0
BBX 16 16 0 -2
BITMAP
0000
0000
0000
0000
0000
0000
0000
0000
0000
0000
0000
0000
0000
0000
0000
0000
ENDCHAR

STARTCHAR C2c45
ENCODING 11333
SWIDTH 900 0
DWIDTH 16 0
BBX 16 16 0 -2
BITMAP
0000
0000
0000
0000
0000
0000
0000
0000
0000
0000
0000
0000
0000
0000
0000
0000
ENDCHAR

STARTCHAR C2c46
ENCODING 11334
SWIDTH 900 0
DWIDTH 16 0
BBX 16 16 0 -2
BITMAP
0000
0000
0000
0000
0000
0000
0000
0000
0000
0000
0000
0000
0000
0000
0000
0000
ENDCHAR

STARTCHAR C2c47
ENCODING 11335
SWIDTH 900 0
DWIDTH 16 0
BBX 16 16 0 -2
BITMAP
0000
0000
0000
0000
0000
0000
0000
0000
0000
0000
0000
0000
0000
0000
0000
0000
ENDCHAR

STARTCHAR C2c48
ENCODING 11336
SWIDTH 900 0
DWIDTH 16 0
BBX 16 16 0 -2
BITMAP
0000
0000
0000
0000
0000
0000
0000
0000
0000
0000
0000
0000
0000
0000
0000
0000
ENDCHAR

STARTCHAR C2c49
ENCODING 11337
SWIDTH 900 0
DWIDTH 16 0
BBX 16 16 0 -2
BITMAP
0000
0000
0000
0000
0000
0000
0000
0000
0000
0000
0000
0000
0000
0000
0000
0000
ENDCHAR

STARTCHAR C2c4a
ENCODING 11338
SWIDTH 900 0
DWIDTH 16 0
BBX 16 16 0 -2
BITMAP
0000
0000
0000
0000
0000
0000
0000
0000
0000
0000
0000
0000
0000
0000
0000
0000
ENDCHAR

STARTCHAR C2c4b
ENCODING 11339
SWIDTH 900 0
DWIDTH 16 0
BBX 16 16 0 -2
BITMAP
0000
0000
0000
0000
0000
0000
0000
0000
0000
0000
0000
0000
0000
0000
0000
0000
ENDCHAR

STARTCHAR C2c4c
ENCODING 11340
SWIDTH 900 0
DWIDTH 16 0
BBX 16 16 0 -2
BITMAP
0000
0000
0000
0000
0000
0000
0000
0000
0000
0000
0000
0000
0000
0000
0000
0000
ENDCHAR

STARTCHAR C2c4d
ENCODING 11341
SWIDTH 900 0
DWIDTH 16 0
BBX 16 16 0 -2
BITMAP
0000
0000
0000
0000
0000
0000
0000
0000
0000
0000
0000
0000
0000
0000
0000
0000
ENDCHAR

STARTCHAR C2c4e
ENCODING 11342
SWIDTH 900 0
DWIDTH 16 0
BBX 16 16 0 -2
BITMAP
0000
0000
0000
0000
0000
0000
0000
0000
0000
0000
0000
0000
0000
0000
0000
0000
ENDCHAR

STARTCHAR C2c4f
ENCODING 11343
SWIDTH 900 0
DWIDTH 16 0
BBX 16 16 0 -2
BITMAP
0000
0000
0000
0000
0000
0000
0000
0000
0000
0000
0000
0000
0000
0000
0000
0000
ENDCHAR

STARTCHAR C2c50
ENCODING 11344
SWIDTH 900 0
DWIDTH 16 0
BBX 16 16 0 -2
BITMAP
0000
0000
0000
0000
0000
0000
0000
0000
0000
0000
0000
0000
0000
0000
0000
0000
ENDCHAR

STARTCHAR C2c51
ENCODING 11345
SWIDTH 900 0
DWIDTH 16 0
BBX 16 16 0 -2
BITMAP
0000
0000
0000
0000
0000
0000
0000
0000
0000
0000
0000
0000
0000
0000
0000
0000
ENDCHAR

STARTCHAR C2c52
ENCODING 11346
SWIDTH 900 0
DWIDTH 16 0
BBX 16 16 0 -2
BITMAP
0000
0000
0000
0000
0000
0000
0000
0000
0000
0000
0000
0000
0000
0000
0000
0000
ENDCHAR

STARTCHAR C2c53
ENCODING 11347
SWIDTH 900 0
DWIDTH 16 0
BBX 16 16 0 -2
BITMAP
0000
0000
0000
0000
0000
0000
0000
0000
0000
0000
0000
0000
0000
0000
0000
0000
ENDCHAR

STARTCHAR C2c54
ENCODING 11348
SWIDTH 900 0
DWIDTH 16 0
BBX 16 16 0 -2
BITMAP
0000
0000
0000
0000
0000
0000
0000
0000
0000
0000
0000
0000
0000
0000
0000
0000
ENDCHAR

STARTCHAR C2c55
ENCODING 11349
SWIDTH 900 0
DWIDTH 16 0
BBX 16 16 0 -2
BITMAP
0000
0000
0000
0000
0000
0000
0000
0000
0000
0000
0000
0000
0000
0000
0000
0000
ENDCHAR

STARTCHAR C2c56
ENCODING 11350
SWIDTH 900 0
DWIDTH 16 0
BBX 16 16 0 -2
BITMAP
0000
0000
0000
0000
0000
0000
0000
0000
0000
0000
0000
0000
0000
0000
0000
0000
ENDCHAR

STARTCHAR C2c57
ENCODING 11351
SWIDTH 900 0
DWIDTH 16 0
BBX 16 16 0 -2
BITMAP
0000
0000
0000
0000
0000
0000
0000
0000
0000
0000
0000
0000
0000
0000
0000
0000
ENDCHAR

STARTCHAR C2c58
ENCODING 11352
SWIDTH 900 0
DWIDTH 16 0
BBX 16 16 0 -2
BITMAP
0000
0000
0000
0000
0000
0000
0000
0000
0000
0000
0000
0000
0000
0000
0000
0000
ENDCHAR

STARTCHAR C2c59
ENCODING 11353
SWIDTH 900 0
DWIDTH 16 0
BBX 16 16 0 -2
BITMAP
0000
0000
0000
0000
0000
0000
0000
0000
0000
0000
0000
0000
0000
0000
0000
0000
ENDCHAR

STARTCHAR C2c5a
ENCODING 11354
SWIDTH 900 0
DWIDTH 16 0
BBX 16 16 0 -2
BITMAP
0000
0000
0000
0000
0000
0000
0000
0000
0000
0000
0000
0000
0000
0000
0000
0000
ENDCHAR

STARTCHAR C2c5b
ENCODING 11355
SWIDTH 900 0
DWIDTH 16 0
BBX 16 16 0 -2
BITMAP
0000
0000
0000
0000
0000
0000
0000
0000
0000
0000
0000
0000
0000
0000
0000
0000
ENDCHAR

STARTCHAR C2c5c
ENCODING 11356
SWIDTH 900 0
DWIDTH 16 0
BBX 16 16 0 -2
BITMAP
0000
0000
0000
0000
0000
0000
0000
0000
0000
0000
0000
0000
0000
0000
0000
0000
ENDCHAR

STARTCHAR C2c5d
ENCODING 11357
SWIDTH 900 0
DWIDTH 16 0
BBX 16 16 0 -2
BITMAP
0000
0000
0000
0000
0000
0000
0000
0000
0000
0000
0000
0000
0000
0000
0000
0000
ENDCHAR

STARTCHAR C2c5e
ENCODING 11358
SWIDTH 900 0
DWIDTH 16 0
BBX 16 16 0 -2
BITMAP
0000
0000
0000
0000
0000
0000
0000
0000
0000
0000
0000
0000
0000
0000
0000
0000
ENDCHAR

STARTCHAR C2c5f
ENCODING 11359
SWIDTH 900 0
DWIDTH 16 0
BBX 16 16 0 -2
BITMAP
0000
0000
0000
0000
0000
0000
0000
0000
0000
0000
0000
0000
0000
0000
0000
0000
ENDCHAR

STARTCHAR C2c60
ENCODING 11360
SWIDTH 900 0
DWIDTH 16 0
BBX 16 16 0 -2
BITMAP
0000
0000
0000
0000
0000
0000
0000
0000
0000
0000
0000
0000
0000
0000
0000
0000
ENDCHAR

STARTCHAR C2c61
ENCODING 11361
SWIDTH 900 0
DWIDTH 16 0
BBX 16 16 0 -2
BITMAP
0000
0000
0000
0000
0000
0000
0000
0000
0000
0000
0000
0000
0000
0000
0000
0000
ENDCHAR

STARTCHAR C2c62
ENCODING 11362
SWIDTH 900 0
DWIDTH 16 0
BBX 16 16 0 -2
BITMAP
0000
0000
0000
0000
0000
0000
0000
0000
0000
0000
0000
0000
0000
0000
0000
0000
ENDCHAR

STARTCHAR C2c63
ENCODING 11363
SWIDTH 900 0
DWIDTH 16 0
BBX 16 16 0 -2
BITMAP
0000
0000
0000
0000
0000
0000
0000
0000
0000
0000
0000
0000
0000
0000
0000
0000
ENDCHAR

STARTCHAR C2c64
ENCODING 11364
SWIDTH 900 0
DWIDTH 16 0
BBX 16 16 0 -2
BITMAP
0000
0000
0000
0000
0000
0000
0000
0000
0000
0000
0000
0000
0000
0000
0000
0000
ENDCHAR

STARTCHAR C2c65
ENCODING 11365
SWIDTH 900 0
DWIDTH 16 0
BBX 16 16 0 -2
BITMAP
0000
0000
0000
0000
0000
0000
0000
0000
0000
0000
0000
0000
0000
0000
0000
0000
ENDCHAR

STARTCHAR C2c66
ENCODING 11366
SWIDTH 900 0
DWIDTH 16 0
BBX 16 16 0 -2
BITMAP
0000
0000
0000
0000
0000
0000
0000
0000
0000
0000
0000
0000
0000
0000
0000
0000
ENDCHAR

STARTCHAR C2c67
ENCODING 11367
SWIDTH 900 0
DWIDTH 16 0
BBX 16 16 0 -2
BITMAP
0000
0000
0000
0000
0000
0000
0000
0000
0000
0000
0000
0000
0000
0000
0000
0000
ENDCHAR

STARTCHAR C2c68
ENCODING 11368
SWIDTH 900 0
DWIDTH 16 0
BBX 16 16 0 -2
BITMAP
0000
0000
0000
0000
0000
0000
0000
0000
0000
0000
0000
0000
0000
0000
0000
0000
ENDCHAR

STARTCHAR C2c69
ENCODING 11369
SWIDTH 900 0
DWIDTH 16 0
BBX 16 16 0 -2
BITMAP
0000
0000
0000
0000
0000
0000
0000
0000
0000
0000
0000
0000
0000
0000
0000
0000
ENDCHAR

STARTCHAR C2c6a
ENCODING 11370
SWIDTH 900 0
DWIDTH 16 0
BBX 16 16 0 -2
BITMAP
0000
0000
0000
0000
0000
0000
0000
0000
0000
0000
0000
0000
0000
0000
0000
0000
ENDCHAR

STARTCHAR C2c6b
ENCODING 11371
SWIDTH 900 0
DWIDTH 16 0
BBX 16 16 0 -2
BITMAP
0000
0000
0000
0000
0000
0000
0000
0000
0000
0000
0000
0000
0000
0000
0000
0000
ENDCHAR

STARTCHAR C2c6c
ENCODING 11372
SWIDTH 900 0
DWIDTH 16 0
BBX 16 16 0 -2
BITMAP
0000
0000
0000
0000
0000
0000
0000
0000
0000
0000
0000
0000
0000
0000
0000
0000
ENDCHAR

STARTCHAR C2c6d
ENCODING 11373
SWIDTH 900 0
DWIDTH 16 0
BBX 16 16 0 -2
BITMAP
0000
0000
0000
0000
0000
0000
0000
0000
0000
0000
0000
0000
0000
0000
0000
0000
ENDCHAR

STARTCHAR C2c6e
ENCODING 11374
SWIDTH 900 0
DWIDTH 16 0
BBX 16 16 0 -2
BITMAP
0000
0000
0000
0000
0000
0000
0000
0000
0000
0000
0000
0000
0000
0000
0000
0000
ENDCHAR

STARTCHAR C2c6f
ENCODING 11375
SWIDTH 900 0
DWIDTH 16 0
BBX 16 16 0 -2
BITMAP
0000
0000
0000
0000
0000
0000
0000
0000
0000
0000
0000
0000
0000
0000
0000
0000
ENDCHAR

STARTCHAR C2c70
ENCODING 11376
SWIDTH 900 0
DWIDTH 16 0
BBX 16 16 0 -2
BITMAP
0000
0000
0000
0000
0000
0000
0000
0000
0000
0000
0000
0000
0000
0000
0000
0000
ENDCHAR

STARTCHAR C2c71
ENCODING 11377
SWIDTH 900 0
DWIDTH 16 0
BBX 16 16 0 -2
BITMAP
0000
0000
0000
0000
0000
0000
0000
0000
0000
0000
0000
0000
0000
0000
0000
0000
ENDCHAR

STARTCHAR C2c72
ENCODING 11378
SWIDTH 900 0
DWIDTH 16 0
BBX 16 16 0 -2
BITMAP
0000
0000
0000
0000
0000
0000
0000
0000
0000
0000
0000
0000
0000
0000
0000
0000
ENDCHAR

STARTCHAR C2c73
ENCODING 11379
SWIDTH 900 0
DWIDTH 16 0
BBX 16 16 0 -2
BITMAP
0000
0000
0000
0000
0000
0000
0000
0000
0000
0000
0000
0000
0000
0000
0000
0000
ENDCHAR

STARTCHAR C2c74
ENCODING 11380
SWIDTH 900 0
DWIDTH 16 0
BBX 16 16 0 -2
BITMAP
0000
0000
0000
0000
0000
0000
0000
0000
0000
0000
0000
0000
0000
0000
0000
0000
ENDCHAR

STARTCHAR C2c75
ENCODING 11381
SWIDTH 900 0
DWIDTH 16 0
BBX 16 16 0 -2
BITMAP
0000
0000
0000
0000
0000
0000
0000
0000
0000
0000
0000
0000
0000
0000
0000
0000
ENDCHAR

STARTCHAR C2c76
ENCODING 11382
SWIDTH 900 0
DWIDTH 16 0
BBX 16 16 0 -2
BITMAP
0000
0000
0000
0000
0000
0000
0000
0000
0000
0000
0000
0000
0000
0000
0000
0000
ENDCHAR

STARTCHAR C2c77
ENCODING 11383
SWIDTH 900 0
DWIDTH 16 0
BBX 16 16 0 -2
BITMAP
0000
0000
0000
0000
0000
0000
0000
0000
0000
0000
0000
0000
0000
0000
0000
0000
ENDCHAR

STARTCHAR C2c78
ENCODING 11384
SWIDTH 900 0
DWIDTH 16 0
BBX 16 16 0 -2
BITMAP
0000
0000
0000
0000
0000
0000
0000
0000
0000
0000
0000
0000
0000
0000
0000
0000
ENDCHAR

STARTCHAR C2c79
ENCODING 11385
SWIDTH 900 0
DWIDTH 16 0
BBX 16 16 0 -2
BITMAP
0000
0000
0000
0000
0000
0000
0000
0000
0000
0000
0000
0000
0000
0000
0000
0000
ENDCHAR

STARTCHAR C2c7a
ENCODING 11386
SWIDTH 900 0
DWIDTH 16 0
BBX 16 16 0 -2
BITMAP
0000
0000
0000
0000
0000
0000
0000
0000
0000
0000
0000
0000
0000
0000
0000
0000
ENDCHAR

STARTCHAR C2c7b
ENCODING 11387
SWIDTH 900 0
DWIDTH 16 0
BBX 16 16 0 -2
BITMAP
0000
0000
0000
0000
0000
0000
0000
0000
0000
0000
0000
0000
0000
0000
0000
0000
ENDCHAR

STARTCHAR C2c7c
ENCODING 11388
SWIDTH 900 0
DWIDTH 16 0
BBX 16 16 0 -2
BITMAP
0000
0000
0000
0000
0000
0000
0000
0000
0000
0000
0000
0000
0000
0000
0000
0000
ENDCHAR

STARTCHAR C2c7d
ENCODING 11389
SWIDTH 900 0
DWIDTH 16 0
BBX 16 16 0 -2
BITMAP
0000
0000
0000
0000
0000
0000
0000
0000
0000
0000
0000
0000
0000
0000
0000
0000
ENDCHAR

STARTCHAR C2c7e
ENCODING 11390
SWIDTH 900 0
DWIDTH 16 0
BBX 16 16 0 -2
BITMAP
0000
0000
0000
0000
0000
0000
0000
0000
0000
0000
0000
0000
0000
0000
0000
0000
ENDCHAR

STARTCHAR C2d21
ENCODING 11553
SWIDTH 900 0
DWIDTH 16 0
BBX 16 16 0 -2
BITMAP
0000
0000
0000
0000
0000
0000
0000
0000
0000
0000
0000
0000
0000
0000
0000
0000
ENDCHAR

STARTCHAR C2d22
ENCODING 11554
SWIDTH 900 0
DWIDTH 16 0
BBX 16 16 0 -2
BITMAP
0000
0000
0000
0000
0000
0000
0000
0000
0000
0000
0000
0000
0000
0000
0000
0000
ENDCHAR

STARTCHAR C2d23
ENCODING 11555
SWIDTH 900 0
DWIDTH 16 0
BBX 16 16 0 -2
BITMAP
0000
0000
0000
0000
0000
0000
0000
0000
0000
0000
0000
0000
0000
0000
0000
0000
ENDCHAR

STARTCHAR C2d24
ENCODING 11556
SWIDTH 900 0
DWIDTH 16 0
BBX 16 16 0 -2
BITMAP
0000
0000
0000
0000
0000
0000
0000
0000
0000
0000
0000
0000
0000
0000
0000
0000
ENDCHAR

STARTCHAR C2d25
ENCODING 11557
SWIDTH 900 0
DWIDTH 16 0
BBX 16 16 0 -2
BITMAP
0000
0000
0000
0000
0000
0000
0000
0000
0000
0000
0000
0000
0000
0000
0000
0000
ENDCHAR

STARTCHAR C2d26
ENCODING 11558
SWIDTH 900 0
DWIDTH 16 0
BBX 16 16 0 -2
BITMAP
0000
0000
0000
0000
0000
0000
0000
0000
0000
0000
0000
0000
0000
0000
0000
0000
ENDCHAR

STARTCHAR C2d27
ENCODING 11559
SWIDTH 900 0
DWIDTH 16 0
BBX 16 16 0 -2
BITMAP
0000
0000
0000
0000
0000
0000
0000
0000
0000
0000
0000
0000
0000
0000
0000
0000
ENDCHAR

STARTCHAR C2d28
ENCODING 11560
SWIDTH 900 0
DWIDTH 16 0
BBX 16 16 0 -2
BITMAP
0000
0000
0000
0000
0000
0000
0000
0000
0000
0000
0000
0000
0000
0000
0000
0000
ENDCHAR

STARTCHAR C2d29
ENCODING 11561
SWIDTH 900 0
DWIDTH 16 0
BBX 16 16 0 -2
BITMAP
0000
0000
0000
0000
0000
0000
0000
0000
0000
0000
0000
0000
0000
0000
0000
0000
ENDCHAR

STARTCHAR C2d2a
ENCODING 11562
SWIDTH 900 0
DWIDTH 16 0
BBX 16 16 0 -2
BITMAP
0000
0000
0000
0000
0000
0000
0000
0000
0000
0000
0000
0000
0000
0000
0000
0000
ENDCHAR

STARTCHAR C2d2b
ENCODING 11563
SWIDTH 900 0
DWIDTH 16 0
BBX 16 16 0 -2
BITMAP
0000
0000
0000
0000
0000
0000
0000
0000
0000
0000
0000
0000
0000
0000
0000
0000
ENDCHAR

STARTCHAR C2d2c
ENCODING 11564
SWIDTH 900 0
DWIDTH 16 0
BBX 16 16 0 -2
BITMAP
0000
0000
0000
0000
0000
0000
0000
0000
0000
0000
0000
0000
0000
0000
0000
0000
ENDCHAR

STARTCHAR C2d2d
ENCODING 11565
SWIDTH 900 0
DWIDTH 16 0
BBX 16 16 0 -2
BITMAP
0000
0000
0000
0000
0000
0000
0000
0000
0000
0000
0000
0000
0000
0000
0000
0000
ENDCHAR

STARTCHAR C2d2e
ENCODING 11566
SWIDTH 900 0
DWIDTH 16 0
BBX 16 16 0 -2
BITMAP
0000
0000
0000
0000
0000
0000
0000
0000
0000
0000
0000
0000
0000
0000
0000
0000
ENDCHAR

STARTCHAR C2d2f
ENCODING 11567
SWIDTH 900 0
DWIDTH 16 0
BBX 16 16 0 -2
BITMAP
0000
0000
0000
0000
0000
0000
0000
0000
0000
0000
0000
0000
0000
0000
0000
0000
ENDCHAR

STARTCHAR C2d30
ENCODING 11568
SWIDTH 900 0
DWIDTH 16 0
BBX 16 16 0 -2
BITMAP
0000
0000
0000
0000
0000
0000
0000
0000
0000
0000
0000
0000
0000
0000
0000
0000
ENDCHAR

STARTCHAR C2d31
ENCODING 11569
SWIDTH 900 0
DWIDTH 16 0
BBX 16 16 0 -2
BITMAP
0000
0000
0000
0000
0000
0000
0000
0000
0000
0000
0000
0000
0000
0000
0000
0000
ENDCHAR

STARTCHAR C2d32
ENCODING 11570
SWIDTH 900 0
DWIDTH 16 0
BBX 16 16 0 -2
BITMAP
0000
0000
0000
0000
0000
0000
0000
0000
0000
0000
0000
0000
0000
0000
0000
0000
ENDCHAR

STARTCHAR C2d33
ENCODING 11571
SWIDTH 900 0
DWIDTH 16 0
BBX 16 16 0 -2
BITMAP
0000
0000
0000
0000
0000
0000
0000
0000
0000
0000
0000
0000
0000
0000
0000
0000
ENDCHAR

STARTCHAR C2d34
ENCODING 11572
SWIDTH 900 0
DWIDTH 16 0
BBX 16 16 0 -2
BITMAP
0000
0000
0000
0000
0000
0000
0000
0000
0000
0000
0000
0000
0000
0000
0000
0000
ENDCHAR

STARTCHAR C2d35
ENCODING 11573
SWIDTH 900 0
DWIDTH 16 0
BBX 16 16 0 -2
BITMAP
0000
0000
0000
0000
0000
0000
0000
0000
0000
0000
0000
0000
0000
0000
0000
0000
ENDCHAR

STARTCHAR C2d36
ENCODING 11574
SWIDTH 900 0
DWIDTH 16 0
BBX 16 16 0 -2
BITMAP
0000
0000
0000
0000
0000
0000
0000
0000
0000
0000
0000
0000
0000
0000
0000
0000
ENDCHAR

STARTCHAR C2d37
ENCODING 11575
SWIDTH 900 0
DWIDTH 16 0
BBX 16 16 0 -2
BITMAP
0000
0000
0000
0000
0000
0000
0000
0000
0000
0000
0000
0000
0000
0000
0000
0000
ENDCHAR

STARTCHAR C2d38
ENCODING 11576
SWIDTH 900 0
DWIDTH 16 0
BBX 16 16 0 -2
BITMAP
0000
0000
0000
0000
0000
0000
0000
0000
0000
0000
0000
0000
0000
0000
0000
0000
ENDCHAR

STARTCHAR C2d39
ENCODING 11577
SWIDTH 900 0
DWIDTH 16 0
BBX 16 16 0 -2
BITMAP
0000
0000
0000
0000
0000
0000
0000
0000
0000
0000
0000
0000
0000
0000
0000
0000
ENDCHAR

STARTCHAR C2d3a
ENCODING 11578
SWIDTH 900 0
DWIDTH 16 0
BBX 16 16 0 -2
BITMAP
0000
0000
0000
0000
0000
0000
0000
0000
0000
0000
0000
0000
0000
0000
0000
0000
ENDCHAR

STARTCHAR C2d3b
ENCODING 11579
SWIDTH 900 0
DWIDTH 16 0
BBX 16 16 0 -2
BITMAP
0000
0000
0000
0000
0000
0000
0000
0000
0000
0000
0000
0000
0000
0000
0000
0000
ENDCHAR

STARTCHAR C2d3c
ENCODING 11580
SWIDTH 900 0
DWIDTH 16 0
BBX 16 16 0 -2
BITMAP
0000
0000
0000
0000
0000
0000
0000
0000
0000
0000
0000
0000
0000
0000
0000
0000
ENDCHAR

STARTCHAR C2d3d
ENCODING 11581
SWIDTH 900 0
DWIDTH 16 0
BBX 16 16 0 -2
BITMAP
0000
0000
0000
0000
0000
0000
0000
0000
0000
0000
0000
0000
0000
0000
0000
0000
ENDCHAR

STARTCHAR C2d3e
ENCODING 11582
SWIDTH 900 0
DWIDTH 16 0
BBX 16 16 0 -2
BITMAP
0000
0000
0000
0000
0000
0000
0000
0000
0000
0000
0000
0000
0000
0000
0000
0000
ENDCHAR

STARTCHAR C2d3f
ENCODING 11583
SWIDTH 900 0
DWIDTH 16 0
BBX 16 16 0 -2
BITMAP
0000
0000
0000
0000
0000
0000
0000
0000
0000
0000
0000
0000
0000
0000
0000
0000
ENDCHAR

STARTCHAR C2d40
ENCODING 11584
SWIDTH 900 0
DWIDTH 16 0
BBX 16 16 0 -2
BITMAP
0000
0000
0000
0000
0000
0000
0000
0000
0000
0000
0000
0000
0000
0000
0000
0000
ENDCHAR

STARTCHAR C2d41
ENCODING 11585
SWIDTH 900 0
DWIDTH 16 0
BBX 16 16 0 -2
BITMAP
0000
0000
0000
0000
0000
0000
0000
0000
0000
0000
0000
0000
0000
0000
0000
0000
ENDCHAR

STARTCHAR C2d42
ENCODING 11586
SWIDTH 900 0
DWIDTH 16 0
BBX 16 16 0 -2
BITMAP
0000
0000
0000
0000
0000
0000
0000
0000
0000
0000
0000
0000
0000
0000
0000
0000
ENDCHAR

STARTCHAR C2d43
ENCODING 11587
SWIDTH 900 0
DWIDTH 16 0
BBX 16 16 0 -2
BITMAP
0000
0000
0000
0000
0000
0000
0000
0000
0000
0000
0000
0000
0000
0000
0000
0000
ENDCHAR

STARTCHAR C2d44
ENCODING 11588
SWIDTH 900 0
DWIDTH 16 0
BBX 16 16 0 -2
BITMAP
0000
0000
0000
0000
0000
0000
0000
0000
0000
0000
0000
0000
0000
0000
0000
0000
ENDCHAR

STARTCHAR C2d45
ENCODING 11589
SWIDTH 900 0
DWIDTH 16 0
BBX 16 16 0 -2
BITMAP
0000
0000
0000
0000
0000
0000
0000
0000
0000
0000
0000
0000
0000
0000
0000
0000
ENDCHAR

STARTCHAR C2d46
ENCODING 11590
SWIDTH 900 0
DWIDTH 16 0
BBX 16 16 0 -2
BITMAP
0000
0000
0000
0000
0000
0000
0000
0000
0000
0000
0000
0000
0000
0000
0000
0000
ENDCHAR

STARTCHAR C2d47
ENCODING 11591
SWIDTH 900 0
DWIDTH 16 0
BBX 16 16 0 -2
BITMAP
0000
0000
0000
0000
0000
0000
0000
0000
0000
0000
0000
0000
0000
0000
0000
0000
ENDCHAR

STARTCHAR C2d48
ENCODING 11592
SWIDTH 900 0
DWIDTH 16 0
BBX 16 16 0 -2
BITMAP
0000
0000
0000
0000
0000
0000
0000
0000
0000
0000
0000
0000
0000
0000
0000
0000
ENDCHAR

STARTCHAR C2d49
ENCODING 11593
SWIDTH 900 0
DWIDTH 16 0
BBX 16 16 0 -2
BITMAP
0000
0000
0000
0000
0000
0000
0000
0000
0000
0000
0000
0000
0000
0000
0000
0000
ENDCHAR

STARTCHAR C2d4a
ENCODING 11594
SWIDTH 900 0
DWIDTH 16 0
BBX 16 16 0 -2
BITMAP
0000
0000
0000
0000
0000
0000
0000
0000
0000
0000
0000
0000
0000
0000
0000
0000
ENDCHAR

STARTCHAR C2d4b
ENCODING 11595
SWIDTH 900 0
DWIDTH 16 0
BBX 16 16 0 -2
BITMAP
0000
0000
0000
0000
0000
0000
0000
0000
0000
0000
0000
0000
0000
0000
0000
0000
ENDCHAR

STARTCHAR C2d4c
ENCODING 11596
SWIDTH 900 0
DWIDTH 16 0
BBX 16 16 0 -2
BITMAP
0000
0000
0000
0000
0000
0000
0000
0000
0000
0000
0000
0000
0000
0000
0000
0000
ENDCHAR

STARTCHAR C2d4d
ENCODING 11597
SWIDTH 900 0
DWIDTH 16 0
BBX 16 16 0 -2
BITMAP
0000
0000
0000
0000
0000
0000
0000
0000
0000
0000
0000
0000
0000
0000
0000
0000
ENDCHAR

STARTCHAR C2d4e
ENCODING 11598
SWIDTH 900 0
DWIDTH 16 0
BBX 16 16 0 -2
BITMAP
0000
0000
0000
0000
0000
0000
0000
0000
0000
0000
0000
0000
0000
0000
0000
0000
ENDCHAR

STARTCHAR C2d4f
ENCODING 11599
SWIDTH 900 0
DWIDTH 16 0
BBX 16 16 0 -2
BITMAP
0000
0000
0000
0000
0000
0000
0000
0000
0000
0000
0000
0000
0000
0000
0000
0000
ENDCHAR

STARTCHAR C2d50
ENCODING 11600
SWIDTH 900 0
DWIDTH 16 0
BBX 16 16 0 -2
BITMAP
0000
0000
0000
0000
0000
0000
0000
0000
0000
0000
0000
0000
0000
0000
0000
0000
ENDCHAR

STARTCHAR C2d51
ENCODING 11601
SWIDTH 900 0
DWIDTH 16 0
BBX 16 16 0 -2
BITMAP
0000
0000
0000
0000
0000
0000
0000
0000
0000
0000
0000
0000
0000
0000
0000
0000
ENDCHAR

STARTCHAR C2d52
ENCODING 11602
SWIDTH 900 0
DWIDTH 16 0
BBX 16 16 0 -2
BITMAP
0000
0000
0000
0000
0000
0000
0000
0000
0000
0000
0000
0000
0000
0000
0000
0000
ENDCHAR

STARTCHAR C2d53
ENCODING 11603
SWIDTH 900 0
DWIDTH 16 0
BBX 16 16 0 -2
BITMAP
0000
0000
0000
0000
0000
0000
0000
0000
0000
0000
0000
0000
0000
0000
0000
0000
ENDCHAR

STARTCHAR C2d54
ENCODING 11604
SWIDTH 900 0
DWIDTH 16 0
BBX 16 16 0 -2
BITMAP
0000
0000
0000
0000
0000
0000
0000
0000
0000
0000
0000
0000
0000
0000
0000
0000
ENDCHAR

STARTCHAR C2d55
ENCODING 11605
SWIDTH 900 0
DWIDTH 16 0
BBX 16 16 0 -2
BITMAP
0000
0000
0000
0000
0000
0000
0000
0000
0000
0000
0000
0000
0000
0000
0000
0000
ENDCHAR

STARTCHAR C2d56
ENCODING 11606
SWIDTH 900 0
DWIDTH 16 0
BBX 16 16 0 -2
BITMAP
0000
0000
0000
0000
0000
0000
0000
0000
0000
0000
0000
0000
0000
0000
0000
0000
ENDCHAR

STARTCHAR C2d57
ENCODING 11607
SWIDTH 900 0
DWIDTH 16 0
BBX 16 16 0 -2
BITMAP
0000
0000
0000
0000
0000
0000
0000
0000
0000
0000
0000
0000
0000
0000
0000
0000
ENDCHAR

STARTCHAR C2d58
ENCODING 11608
SWIDTH 900 0
DWIDTH 16 0
BBX 16 16 0 -2
BITMAP
0000
0000
0000
0000
0000
0000
0000
0000
0000
0000
0000
0000
0000
0000
0000
0000
ENDCHAR

STARTCHAR C2d59
ENCODING 11609
SWIDTH 900 0
DWIDTH 16 0
BBX 16 16 0 -2
BITMAP
0000
0000
0000
0000
0000
0000
0000
0000
0000
0000
0000
0000
0000
0000
0000
0000
ENDCHAR

STARTCHAR C2d5a
ENCODING 11610
SWIDTH 900 0
DWIDTH 16 0
BBX 16 16 0 -2
BITMAP
0000
0000
0000
0000
0000
0000
0000
0000
0000
0000
0000
0000
0000
0000
0000
0000
ENDCHAR

STARTCHAR C2d5b
ENCODING 11611
SWIDTH 900 0
DWIDTH 16 0
BBX 16 16 0 -2
BITMAP
0000
0000
0000
0000
0000
0000
0000
0000
0000
0000
0000
0000
0000
0000
0000
0000
ENDCHAR

STARTCHAR C2d5c
ENCODING 11612
SWIDTH 900 0
DWIDTH 16 0
BBX 16 16 0 -2
BITMAP
0000
0000
0000
0000
0000
0000
0000
0000
0000
0000
0000
0000
0000
0000
0000
0000
ENDCHAR

STARTCHAR C2d5d
ENCODING 11613
SWIDTH 900 0
DWIDTH 16 0
BBX 16 16 0 -2
BITMAP
0000
0000
0000
0000
0000
0000
0000
0000
0000
0000
0000
0000
0000
0000
0000
0000
ENDCHAR

STARTCHAR C2d5e
ENCODING 11614
SWIDTH 900 0
DWIDTH 16 0
BBX 16 16 0 -2
BITMAP
0000
0000
0000
0000
0000
0000
0000
0000
0000
0000
0000
0000
0000
0000
0000
0000
ENDCHAR

STARTCHAR C2d5f
ENCODING 11615
SWIDTH 900 0
DWIDTH 16 0
BBX 16 16 0 -2
BITMAP
0000
0000
0000
0000
0000
0000
0000
0000
0000
0000
0000
0000
0000
0000
0000
0000
ENDCHAR

STARTCHAR C2d60
ENCODING 11616
SWIDTH 900 0
DWIDTH 16 0
BBX 16 16 0 -2
BITMAP
0000
0000
0000
0000
0000
0000
0000
0000
0000
0000
0000
0000
0000
0000
0000
0000
ENDCHAR

STARTCHAR C2d61
ENCODING 11617
SWIDTH 900 0
DWIDTH 16 0
BBX 16 16 0 -2
BITMAP
0000
0000
0000
0000
0000
0000
0000
0000
0000
0000
0000
0000
0000
0000
0000
0000
ENDCHAR

STARTCHAR C2d62
ENCODING 11618
SWIDTH 900 0
DWIDTH 16 0
BBX 16 16 0 -2
BITMAP
0000
0000
0000
0000
0000
0000
0000
0000
0000
0000
0000
0000
0000
0000
0000
0000
ENDCHAR

STARTCHAR C2d63
ENCODING 11619
SWIDTH 900 0
DWIDTH 16 0
BBX 16 16 0 -2
BITMAP
0000
0000
0000
0000
0000
0000
0000
0000
0000
0000
0000
0000
0000
0000
0000
0000
ENDCHAR

STARTCHAR C2d64
ENCODING 11620
SWIDTH 900 0
DWIDTH 16 0
BBX 16 16 0 -2
BITMAP
0000
0000
0000
0000
0000
0000
0000
0000
0000
0000
0000
0000
0000
0000
0000
0000
ENDCHAR

ENDFONT
